# MagicaVoxel @ Ephtracy

# group
o 

# material
mtllib Conveyor.mtl
usemtl palette

# normals
vn -1 0 0
vn 1 0 0
vn 0 0 1
vn 0 0 -1
vn 0 -1 0
vn 0 1 0

# texcoords
vt 0.498047 0.5
vt 0.986328 0.5
vt 0.990234 0.5
vt 0.994141 0.5

# verts
v -0.8 0 0.8
v -0.8 0 -0.8
v -0.8 0.6 0.8
v -0.8 0.6 0.6
v -0.8 0.6 0.4
v -0.8 0.6 0.2
v -0.8 0.6 0
v -0.8 0.6 -0.2
v -0.8 0.6 -0.4
v -0.8 0.6 -0.6
v -0.8 0.6 -0.8
v -0.8 0.7 0.8
v -0.8 0.7 0.6
v -0.8 0.7 0.4
v -0.8 0.7 0.2
v -0.8 0.7 0
v -0.8 0.7 -0.2
v -0.8 0.7 -0.4
v -0.8 0.7 -0.6
v -0.8 0.7 -0.8
v 0.8 0 0.8
v 0.8 0 -0.8
v 0.8 0.6 0.8
v 0.8 0.6 0.6
v 0.8 0.6 0.4
v 0.8 0.6 0.2
v 0.8 0.6 0
v 0.8 0.6 -0.2
v 0.8 0.6 -0.4
v 0.8 0.6 -0.6
v 0.8 0.6 -0.8
v 0.8 0.7 0.8
v 0.8 0.7 0.6
v 0.8 0.7 0.4
v 0.8 0.7 0.2
v 0.8 0.7 0
v 0.8 0.7 -0.2
v 0.8 0.7 -0.4
v 0.8 0.7 -0.6
v 0.8 0.7 -0.8
v -0.8 0 0.8
v -0.8 0.6 0.8
v -0.8 0.7 0.8
v 0.8 0 0.8
v 0.8 0.6 0.8
v 0.8 0.7 0.8
v -0.8 0 -0.8
v -0.8 0.6 -0.8
v -0.8 0.7 -0.8
v 0.8 0 -0.8
v 0.8 0.6 -0.8
v 0.8 0.7 -0.8
v -0.8 0 0.8
v 0.8 0 0.8
v -0.8 0 -0.8
v 0.8 0 -0.8
v -0.8 0.7 0.8
v 0.8 0.7 0.8
v -0.8 0.7 0.6
v -0.1 0.7 0.6
v 0.1 0.7 0.6
v 0.8 0.7 0.6
v -0.8 0.7 0.4
v -0.1 0.7 0.4
v 0.1 0.7 0.4
v 0.8 0.7 0.4
v -0.8 0.7 0.2
v -0.1 0.7 0.2
v 0.1 0.7 0.2
v 0.8 0.7 0.2
v -0.8 0.7 0
v -0.1 0.7 0
v 0.1 0.7 0
v 0.8 0.7 0
v -0.8 0.7 -0.2
v -0.3 0.7 -0.2
v -0.1 0.7 -0.2
v 0.1 0.7 -0.2
v 0.3 0.7 -0.2
v 0.8 0.7 -0.2
v -0.3 0.7 -0.3
v -0.2 0.7 -0.3
v 0.2 0.7 -0.3
v 0.3 0.7 -0.3
v -0.8 0.7 -0.4
v -0.2 0.7 -0.4
v -0.1 0.7 -0.4
v 0.1 0.7 -0.4
v 0.2 0.7 -0.4
v 0.8 0.7 -0.4
v -0.1 0.7 -0.5
v 0.1 0.7 -0.5
v -0.8 0.7 -0.6
v 0.8 0.7 -0.6
v -0.8 0.7 -0.8
v 0.8 0.7 -0.8

# faces
f 3/4/1 2/4/1 1/4/1
f 4/4/1 2/4/1 3/4/1
f 5/4/1 2/4/1 4/4/1
f 6/4/1 2/4/1 5/4/1
f 7/4/1 2/4/1 6/4/1
f 8/4/1 2/4/1 7/4/1
f 9/4/1 2/4/1 8/4/1
f 10/4/1 2/4/1 9/4/1
f 11/4/1 2/4/1 10/4/1
f 12/2/1 4/2/1 3/2/1
f 13/3/1 5/3/1 4/3/1
f 13/2/1 4/2/1 12/2/1
f 14/2/1 6/2/1 5/2/1
f 14/3/1 5/3/1 13/3/1
f 15/3/1 7/3/1 6/3/1
f 15/2/1 6/2/1 14/2/1
f 16/2/1 8/2/1 7/2/1
f 16/3/1 7/3/1 15/3/1
f 17/3/1 9/3/1 8/3/1
f 17/2/1 8/2/1 16/2/1
f 18/2/1 10/2/1 9/2/1
f 18/3/1 9/3/1 17/3/1
f 19/3/1 11/3/1 10/3/1
f 19/2/1 10/2/1 18/2/1
f 20/3/1 11/3/1 19/3/1
f 21/4/2 22/4/2 23/4/2
f 23/4/2 22/4/2 24/4/2
f 24/4/2 22/4/2 25/4/2
f 25/4/2 22/4/2 26/4/2
f 26/4/2 22/4/2 27/4/2
f 27/4/2 22/4/2 28/4/2
f 28/4/2 22/4/2 29/4/2
f 29/4/2 22/4/2 30/4/2
f 30/4/2 22/4/2 31/4/2
f 23/2/2 24/2/2 32/2/2
f 24/3/2 25/3/2 33/3/2
f 32/2/2 24/2/2 33/2/2
f 25/2/2 26/2/2 34/2/2
f 33/3/2 25/3/2 34/3/2
f 26/3/2 27/3/2 35/3/2
f 34/2/2 26/2/2 35/2/2
f 27/2/2 28/2/2 36/2/2
f 35/3/2 27/3/2 36/3/2
f 28/3/2 29/3/2 37/3/2
f 36/2/2 28/2/2 37/2/2
f 29/2/2 30/2/2 38/2/2
f 37/3/2 29/3/2 38/3/2
f 30/3/2 31/3/2 39/3/2
f 38/2/2 30/2/2 39/2/2
f 39/3/2 31/3/2 40/3/2
f 44/4/3 42/4/3 41/4/3
f 45/2/3 43/2/3 42/2/3
f 45/4/3 42/4/3 44/4/3
f 46/2/3 43/2/3 45/2/3
f 47/4/4 48/4/4 50/4/4
f 48/3/4 49/3/4 51/3/4
f 50/4/4 48/4/4 51/4/4
f 51/3/4 49/3/4 52/3/4
f 55/4/5 54/4/5 53/4/5
f 56/4/5 54/4/5 55/4/5
f 57/2/6 58/2/6 59/2/6
f 59/2/6 58/2/6 60/2/6
f 60/2/6 58/2/6 61/2/6
f 61/2/6 58/2/6 62/2/6
f 59/3/6 60/3/6 63/3/6
f 60/1/6 61/1/6 64/1/6
f 63/3/6 60/3/6 64/3/6
f 61/3/6 62/3/6 65/3/6
f 64/1/6 61/1/6 65/1/6
f 65/3/6 62/3/6 66/3/6
f 63/2/6 64/2/6 67/2/6
f 64/1/6 65/1/6 68/1/6
f 67/2/6 64/2/6 68/2/6
f 65/2/6 66/2/6 69/2/6
f 68/1/6 65/1/6 69/1/6
f 69/2/6 66/2/6 70/2/6
f 67/3/6 68/3/6 71/3/6
f 68/1/6 69/1/6 72/1/6
f 71/3/6 68/3/6 72/3/6
f 69/3/6 70/3/6 73/3/6
f 72/1/6 69/1/6 73/1/6
f 73/3/6 70/3/6 74/3/6
f 71/2/6 72/2/6 75/2/6
f 75/2/6 72/2/6 76/2/6
f 72/1/6 73/1/6 77/1/6
f 76/2/6 72/2/6 77/2/6
f 73/2/6 74/2/6 78/2/6
f 77/1/6 73/1/6 78/1/6
f 78/2/6 74/2/6 79/2/6
f 79/2/6 74/2/6 80/2/6
f 75/3/6 76/3/6 81/3/6
f 76/1/6 77/1/6 81/1/6
f 77/1/6 78/1/6 81/1/6
f 78/1/6 79/1/6 81/1/6
f 81/1/6 79/1/6 82/1/6
f 82/1/6 79/1/6 83/1/6
f 79/3/6 80/3/6 84/3/6
f 83/1/6 79/1/6 84/1/6
f 75/3/6 81/3/6 85/3/6
f 81/3/6 82/3/6 85/3/6
f 82/1/6 83/1/6 86/1/6
f 85/3/6 82/3/6 86/3/6
f 86/1/6 83/1/6 87/1/6
f 87/1/6 83/1/6 88/1/6
f 83/3/6 84/3/6 89/3/6
f 88/1/6 83/1/6 89/1/6
f 84/3/6 80/3/6 90/3/6
f 89/3/6 84/3/6 90/3/6
f 87/1/6 88/1/6 91/1/6
f 85/2/6 86/2/6 91/2/6
f 86/2/6 87/2/6 91/2/6
f 88/2/6 89/2/6 92/2/6
f 91/1/6 88/1/6 92/1/6
f 89/2/6 90/2/6 92/2/6
f 85/2/6 91/2/6 93/2/6
f 91/2/6 92/2/6 93/2/6
f 92/2/6 90/2/6 94/2/6
f 93/2/6 92/2/6 94/2/6
f 93/3/6 94/3/6 95/3/6
f 95/3/6 94/3/6 96/3/6
