# MagicaVoxel @ Ephtracy

# group
o 

# material
mtllib Mixer.mtl
usemtl palette

# normals
vn -1 0 0
vn 1 0 0
vn 0 0 1
vn 0 0 -1
vn 0 -1 0
vn 0 1 0

# texcoords
vt 0.146484 0.5
vt 0.771484 0.5
vt 0.947266 0.5
vt 0.955078 0.5
vt 0.974609 0.5
vt 0.978516 0.5
vt 0.982422 0.5
vt 0.986328 0.5
vt 0.990234 0.5

# verts
v -0.8 0 0.8
v -0.8 0 -0.8
v -0.8 0.5 0.2
v -0.8 0.5 -0.2
v -0.8 0.6 0.3
v -0.8 0.6 0.2
v -0.8 0.6 0.1
v -0.8 0.6 -0.1
v -0.8 0.6 -0.2
v -0.8 0.6 -0.3
v -0.8 0.7 0.2
v -0.8 0.7 0.1
v -0.8 0.7 -0.1
v -0.8 0.7 -0.2
v -0.8 0.9 0.2
v -0.8 0.9 0.1
v -0.8 0.9 -0.1
v -0.8 0.9 -0.2
v -0.8 1 0.3
v -0.8 1 0.2
v -0.8 1 0.1
v -0.8 1 -0.1
v -0.8 1 -0.2
v -0.8 1 -0.3
v -0.8 1.1 0.2
v -0.8 1.1 -0.2
v -0.8 1.2 0.8
v -0.8 1.2 0.7
v -0.8 1.2 -0.7
v -0.8 1.2 -0.8
v -0.8 1.3 0.7
v -0.8 1.3 0.6
v -0.8 1.3 -0.6
v -0.8 1.3 -0.7
v -0.8 1.4 0.6
v -0.8 1.4 -0.6
v -0.8 1.5 0.6
v -0.8 1.5 -0.6
v -0.8 2.8 0.6
v -0.8 2.8 -0.6
v -0.8 2.9 0.6
v -0.8 2.9 -0.6
v -0.8 3.1 0.6
v -0.8 3.1 -0.6
v -0.8 3.2 0.8
v -0.8 3.2 -0.8
v -0.7 2.9 0.6
v -0.7 2.9 0.4
v -0.7 2.9 -0.4
v -0.7 2.9 -0.6
v -0.7 3 0.6
v -0.7 3 0.4
v -0.7 3 -0.4
v -0.7 3 -0.6
v -0.7 3.1 0.6
v -0.7 3.1 0.4
v -0.7 3.1 -0.4
v -0.7 3.1 -0.6
v -0.3 1.6 0
v -0.3 1.6 -0.1
v -0.3 1.9 0
v -0.3 1.9 -0.1
v -0.2 1.5 0
v -0.2 1.5 -0.1
v -0.2 1.6 0
v -0.2 1.6 -0.1
v -0.2 1.9 0
v -0.2 1.9 -0.1
v -0.2 2 0
v -0.2 2 -0.1
v -0.2 2.8 0.1
v -0.2 2.8 -0.1
v -0.2 2.9 0.1
v -0.2 2.9 -0.1
v -0.1 1.4 0
v -0.1 1.4 -0.1
v -0.1 1.5 0.2
v -0.1 1.5 0.1
v -0.1 1.5 0
v -0.1 1.5 -0.1
v -0.1 1.6 0.3
v -0.1 1.6 0.2
v -0.1 1.6 0.1
v -0.1 1.9 0.3
v -0.1 1.9 0.2
v -0.1 1.9 0.1
v -0.1 1.9 0
v -0.1 2 0.2
v -0.1 2 0.1
v -0.1 2 0
v -0.1 2 -0.1
v -0.1 2.8 0.2
v -0.1 2.8 0.1
v -0.1 2.8 0
v -0.1 2.8 -0.1
v -0.1 2.8 -0.2
v -0.1 2.9 0.2
v -0.1 2.9 0.1
v -0.1 2.9 -0.1
v -0.1 2.9 -0.2
v 0 1.4 0.1
v 0 1.4 0
v 0 1.5 0.1
v 0 1.5 0
v 0 1.5 -0.1
v 0 1.5 -0.2
v 0 1.6 -0.1
v 0 1.6 -0.2
v 0 1.6 -0.3
v 0 1.9 -0.1
v 0 1.9 -0.2
v 0 1.9 -0.3
v 0 2 -0.1
v 0 2 -0.2
v 0.1 1.5 0.1
v 0.1 1.5 0
v 0.1 1.6 0.1
v 0.1 1.6 0
v 0.2 1.6 0.1
v 0.2 1.6 0
v 0.2 1.9 0.1
v 0.2 1.9 0
v 0.6 0.9 0.6
v 0.6 0.9 -0.6
v 0.6 1.5 0.8
v 0.6 1.5 0.7
v 0.6 1.5 0.6
v 0.6 1.5 -0.6
v 0.6 1.5 -0.7
v 0.6 1.5 -0.8
v 0.6 2.8 0.8
v 0.6 2.8 0.7
v 0.6 2.8 -0.7
v 0.6 2.8 -0.8
v 0.6 2.9 0.8
v 0.6 2.9 0.7
v 0.6 2.9 -0.7
v 0.6 2.9 -0.8
v 0.6 3 0.7
v 0.6 3 -0.7
v 0.6 3.1 0.8
v 0.6 3.1 0.7
v 0.6 3.1 -0.7
v 0.6 3.1 -0.8
v 0.7 1.5 0.7
v 0.7 1.5 0.6
v 0.7 1.5 -0.6
v 0.7 1.5 -0.7
v 0.7 2.8 0.6
v 0.7 2.8 -0.6
v 0.7 2.9 0.7
v 0.7 2.9 0.4
v 0.7 2.9 -0.4
v 0.7 2.9 -0.7
v -0.7 1.5 0.7
v -0.7 1.5 0.6
v -0.7 1.5 -0.6
v -0.7 1.5 -0.7
v -0.7 2.8 0.6
v -0.7 2.8 -0.6
v -0.7 2.9 0.7
v -0.7 2.9 0.4
v -0.7 2.9 -0.4
v -0.7 2.9 -0.7
v -0.6 0.9 0.6
v -0.6 0.9 -0.6
v -0.6 1.5 0.8
v -0.6 1.5 0.7
v -0.6 1.5 0.6
v -0.6 1.5 -0.6
v -0.6 1.5 -0.7
v -0.6 1.5 -0.8
v -0.6 2.8 0.8
v -0.6 2.8 0.7
v -0.6 2.8 -0.7
v -0.6 2.8 -0.8
v -0.6 2.9 0.8
v -0.6 2.9 0.7
v -0.6 2.9 -0.7
v -0.6 2.9 -0.8
v -0.6 3 0.7
v -0.6 3 -0.7
v -0.6 3.1 0.8
v -0.6 3.1 0.7
v -0.6 3.1 -0.7
v -0.6 3.1 -0.8
v -0.2 1.6 0
v -0.2 1.6 -0.1
v -0.2 1.9 0
v -0.2 1.9 -0.1
v -0.1 1.5 0
v -0.1 1.5 -0.1
v -0.1 1.6 0
v -0.1 1.6 -0.1
v 0 1.4 0
v 0 1.4 -0.1
v 0 1.5 0.2
v 0 1.5 0.1
v 0 1.5 0
v 0 1.5 -0.1
v 0 1.6 0.3
v 0 1.6 0.2
v 0 1.6 0.1
v 0 1.9 0.3
v 0 1.9 0.2
v 0 1.9 0.1
v 0 2 0.2
v 0 2 0.1
v 0.1 1.4 0.1
v 0.1 1.4 0
v 0.1 1.5 0.1
v 0.1 1.5 0
v 0.1 1.5 -0.1
v 0.1 1.5 -0.2
v 0.1 1.6 -0.1
v 0.1 1.6 -0.2
v 0.1 1.6 -0.3
v 0.1 1.9 0
v 0.1 1.9 -0.1
v 0.1 1.9 -0.2
v 0.1 1.9 -0.3
v 0.1 2 0.1
v 0.1 2 0
v 0.1 2 -0.1
v 0.1 2 -0.2
v 0.1 2.8 0.2
v 0.1 2.8 0.1
v 0.1 2.8 -0.1
v 0.1 2.8 -0.2
v 0.1 2.9 0.2
v 0.1 2.9 0.1
v 0.1 2.9 -0.1
v 0.1 2.9 -0.2
v 0.2 1.5 0.1
v 0.2 1.5 0
v 0.2 1.6 0.1
v 0.2 1.6 0
v 0.2 1.9 0.1
v 0.2 1.9 0
v 0.2 2 0.1
v 0.2 2 0
v 0.2 2.8 0.1
v 0.2 2.8 -0.1
v 0.2 2.9 0.1
v 0.2 2.9 -0.1
v 0.3 1.6 0.1
v 0.3 1.6 0
v 0.3 1.9 0.1
v 0.3 1.9 0
v 0.7 2.9 0.6
v 0.7 2.9 0.4
v 0.7 2.9 -0.4
v 0.7 2.9 -0.6
v 0.7 3 0.6
v 0.7 3 0.4
v 0.7 3 -0.4
v 0.7 3 -0.6
v 0.7 3.1 0.6
v 0.7 3.1 0.4
v 0.7 3.1 -0.4
v 0.7 3.1 -0.6
v 0.8 0 0.8
v 0.8 0 -0.8
v 0.8 0.5 0.2
v 0.8 0.5 -0.2
v 0.8 0.6 0.3
v 0.8 0.6 0.2
v 0.8 0.6 0.1
v 0.8 0.6 -0.1
v 0.8 0.6 -0.2
v 0.8 0.6 -0.3
v 0.8 0.7 0.2
v 0.8 0.7 0.1
v 0.8 0.7 -0.1
v 0.8 0.7 -0.2
v 0.8 0.9 0.2
v 0.8 0.9 0.1
v 0.8 0.9 -0.1
v 0.8 0.9 -0.2
v 0.8 1 0.3
v 0.8 1 0.2
v 0.8 1 0.1
v 0.8 1 -0.1
v 0.8 1 -0.2
v 0.8 1 -0.3
v 0.8 1.1 0.2
v 0.8 1.1 -0.2
v 0.8 1.2 0.8
v 0.8 1.2 0.7
v 0.8 1.2 -0.7
v 0.8 1.2 -0.8
v 0.8 1.3 0.7
v 0.8 1.3 0.6
v 0.8 1.3 -0.6
v 0.8 1.3 -0.7
v 0.8 1.4 0.6
v 0.8 1.4 -0.6
v 0.8 1.5 0.6
v 0.8 1.5 -0.6
v 0.8 2.8 0.6
v 0.8 2.8 -0.6
v 0.8 2.9 0.6
v 0.8 2.9 -0.6
v 0.8 3.1 0.6
v 0.8 3.1 -0.6
v 0.8 3.2 0.8
v 0.8 3.2 -0.8
v -0.8 0 0.8
v -0.8 1.2 0.8
v -0.8 3.2 0.8
v -0.7 1.2 0.8
v -0.7 1.3 0.8
v -0.6 1.3 0.8
v -0.6 1.4 0.8
v -0.6 1.5 0.8
v -0.6 2.8 0.8
v -0.6 2.9 0.8
v -0.6 3.1 0.8
v -0.3 0.6 0.8
v -0.3 1 0.8
v -0.2 0.5 0.8
v -0.2 0.6 0.8
v -0.2 0.7 0.8
v -0.2 0.9 0.8
v -0.2 1 0.8
v -0.2 1.1 0.8
v -0.1 0.6 0.8
v -0.1 0.7 0.8
v -0.1 0.9 0.8
v -0.1 1 0.8
v 0.1 0.6 0.8
v 0.1 0.7 0.8
v 0.1 0.9 0.8
v 0.1 1 0.8
v 0.2 0.5 0.8
v 0.2 0.6 0.8
v 0.2 0.7 0.8
v 0.2 0.9 0.8
v 0.2 1 0.8
v 0.2 1.1 0.8
v 0.3 0.6 0.8
v 0.3 1 0.8
v 0.6 1.3 0.8
v 0.6 1.4 0.8
v 0.6 1.5 0.8
v 0.6 2.8 0.8
v 0.6 2.9 0.8
v 0.6 3.1 0.8
v 0.7 1.2 0.8
v 0.7 1.3 0.8
v 0.8 0 0.8
v 0.8 1.2 0.8
v 0.8 3.2 0.8
v -0.6 2.9 0.7
v -0.6 3 0.7
v -0.6 3.1 0.7
v -0.4 2.9 0.7
v -0.4 3 0.7
v -0.4 3.1 0.7
v 0.4 2.9 0.7
v 0.4 3 0.7
v 0.4 3.1 0.7
v 0.6 2.9 0.7
v 0.6 3 0.7
v 0.6 3.1 0.7
v -0.1 1.6 0.3
v -0.1 1.9 0.3
v 0 1.6 0.3
v 0 1.9 0.3
v -0.1 1.5 0.2
v -0.1 1.6 0.2
v -0.1 1.9 0.2
v -0.1 2 0.2
v -0.1 2.8 0.2
v -0.1 2.9 0.2
v 0 1.5 0.2
v 0 1.6 0.2
v 0 1.9 0.2
v 0 2 0.2
v 0.1 2.8 0.2
v 0.1 2.9 0.2
v -0.2 2.8 0.1
v -0.2 2.9 0.1
v -0.1 2 0.1
v -0.1 2.8 0.1
v -0.1 2.9 0.1
v 0 1.4 0.1
v 0 1.5 0.1
v 0 1.9 0.1
v 0 2 0.1
v 0 2.8 0.1
v 0.1 1.4 0.1
v 0.1 1.5 0.1
v 0.1 1.6 0.1
v 0.1 1.9 0.1
v 0.1 2 0.1
v 0.1 2.8 0.1
v 0.1 2.9 0.1
v 0.2 1.5 0.1
v 0.2 1.6 0.1
v 0.2 1.9 0.1
v 0.2 2 0.1
v 0.2 2.8 0.1
v 0.2 2.9 0.1
v 0.3 1.6 0.1
v 0.3 1.9 0.1
v -0.3 1.6 0
v -0.3 1.9 0
v -0.2 1.5 0
v -0.2 1.6 0
v -0.2 1.9 0
v -0.2 2 0
v -0.1 1.4 0
v -0.1 1.5 0
v -0.1 1.6 0
v -0.1 1.9 0
v -0.1 2 0
v 0 1.4 0
v 0 1.5 0
v 0 1.5 -0.1
v 0 1.6 -0.1
v 0.1 1.5 -0.1
v 0.1 1.6 -0.1
v 0 1.6 -0.2
v 0 1.9 -0.2
v 0.1 1.6 -0.2
v 0.1 1.9 -0.2
v -0.8 1.5 -0.6
v -0.8 2.8 -0.6
v -0.8 2.9 -0.6
v -0.8 3.1 -0.6
v -0.7 1.5 -0.6
v -0.7 2.8 -0.6
v -0.7 2.9 -0.6
v -0.7 3 -0.6
v -0.7 3.1 -0.6
v -0.6 0.9 -0.6
v -0.6 1.5 -0.6
v 0.6 0.9 -0.6
v 0.6 1.5 -0.6
v 0.7 1.5 -0.6
v 0.7 2.8 -0.6
v 0.7 2.9 -0.6
v 0.7 3 -0.6
v 0.7 3.1 -0.6
v 0.8 1.5 -0.6
v 0.8 2.8 -0.6
v 0.8 2.9 -0.6
v 0.8 3.1 -0.6
v -0.7 1.5 -0.7
v -0.7 2.9 -0.7
v -0.6 1.5 -0.7
v -0.6 2.8 -0.7
v -0.4 2.9 -0.7
v 0.4 2.9 -0.7
v 0.6 1.5 -0.7
v 0.6 2.8 -0.7
v 0.7 1.5 -0.7
v 0.7 2.9 -0.7
v -0.7 1.5 0.7
v -0.7 2.9 0.7
v -0.6 1.5 0.7
v -0.6 2.8 0.7
v -0.4 2.9 0.7
v 0.4 2.9 0.7
v 0.6 1.5 0.7
v 0.6 2.8 0.7
v 0.7 1.5 0.7
v 0.7 2.9 0.7
v -0.8 1.5 0.6
v -0.8 2.8 0.6
v -0.8 2.9 0.6
v -0.8 3.1 0.6
v -0.7 1.5 0.6
v -0.7 2.8 0.6
v -0.7 2.9 0.6
v -0.7 3 0.6
v -0.7 3.1 0.6
v -0.6 0.9 0.6
v -0.6 1.5 0.6
v 0.6 0.9 0.6
v 0.6 1.5 0.6
v 0.7 1.5 0.6
v 0.7 2.8 0.6
v 0.7 2.9 0.6
v 0.7 3 0.6
v 0.7 3.1 0.6
v 0.8 1.5 0.6
v 0.8 2.8 0.6
v 0.8 2.9 0.6
v 0.8 3.1 0.6
v -0.1 1.6 0.2
v -0.1 1.9 0.2
v 0 1.6 0.2
v 0 1.9 0.2
v -0.1 1.5 0.1
v -0.1 1.6 0.1
v 0 1.5 0.1
v 0 1.6 0.1
v 0 1.4 0
v 0 1.5 0
v 0.1 1.4 0
v 0.1 1.5 0
v 0.1 1.6 0
v 0.1 1.9 0
v 0.1 2 0
v 0.2 1.5 0
v 0.2 1.6 0
v 0.2 1.9 0
v 0.2 2 0
v 0.3 1.6 0
v 0.3 1.9 0
v -0.3 1.6 -0.1
v -0.3 1.9 -0.1
v -0.2 1.5 -0.1
v -0.2 1.6 -0.1
v -0.2 1.9 -0.1
v -0.2 2 -0.1
v -0.2 2.8 -0.1
v -0.2 2.9 -0.1
v -0.1 1.4 -0.1
v -0.1 1.5 -0.1
v -0.1 1.6 -0.1
v -0.1 1.9 -0.1
v -0.1 2 -0.1
v -0.1 2.8 -0.1
v -0.1 2.9 -0.1
v 0 1.4 -0.1
v 0 1.5 -0.1
v 0 1.9 -0.1
v 0 2 -0.1
v 0.1 2 -0.1
v 0.1 2.8 -0.1
v 0.1 2.9 -0.1
v 0.2 2.8 -0.1
v 0.2 2.9 -0.1
v -0.1 2.8 -0.2
v -0.1 2.9 -0.2
v 0 1.5 -0.2
v 0 1.6 -0.2
v 0 1.9 -0.2
v 0 2 -0.2
v 0.1 1.5 -0.2
v 0.1 1.6 -0.2
v 0.1 1.9 -0.2
v 0.1 2 -0.2
v 0.1 2.8 -0.2
v 0.1 2.9 -0.2
v 0 1.6 -0.3
v 0 1.9 -0.3
v 0.1 1.6 -0.3
v 0.1 1.9 -0.3
v -0.6 2.9 -0.7
v -0.6 3 -0.7
v -0.6 3.1 -0.7
v -0.4 2.9 -0.7
v -0.4 3 -0.7
v -0.4 3.1 -0.7
v 0.4 2.9 -0.7
v 0.4 3 -0.7
v 0.4 3.1 -0.7
v 0.6 2.9 -0.7
v 0.6 3 -0.7
v 0.6 3.1 -0.7
v -0.8 0 -0.8
v -0.8 1.2 -0.8
v -0.8 3.2 -0.8
v -0.7 1.2 -0.8
v -0.7 1.3 -0.8
v -0.6 1.3 -0.8
v -0.6 1.4 -0.8
v -0.6 1.5 -0.8
v -0.6 2.8 -0.8
v -0.6 2.9 -0.8
v -0.6 3.1 -0.8
v -0.3 0.6 -0.8
v -0.3 1 -0.8
v -0.2 0.5 -0.8
v -0.2 0.6 -0.8
v -0.2 0.7 -0.8
v -0.2 0.9 -0.8
v -0.2 1 -0.8
v -0.2 1.1 -0.8
v -0.1 0.6 -0.8
v -0.1 0.7 -0.8
v -0.1 0.9 -0.8
v -0.1 1 -0.8
v 0.1 0.6 -0.8
v 0.1 0.7 -0.8
v 0.1 0.9 -0.8
v 0.1 1 -0.8
v 0.2 0.5 -0.8
v 0.2 0.6 -0.8
v 0.2 0.7 -0.8
v 0.2 0.9 -0.8
v 0.2 1 -0.8
v 0.2 1.1 -0.8
v 0.3 0.6 -0.8
v 0.3 1 -0.8
v 0.6 1.3 -0.8
v 0.6 1.4 -0.8
v 0.6 1.5 -0.8
v 0.6 2.8 -0.8
v 0.6 2.9 -0.8
v 0.6 3.1 -0.8
v 0.7 1.2 -0.8
v 0.7 1.3 -0.8
v 0.8 0 -0.8
v 0.8 1.2 -0.8
v 0.8 3.2 -0.8
v -0.8 0 0.8
v 0.8 0 0.8
v -0.8 0 -0.8
v 0.8 0 -0.8
v 0 1.4 0.1
v 0.1 1.4 0.1
v -0.1 1.4 0
v 0 1.4 0
v 0.1 1.4 0
v -0.1 1.4 -0.1
v 0 1.4 -0.1
v -0.1 1.5 0.2
v 0 1.5 0.2
v -0.1 1.5 0.1
v 0 1.5 0.1
v 0.1 1.5 0.1
v 0.2 1.5 0.1
v -0.2 1.5 0
v -0.1 1.5 0
v 0.1 1.5 0
v 0.2 1.5 0
v -0.2 1.5 -0.1
v -0.1 1.5 -0.1
v 0 1.5 -0.1
v 0.1 1.5 -0.1
v 0 1.5 -0.2
v 0.1 1.5 -0.2
v -0.1 1.6 0.3
v 0 1.6 0.3
v -0.1 1.6 0.2
v 0 1.6 0.2
v 0.2 1.6 0.1
v 0.3 1.6 0.1
v -0.3 1.6 0
v -0.2 1.6 0
v 0.2 1.6 0
v 0.3 1.6 0
v -0.3 1.6 -0.1
v -0.2 1.6 -0.1
v 0 1.6 -0.2
v 0.1 1.6 -0.2
v 0 1.6 -0.3
v 0.1 1.6 -0.3
v -0.1 1.9 0.2
v 0 1.9 0.2
v -0.1 1.9 0.1
v 0 1.9 0.1
v 0.1 1.9 0.1
v 0.2 1.9 0.1
v -0.2 1.9 0
v -0.1 1.9 0
v 0 1.9 0
v 0.1 1.9 0
v 0.2 1.9 0
v -0.2 1.9 -0.1
v -0.1 1.9 -0.1
v 0 1.9 -0.1
v 0.1 1.9 -0.1
v 0 1.9 -0.2
v 0.1 1.9 -0.2
v -0.6 2.8 0.8
v 0.6 2.8 0.8
v -0.6 2.8 0.7
v 0.6 2.8 0.7
v -0.8 2.8 0.6
v -0.7 2.8 0.6
v 0.7 2.8 0.6
v 0.8 2.8 0.6
v -0.1 2.8 0.2
v 0.1 2.8 0.2
v -0.2 2.8 0.1
v -0.1 2.8 0.1
v 0 2.8 0.1
v 0.1 2.8 0.1
v 0.2 2.8 0.1
v -0.1 2.8 0
v -0.2 2.8 -0.1
v -0.1 2.8 -0.1
v 0.1 2.8 -0.1
v 0.2 2.8 -0.1
v -0.1 2.8 -0.2
v 0.1 2.8 -0.2
v -0.8 2.8 -0.6
v -0.7 2.8 -0.6
v 0.7 2.8 -0.6
v 0.8 2.8 -0.6
v -0.6 2.8 -0.7
v 0.6 2.8 -0.7
v -0.6 2.8 -0.8
v 0.6 2.8 -0.8
v -0.7 2.9 0.7
v -0.4 2.9 0.7
v 0.4 2.9 0.7
v 0.7 2.9 0.7
v -0.4 2.9 0.6
v -0.1 2.9 0.6
v 0.1 2.9 0.6
v 0.4 2.9 0.6
v -0.7 2.9 0.4
v -0.6 2.9 0.4
v 0.6 2.9 0.4
v 0.7 2.9 0.4
v -0.2 2.9 0.3
v -0.1 2.9 0.3
v 0.1 2.9 0.3
v 0.2 2.9 0.3
v -0.3 2.9 0.2
v -0.2 2.9 0.2
v -0.1 2.9 0.2
v 0.1 2.9 0.2
v 0.2 2.9 0.2
v 0.3 2.9 0.2
v -0.6 2.9 0.1
v -0.3 2.9 0.1
v -0.2 2.9 0.1
v -0.1 2.9 0.1
v 0.1 2.9 0.1
v 0.2 2.9 0.1
v 0.3 2.9 0.1
v 0.6 2.9 0.1
v -0.6 2.9 -0.1
v -0.3 2.9 -0.1
v -0.2 2.9 -0.1
v -0.1 2.9 -0.1
v 0.1 2.9 -0.1
v 0.2 2.9 -0.1
v 0.3 2.9 -0.1
v 0.6 2.9 -0.1
v -0.3 2.9 -0.2
v -0.2 2.9 -0.2
v -0.1 2.9 -0.2
v 0.1 2.9 -0.2
v 0.2 2.9 -0.2
v 0.3 2.9 -0.2
v -0.2 2.9 -0.3
v -0.1 2.9 -0.3
v 0.1 2.9 -0.3
v 0.2 2.9 -0.3
v -0.7 2.9 -0.4
v -0.6 2.9 -0.4
v 0.6 2.9 -0.4
v 0.7 2.9 -0.4
v -0.4 2.9 -0.6
v -0.1 2.9 -0.6
v 0.1 2.9 -0.6
v 0.4 2.9 -0.6
v -0.7 2.9 -0.7
v -0.4 2.9 -0.7
v 0.4 2.9 -0.7
v 0.7 2.9 -0.7
v -0.6 3.1 0.8
v 0.6 3.1 0.8
v -0.6 3.1 0.7
v -0.4 3.1 0.7
v 0.4 3.1 0.7
v 0.6 3.1 0.7
v -0.8 3.1 0.6
v -0.7 3.1 0.6
v 0.7 3.1 0.6
v 0.8 3.1 0.6
v -0.7 3.1 0.4
v 0.7 3.1 0.4
v -0.7 3.1 -0.4
v 0.7 3.1 -0.4
v -0.8 3.1 -0.6
v -0.7 3.1 -0.6
v 0.7 3.1 -0.6
v 0.8 3.1 -0.6
v -0.6 3.1 -0.7
v -0.4 3.1 -0.7
v 0.4 3.1 -0.7
v 0.6 3.1 -0.7
v -0.6 3.1 -0.8
v 0.6 3.1 -0.8
v -0.6 0.9 0.6
v 0.6 0.9 0.6
v -0.6 0.9 -0.6
v 0.6 0.9 -0.6
v -0.6 1.5 0.8
v 0.6 1.5 0.8
v -0.7 1.5 0.7
v -0.6 1.5 0.7
v 0.6 1.5 0.7
v 0.7 1.5 0.7
v -0.8 1.5 0.6
v -0.7 1.5 0.6
v -0.6 1.5 0.6
v 0.6 1.5 0.6
v 0.7 1.5 0.6
v 0.8 1.5 0.6
v 0 1.5 0.1
v 0.1 1.5 0.1
v -0.1 1.5 0
v 0 1.5 0
v 0.1 1.5 0
v -0.1 1.5 -0.1
v 0 1.5 -0.1
v -0.8 1.5 -0.6
v -0.7 1.5 -0.6
v -0.6 1.5 -0.6
v 0.6 1.5 -0.6
v 0.7 1.5 -0.6
v 0.8 1.5 -0.6
v -0.7 1.5 -0.7
v -0.6 1.5 -0.7
v 0.6 1.5 -0.7
v 0.7 1.5 -0.7
v -0.6 1.5 -0.8
v 0.6 1.5 -0.8
v -0.1 1.6 0.2
v 0 1.6 0.2
v -0.1 1.6 0.1
v 0 1.6 0.1
v 0.1 1.6 0.1
v 0.2 1.6 0.1
v -0.2 1.6 0
v -0.1 1.6 0
v 0.1 1.6 0
v 0.2 1.6 0
v -0.2 1.6 -0.1
v -0.1 1.6 -0.1
v 0 1.6 -0.1
v 0.1 1.6 -0.1
v 0 1.6 -0.2
v 0.1 1.6 -0.2
v -0.1 1.9 0.3
v 0 1.9 0.3
v -0.1 1.9 0.2
v 0 1.9 0.2
v 0.2 1.9 0.1
v 0.3 1.9 0.1
v -0.3 1.9 0
v -0.2 1.9 0
v 0.2 1.9 0
v 0.3 1.9 0
v -0.3 1.9 -0.1
v -0.2 1.9 -0.1
v 0 1.9 -0.2
v 0.1 1.9 -0.2
v 0 1.9 -0.3
v 0.1 1.9 -0.3
v -0.1 2 0.2
v 0 2 0.2
v -0.1 2 0.1
v 0 2 0.1
v 0.1 2 0.1
v 0.2 2 0.1
v -0.2 2 0
v -0.1 2 0
v 0.1 2 0
v 0.2 2 0
v -0.2 2 -0.1
v -0.1 2 -0.1
v 0 2 -0.1
v 0.1 2 -0.1
v 0 2 -0.2
v 0.1 2 -0.2
v -0.6 2.9 0.8
v 0.6 2.9 0.8
v -0.6 2.9 0.7
v -0.4 2.9 0.7
v 0.4 2.9 0.7
v 0.6 2.9 0.7
v -0.8 2.9 0.6
v -0.7 2.9 0.6
v 0.7 2.9 0.6
v 0.8 2.9 0.6
v -0.7 2.9 0.4
v 0.7 2.9 0.4
v -0.7 2.9 -0.4
v 0.7 2.9 -0.4
v -0.8 2.9 -0.6
v -0.7 2.9 -0.6
v 0.7 2.9 -0.6
v 0.8 2.9 -0.6
v -0.6 2.9 -0.7
v -0.4 2.9 -0.7
v 0.4 2.9 -0.7
v 0.6 2.9 -0.7
v -0.6 2.9 -0.8
v 0.6 2.9 -0.8
v -0.8 3.2 0.8
v 0.8 3.2 0.8
v -0.7 3.2 0.7
v 0.7 3.2 0.7
v -0.1 3.2 0.5
v 0.1 3.2 0.5
v -0.3 3.2 -0.2
v -0.1 3.2 -0.2
v 0.1 3.2 -0.2
v 0.3 3.2 -0.2
v -0.3 3.2 -0.3
v -0.2 3.2 -0.3
v 0.2 3.2 -0.3
v 0.3 3.2 -0.3
v -0.2 3.2 -0.4
v -0.1 3.2 -0.4
v 0.1 3.2 -0.4
v 0.2 3.2 -0.4
v -0.1 3.2 -0.5
v 0.1 3.2 -0.5
v -0.7 3.2 -0.7
v 0.7 3.2 -0.7
v -0.8 3.2 -0.8
v 0.8 3.2 -0.8

# faces
f 3/9/1 2/9/1 1/9/1
f 4/9/1 2/9/1 3/9/1
f 5/9/1 3/9/1 1/9/1
f 6/2/1 4/2/1 3/2/1
f 6/9/1 3/9/1 5/9/1
f 7/2/1 4/2/1 6/2/1
f 8/2/1 4/2/1 7/2/1
f 9/9/1 2/9/1 4/9/1
f 9/2/1 4/2/1 8/2/1
f 10/9/1 2/9/1 9/9/1
f 11/2/1 6/2/1 5/2/1
f 11/2/1 7/2/1 6/2/1
f 12/7/1 8/7/1 7/7/1
f 12/2/1 7/2/1 11/2/1
f 13/2/1 10/2/1 9/2/1
f 13/7/1 8/7/1 12/7/1
f 13/2/1 9/2/1 8/2/1
f 14/2/1 10/2/1 13/2/1
f 15/2/1 11/2/1 5/2/1
f 15/7/1 12/7/1 11/7/1
f 15/7/1 14/7/1 13/7/1
f 15/7/1 13/7/1 12/7/1
f 16/7/1 14/7/1 15/7/1
f 17/7/1 14/7/1 16/7/1
f 18/2/1 10/2/1 14/2/1
f 18/7/1 14/7/1 17/7/1
f 19/9/1 5/9/1 1/9/1
f 19/2/1 15/2/1 5/2/1
f 19/2/1 16/2/1 15/2/1
f 20/2/1 16/2/1 19/2/1
f 21/7/1 17/7/1 16/7/1
f 21/2/1 16/2/1 20/2/1
f 22/2/1 18/2/1 17/2/1
f 22/7/1 17/7/1 21/7/1
f 23/2/1 10/2/1 18/2/1
f 23/2/1 18/2/1 22/2/1
f 24/9/1 2/9/1 10/9/1
f 24/2/1 10/2/1 23/2/1
f 25/9/1 20/9/1 19/9/1
f 25/2/1 22/2/1 21/2/1
f 25/2/1 23/2/1 22/2/1
f 25/2/1 21/2/1 20/2/1
f 26/9/1 24/9/1 23/9/1
f 26/2/1 23/2/1 25/2/1
f 27/9/1 25/9/1 19/9/1
f 27/9/1 19/9/1 1/9/1
f 27/9/1 26/9/1 25/9/1
f 28/9/1 26/9/1 27/9/1
f 29/9/1 2/9/1 24/9/1
f 29/9/1 26/9/1 28/9/1
f 29/9/1 24/9/1 26/9/1
f 30/9/1 2/9/1 29/9/1
f 31/5/1 28/5/1 27/5/1
f 31/9/1 29/9/1 28/9/1
f 32/9/1 29/9/1 31/9/1
f 33/9/1 29/9/1 32/9/1
f 34/5/1 30/5/1 29/5/1
f 34/9/1 29/9/1 33/9/1
f 35/9/1 33/9/1 32/9/1
f 35/5/1 32/5/1 31/5/1
f 36/5/1 34/5/1 33/5/1
f 36/9/1 33/9/1 35/9/1
f 37/5/1 35/5/1 31/5/1
f 37/5/1 36/5/1 35/5/1
f 38/5/1 34/5/1 36/5/1
f 38/5/1 36/5/1 37/5/1
f 39/5/1 37/5/1 31/5/1
f 40/5/1 34/5/1 38/5/1
f 41/5/1 39/5/1 31/5/1
f 41/5/1 40/5/1 39/5/1
f 42/5/1 34/5/1 40/5/1
f 42/5/1 40/5/1 41/5/1
f 43/5/1 41/5/1 31/5/1
f 44/5/1 34/5/1 42/5/1
f 45/5/1 31/5/1 27/5/1
f 45/5/1 44/5/1 43/5/1
f 45/5/1 43/5/1 31/5/1
f 46/5/1 30/5/1 34/5/1
f 46/5/1 44/5/1 45/5/1
f 46/5/1 34/5/1 44/5/1
f 51/3/1 48/3/1 47/3/1
f 52/4/1 49/4/1 48/4/1
f 52/3/1 48/3/1 51/3/1
f 53/3/1 50/3/1 49/3/1
f 53/4/1 49/4/1 52/4/1
f 54/3/1 50/3/1 53/3/1
f 55/4/1 52/4/1 51/4/1
f 56/3/1 53/3/1 52/3/1
f 56/4/1 52/4/1 55/4/1
f 57/4/1 54/4/1 53/4/1
f 57/3/1 53/3/1 56/3/1
f 58/4/1 54/4/1 57/4/1
f 61/6/1 60/6/1 59/6/1
f 62/6/1 60/6/1 61/6/1
f 65/6/1 64/6/1 63/6/1
f 66/6/1 64/6/1 65/6/1
f 69/6/1 68/6/1 67/6/1
f 70/6/1 68/6/1 69/6/1
f 73/6/1 72/6/1 71/6/1
f 74/6/1 72/6/1 73/6/1
f 79/6/1 76/6/1 75/6/1
f 80/6/1 76/6/1 79/6/1
f 82/6/1 78/6/1 77/6/1
f 83/6/1 78/6/1 82/6/1
f 84/6/1 82/6/1 81/6/1
f 85/6/1 82/6/1 84/6/1
f 88/6/1 86/6/1 85/6/1
f 89/3/1 87/3/1 86/3/1
f 89/6/1 86/6/1 88/6/1
f 90/3/1 87/3/1 89/3/1
f 93/3/1 90/3/1 89/3/1
f 94/4/1 91/4/1 90/4/1
f 94/3/1 90/3/1 93/3/1
f 95/4/1 91/4/1 94/4/1
f 97/6/1 93/6/1 92/6/1
f 98/6/1 93/6/1 97/6/1
f 99/6/1 96/6/1 95/6/1
f 100/6/1 96/6/1 99/6/1
f 103/6/1 102/6/1 101/6/1
f 104/6/1 102/6/1 103/6/1
f 107/6/1 106/6/1 105/6/1
f 108/6/1 106/6/1 107/6/1
f 111/6/1 109/6/1 108/6/1
f 112/6/1 109/6/1 111/6/1
f 113/6/1 111/6/1 110/6/1
f 114/6/1 111/6/1 113/6/1
f 117/6/1 116/6/1 115/6/1
f 118/6/1 116/6/1 117/6/1
f 121/6/1 120/6/1 119/6/1
f 122/6/1 120/6/1 121/6/1
f 127/8/1 124/8/1 123/8/1
f 128/8/1 124/8/1 127/8/1
f 131/5/1 126/5/1 125/5/1
f 132/5/1 126/5/1 131/5/1
f 133/5/1 130/5/1 129/5/1
f 134/5/1 130/5/1 133/5/1
f 139/5/1 136/5/1 135/5/1
f 140/5/1 138/5/1 137/5/1
f 141/5/1 139/5/1 135/5/1
f 142/5/1 139/5/1 141/5/1
f 143/5/1 138/5/1 140/5/1
f 144/5/1 138/5/1 143/5/1
f 149/5/1 146/5/1 145/5/1
f 150/5/1 148/5/1 147/5/1
f 151/5/1 149/5/1 145/5/1
f 151/5/1 150/5/1 149/5/1
f 152/5/1 150/5/1 151/5/1
f 153/5/1 150/5/1 152/5/1
f 154/5/1 148/5/1 150/5/1
f 154/5/1 150/5/1 153/5/1
f 155/5/2 156/5/2 159/5/2
f 157/5/2 158/5/2 160/5/2
f 155/5/2 159/5/2 161/5/2
f 159/5/2 160/5/2 161/5/2
f 161/5/2 160/5/2 162/5/2
f 162/5/2 160/5/2 163/5/2
f 160/5/2 158/5/2 164/5/2
f 163/5/2 160/5/2 164/5/2
f 165/8/2 166/8/2 169/8/2
f 169/8/2 166/8/2 170/8/2
f 167/5/2 168/5/2 173/5/2
f 173/5/2 168/5/2 174/5/2
f 171/5/2 172/5/2 175/5/2
f 175/5/2 172/5/2 176/5/2
f 177/5/2 178/5/2 181/5/2
f 179/5/2 180/5/2 182/5/2
f 177/5/2 181/5/2 183/5/2
f 183/5/2 181/5/2 184/5/2
f 182/5/2 180/5/2 185/5/2
f 185/5/2 180/5/2 186/5/2
f 187/6/2 188/6/2 189/6/2
f 189/6/2 188/6/2 190/6/2
f 191/6/2 192/6/2 193/6/2
f 193/6/2 192/6/2 194/6/2
f 195/6/2 196/6/2 199/6/2
f 199/6/2 196/6/2 200/6/2
f 197/6/2 198/6/2 202/6/2
f 202/6/2 198/6/2 203/6/2
f 201/6/2 202/6/2 204/6/2
f 204/6/2 202/6/2 205/6/2
f 205/6/2 206/6/2 207/6/2
f 207/6/2 206/6/2 208/6/2
f 209/6/2 210/6/2 211/6/2
f 211/6/2 210/6/2 212/6/2
f 213/6/2 214/6/2 215/6/2
f 215/6/2 214/6/2 216/6/2
f 216/6/2 217/6/2 220/6/2
f 220/6/2 217/6/2 221/6/2
f 218/4/2 219/4/2 223/4/2
f 219/6/2 220/6/2 224/6/2
f 223/4/2 219/4/2 224/4/2
f 224/6/2 220/6/2 225/6/2
f 222/4/2 223/4/2 227/4/2
f 223/4/2 224/4/2 227/4/2
f 227/4/2 224/4/2 228/4/2
f 226/6/2 227/6/2 230/6/2
f 230/6/2 227/6/2 231/6/2
f 228/6/2 229/6/2 232/6/2
f 232/6/2 229/6/2 233/6/2
f 234/6/2 235/6/2 236/6/2
f 236/6/2 235/6/2 237/6/2
f 238/6/2 239/6/2 240/6/2
f 240/6/2 239/6/2 241/6/2
f 242/6/2 243/6/2 244/6/2
f 244/6/2 243/6/2 245/6/2
f 246/6/2 247/6/2 248/6/2
f 248/6/2 247/6/2 249/6/2
f 250/3/2 251/3/2 254/3/2
f 251/4/2 252/4/2 255/4/2
f 254/3/2 251/3/2 255/3/2
f 252/3/2 253/3/2 256/3/2
f 255/4/2 252/4/2 256/4/2
f 256/3/2 253/3/2 257/3/2
f 254/4/2 255/4/2 258/4/2
f 255/3/2 256/3/2 259/3/2
f 258/4/2 255/4/2 259/4/2
f 256/4/2 257/4/2 260/4/2
f 259/3/2 256/3/2 260/3/2
f 260/4/2 257/4/2 261/4/2
f 262/9/2 263/9/2 264/9/2
f 264/9/2 263/9/2 265/9/2
f 262/9/2 264/9/2 266/9/2
f 264/2/2 265/2/2 267/2/2
f 266/9/2 264/9/2 267/9/2
f 267/2/2 265/2/2 268/2/2
f 268/2/2 265/2/2 269/2/2
f 265/9/2 263/9/2 270/9/2
f 269/2/2 265/2/2 270/2/2
f 270/9/2 263/9/2 271/9/2
f 266/2/2 267/2/2 272/2/2
f 267/2/2 268/2/2 272/2/2
f 268/7/2 269/7/2 273/7/2
f 272/2/2 268/2/2 273/2/2
f 270/2/2 271/2/2 274/2/2
f 273/7/2 269/7/2 274/7/2
f 269/2/2 270/2/2 274/2/2
f 274/2/2 271/2/2 275/2/2
f 266/2/2 272/2/2 276/2/2
f 272/7/2 273/7/2 276/7/2
f 274/7/2 275/7/2 276/7/2
f 273/7/2 274/7/2 276/7/2
f 276/7/2 275/7/2 277/7/2
f 277/7/2 275/7/2 278/7/2
f 275/2/2 271/2/2 279/2/2
f 278/7/2 275/7/2 279/7/2
f 262/9/2 266/9/2 280/9/2
f 266/2/2 276/2/2 280/2/2
f 276/2/2 277/2/2 280/2/2
f 280/2/2 277/2/2 281/2/2
f 277/7/2 278/7/2 282/7/2
f 281/2/2 277/2/2 282/2/2
f 278/2/2 279/2/2 283/2/2
f 282/7/2 278/7/2 283/7/2
f 279/2/2 271/2/2 284/2/2
f 283/2/2 279/2/2 284/2/2
f 271/9/2 263/9/2 285/9/2
f 284/2/2 271/2/2 285/2/2
f 280/9/2 281/9/2 286/9/2
f 282/2/2 283/2/2 286/2/2
f 283/2/2 284/2/2 286/2/2
f 281/2/2 282/2/2 286/2/2
f 284/9/2 285/9/2 287/9/2
f 286/2/2 284/2/2 287/2/2
f 280/9/2 286/9/2 288/9/2
f 262/9/2 280/9/2 288/9/2
f 286/9/2 287/9/2 288/9/2
f 288/9/2 287/9/2 289/9/2
f 285/9/2 263/9/2 290/9/2
f 289/9/2 287/9/2 290/9/2
f 287/9/2 285/9/2 290/9/2
f 290/9/2 263/9/2 291/9/2
f 288/5/2 289/5/2 292/5/2
f 289/9/2 290/9/2 292/9/2
f 292/9/2 290/9/2 293/9/2
f 293/9/2 290/9/2 294/9/2
f 290/5/2 291/5/2 295/5/2
f 294/9/2 290/9/2 295/9/2
f 293/9/2 294/9/2 296/9/2
f 292/5/2 293/5/2 296/5/2
f 294/5/2 295/5/2 297/5/2
f 296/9/2 294/9/2 297/9/2
f 292/5/2 296/5/2 298/5/2
f 296/5/2 297/5/2 298/5/2
f 297/5/2 295/5/2 299/5/2
f 298/5/2 297/5/2 299/5/2
f 292/5/2 298/5/2 300/5/2
f 299/5/2 295/5/2 301/5/2
f 292/5/2 300/5/2 302/5/2
f 300/5/2 301/5/2 302/5/2
f 301/5/2 295/5/2 303/5/2
f 302/5/2 301/5/2 303/5/2
f 292/5/2 302/5/2 304/5/2
f 303/5/2 295/5/2 305/5/2
f 288/5/2 292/5/2 306/5/2
f 304/5/2 305/5/2 306/5/2
f 292/5/2 304/5/2 306/5/2
f 295/5/2 291/5/2 307/5/2
f 306/5/2 305/5/2 307/5/2
f 305/5/2 295/5/2 307/5/2
f 311/9/3 309/9/3 308/9/3
f 311/5/3 310/5/3 309/5/3
f 312/5/3 310/5/3 311/5/3
f 313/9/3 312/9/3 311/9/3
f 313/5/3 310/5/3 312/5/3
f 314/5/3 310/5/3 313/5/3
f 315/5/3 310/5/3 314/5/3
f 316/5/3 310/5/3 315/5/3
f 317/5/3 310/5/3 316/5/3
f 318/5/3 310/5/3 317/5/3
f 319/9/3 311/9/3 308/9/3
f 319/9/3 313/9/3 311/9/3
f 319/9/3 314/9/3 313/9/3
f 320/9/3 314/9/3 319/9/3
f 321/9/3 319/9/3 308/9/3
f 322/2/3 320/2/3 319/2/3
f 322/9/3 319/9/3 321/9/3
f 323/2/3 320/2/3 322/2/3
f 324/2/3 320/2/3 323/2/3
f 325/9/3 314/9/3 320/9/3
f 325/2/3 320/2/3 324/2/3
f 326/9/3 314/9/3 325/9/3
f 327/2/3 322/2/3 321/2/3
f 327/2/3 323/2/3 322/2/3
f 328/7/3 324/7/3 323/7/3
f 328/2/3 323/2/3 327/2/3
f 329/2/3 326/2/3 325/2/3
f 329/7/3 324/7/3 328/7/3
f 329/2/3 325/2/3 324/2/3
f 330/2/3 326/2/3 329/2/3
f 331/2/3 327/2/3 321/2/3
f 331/7/3 328/7/3 327/7/3
f 331/7/3 330/7/3 329/7/3
f 331/7/3 329/7/3 328/7/3
f 332/7/3 330/7/3 331/7/3
f 333/7/3 330/7/3 332/7/3
f 334/2/3 326/2/3 330/2/3
f 334/7/3 330/7/3 333/7/3
f 335/9/3 321/9/3 308/9/3
f 335/2/3 331/2/3 321/2/3
f 335/2/3 332/2/3 331/2/3
f 336/2/3 332/2/3 335/2/3
f 337/7/3 333/7/3 332/7/3
f 337/2/3 332/2/3 336/2/3
f 338/2/3 334/2/3 333/2/3
f 338/7/3 333/7/3 337/7/3
f 339/2/3 326/2/3 334/2/3
f 339/2/3 334/2/3 338/2/3
f 340/9/3 314/9/3 326/9/3
f 340/2/3 326/2/3 339/2/3
f 341/9/3 336/9/3 335/9/3
f 341/2/3 338/2/3 337/2/3
f 341/2/3 339/2/3 338/2/3
f 341/2/3 337/2/3 336/2/3
f 342/9/3 340/9/3 339/9/3
f 342/2/3 339/2/3 341/2/3
f 343/9/3 314/9/3 340/9/3
f 343/9/3 340/9/3 342/9/3
f 343/9/3 342/9/3 341/9/3
f 344/5/3 315/5/3 314/5/3
f 344/9/3 314/9/3 343/9/3
f 345/5/3 315/5/3 344/5/3
f 346/5/3 317/5/3 316/5/3
f 347/5/3 317/5/3 346/5/3
f 348/5/3 310/5/3 318/5/3
f 349/9/3 343/9/3 341/9/3
f 350/5/3 347/5/3 346/5/3
f 350/9/3 343/9/3 349/9/3
f 350/5/3 345/5/3 344/5/3
f 350/5/3 348/5/3 347/5/3
f 350/5/3 344/5/3 343/5/3
f 350/5/3 346/5/3 345/5/3
f 351/9/3 349/9/3 341/9/3
f 351/9/3 335/9/3 308/9/3
f 351/9/3 341/9/3 335/9/3
f 352/5/3 350/5/3 349/5/3
f 352/9/3 349/9/3 351/9/3
f 353/5/3 348/5/3 350/5/3
f 353/5/3 350/5/3 352/5/3
f 353/5/3 310/5/3 348/5/3
f 357/3/3 355/3/3 354/3/3
f 358/4/3 356/4/3 355/4/3
f 358/3/3 355/3/3 357/3/3
f 359/4/3 356/4/3 358/4/3
f 360/4/3 358/4/3 357/4/3
f 361/3/3 359/3/3 358/3/3
f 361/4/3 358/4/3 360/4/3
f 362/3/3 359/3/3 361/3/3
f 363/3/3 361/3/3 360/3/3
f 364/4/3 362/4/3 361/4/3
f 364/3/3 361/3/3 363/3/3
f 365/4/3 362/4/3 364/4/3
f 368/6/3 367/6/3 366/6/3
f 369/6/3 367/6/3 368/6/3
f 376/6/3 371/6/3 370/6/3
f 377/6/3 371/6/3 376/6/3
f 378/6/3 373/6/3 372/6/3
f 379/6/3 373/6/3 378/6/3
f 380/6/3 375/6/3 374/6/3
f 381/6/3 375/6/3 380/6/3
f 385/6/3 383/6/3 382/6/3
f 386/6/3 383/6/3 385/6/3
f 390/3/3 385/3/3 384/3/3
f 391/3/3 385/3/3 390/3/3
f 392/6/3 388/6/3 387/6/3
f 393/6/3 388/6/3 392/6/3
f 395/4/3 390/4/3 389/4/3
f 395/4/3 391/4/3 390/4/3
f 396/4/3 391/4/3 395/4/3
f 397/4/3 391/4/3 396/4/3
f 399/6/3 394/6/3 393/6/3
f 400/6/3 394/6/3 399/6/3
f 401/6/3 396/6/3 395/6/3
f 402/6/3 396/6/3 401/6/3
f 403/6/3 398/6/3 397/6/3
f 404/6/3 398/6/3 403/6/3
f 405/6/3 401/6/3 400/6/3
f 406/6/3 401/6/3 405/6/3
f 410/6/3 408/6/3 407/6/3
f 411/6/3 408/6/3 410/6/3
f 414/6/3 410/6/3 409/6/3
f 415/6/3 410/6/3 414/6/3
f 416/6/3 412/6/3 411/6/3
f 417/6/3 412/6/3 416/6/3
f 418/6/3 414/6/3 413/6/3
f 419/6/3 414/6/3 418/6/3
f 422/6/3 421/6/3 420/6/3
f 423/6/3 421/6/3 422/6/3
f 426/6/3 425/6/3 424/6/3
f 427/6/3 425/6/3 426/6/3
f 432/5/3 429/5/3 428/5/3
f 433/5/3 429/5/3 432/5/3
f 434/5/3 431/5/3 430/5/3
f 435/5/3 431/5/3 434/5/3
f 436/5/3 431/5/3 435/5/3
f 439/8/3 438/8/3 437/8/3
f 440/8/3 438/8/3 439/8/3
f 446/5/3 442/5/3 441/5/3
f 447/5/3 442/5/3 446/5/3
f 448/5/3 445/5/3 444/5/3
f 448/5/3 444/5/3 443/5/3
f 449/5/3 445/5/3 448/5/3
f 452/5/3 451/5/3 450/5/3
f 453/5/3 451/5/3 452/5/3
f 454/5/3 451/5/3 453/5/3
f 455/5/3 454/5/3 453/5/3
f 457/5/3 455/5/3 453/5/3
f 458/5/3 457/5/3 456/5/3
f 459/5/3 455/5/3 457/5/3
f 459/5/3 457/5/3 458/5/3
f 460/5/4 461/5/4 462/5/4
f 462/5/4 461/5/4 463/5/4
f 463/5/4 461/5/4 464/5/4
f 463/5/4 464/5/4 465/5/4
f 463/5/4 465/5/4 467/5/4
f 466/5/4 467/5/4 468/5/4
f 467/5/4 465/5/4 469/5/4
f 468/5/4 467/5/4 469/5/4
f 470/5/4 471/5/4 474/5/4
f 474/5/4 471/5/4 475/5/4
f 472/5/4 473/5/4 476/5/4
f 476/5/4 473/5/4 477/5/4
f 477/5/4 473/5/4 478/5/4
f 479/8/4 480/8/4 481/8/4
f 481/8/4 480/8/4 482/8/4
f 483/5/4 484/5/4 488/5/4
f 488/5/4 484/5/4 489/5/4
f 486/5/4 487/5/4 490/5/4
f 485/5/4 486/5/4 490/5/4
f 490/5/4 487/5/4 491/5/4
f 492/6/4 493/6/4 494/6/4
f 494/6/4 493/6/4 495/6/4
f 496/6/4 497/6/4 498/6/4
f 498/6/4 497/6/4 499/6/4
f 500/6/4 501/6/4 502/6/4
f 502/6/4 501/6/4 503/6/4
f 503/6/4 504/6/4 507/6/4
f 507/6/4 504/6/4 508/6/4
f 505/6/4 506/6/4 509/6/4
f 509/6/4 506/6/4 510/6/4
f 508/6/4 509/6/4 511/6/4
f 511/6/4 509/6/4 512/6/4
f 513/6/4 514/6/4 516/6/4
f 516/6/4 514/6/4 517/6/4
f 515/6/4 516/6/4 522/6/4
f 522/6/4 516/6/4 523/6/4
f 517/6/4 518/6/4 524/6/4
f 524/6/4 518/6/4 525/6/4
f 519/6/4 520/6/4 526/6/4
f 526/6/4 520/6/4 527/6/4
f 521/6/4 522/6/4 528/6/4
f 528/6/4 522/6/4 529/6/4
f 524/4/4 525/4/4 530/4/4
f 525/4/4 526/4/4 530/4/4
f 530/4/4 526/4/4 531/4/4
f 531/4/4 526/4/4 532/4/4
f 532/4/4 526/4/4 533/4/4
f 533/6/4 534/6/4 535/6/4
f 535/6/4 534/6/4 536/6/4
f 539/6/4 540/6/4 543/6/4
f 543/6/4 540/6/4 544/6/4
f 541/6/4 542/6/4 545/6/4
f 545/6/4 542/6/4 546/6/4
f 537/6/4 538/6/4 547/6/4
f 547/6/4 538/6/4 548/6/4
f 549/6/4 550/6/4 551/6/4
f 551/6/4 550/6/4 552/6/4
f 553/3/4 554/3/4 556/3/4
f 554/4/4 555/4/4 557/4/4
f 556/3/4 554/3/4 557/3/4
f 557/4/4 555/4/4 558/4/4
f 556/4/4 557/4/4 559/4/4
f 557/3/4 558/3/4 560/3/4
f 559/4/4 557/4/4 560/4/4
f 560/3/4 558/3/4 561/3/4
f 559/3/4 560/3/4 562/3/4
f 560/4/4 561/4/4 563/4/4
f 562/3/4 560/3/4 563/3/4
f 563/4/4 561/4/4 564/4/4
f 565/9/4 566/9/4 568/9/4
f 566/5/4 567/5/4 568/5/4
f 568/5/4 567/5/4 569/5/4
f 568/9/4 569/9/4 570/9/4
f 569/5/4 567/5/4 570/5/4
f 570/5/4 567/5/4 571/5/4
f 571/5/4 567/5/4 572/5/4
f 572/5/4 567/5/4 573/5/4
f 573/5/4 567/5/4 574/5/4
f 574/5/4 567/5/4 575/5/4
f 565/9/4 568/9/4 576/9/4
f 568/9/4 570/9/4 576/9/4
f 570/9/4 571/9/4 576/9/4
f 576/9/4 571/9/4 577/9/4
f 565/9/4 576/9/4 578/9/4
f 576/1/4 577/1/4 579/1/4
f 578/9/4 576/9/4 579/9/4
f 579/1/4 577/1/4 580/1/4
f 580/1/4 577/1/4 581/1/4
f 577/9/4 571/9/4 582/9/4
f 581/1/4 577/1/4 582/1/4
f 582/9/4 571/9/4 583/9/4
f 578/1/4 579/1/4 584/1/4
f 579/1/4 580/1/4 584/1/4
f 580/7/4 581/7/4 585/7/4
f 584/1/4 580/1/4 585/1/4
f 582/1/4 583/1/4 586/1/4
f 585/7/4 581/7/4 586/7/4
f 581/1/4 582/1/4 586/1/4
f 586/1/4 583/1/4 587/1/4
f 578/1/4 584/1/4 588/1/4
f 584/7/4 585/7/4 588/7/4
f 586/7/4 587/7/4 588/7/4
f 585/7/4 586/7/4 588/7/4
f 588/7/4 587/7/4 589/7/4
f 589/7/4 587/7/4 590/7/4
f 587/1/4 583/1/4 591/1/4
f 590/7/4 587/7/4 591/7/4
f 565/9/4 578/9/4 592/9/4
f 578/1/4 588/1/4 592/1/4
f 588/1/4 589/1/4 592/1/4
f 592/1/4 589/1/4 593/1/4
f 589/7/4 590/7/4 594/7/4
f 593/1/4 589/1/4 594/1/4
f 590/1/4 591/1/4 595/1/4
f 594/7/4 590/7/4 595/7/4
f 591/1/4 583/1/4 596/1/4
f 595/1/4 591/1/4 596/1/4
f 583/9/4 571/9/4 597/9/4
f 596/1/4 583/1/4 597/1/4
f 592/9/4 593/9/4 598/9/4
f 594/1/4 595/1/4 598/1/4
f 595/1/4 596/1/4 598/1/4
f 593/1/4 594/1/4 598/1/4
f 596/9/4 597/9/4 599/9/4
f 598/1/4 596/1/4 599/1/4
f 597/9/4 571/9/4 600/9/4
f 599/9/4 597/9/4 600/9/4
f 598/9/4 599/9/4 600/9/4
f 571/5/4 572/5/4 601/5/4
f 600/9/4 571/9/4 601/9/4
f 601/5/4 572/5/4 602/5/4
f 573/5/4 574/5/4 603/5/4
f 603/5/4 574/5/4 604/5/4
f 575/5/4 567/5/4 605/5/4
f 598/9/4 600/9/4 606/9/4
f 603/5/4 604/5/4 607/5/4
f 606/9/4 600/9/4 607/9/4
f 601/5/4 602/5/4 607/5/4
f 604/5/4 605/5/4 607/5/4
f 600/5/4 601/5/4 607/5/4
f 602/5/4 603/5/4 607/5/4
f 598/9/4 606/9/4 608/9/4
f 565/9/4 592/9/4 608/9/4
f 592/9/4 598/9/4 608/9/4
f 606/5/4 607/5/4 609/5/4
f 608/9/4 606/9/4 609/9/4
f 607/5/4 605/5/4 610/5/4
f 609/5/4 607/5/4 610/5/4
f 605/5/4 567/5/4 610/5/4
f 613/9/5 612/9/5 611/9/5
f 614/9/5 612/9/5 613/9/5
f 618/6/5 616/6/5 615/6/5
f 619/6/5 616/6/5 618/6/5
f 620/6/5 618/6/5 617/6/5
f 621/6/5 618/6/5 620/6/5
f 624/6/5 623/6/5 622/6/5
f 625/6/5 623/6/5 624/6/5
f 630/6/5 627/6/5 626/6/5
f 631/6/5 627/6/5 630/6/5
f 632/6/5 629/6/5 628/6/5
f 633/6/5 629/6/5 632/6/5
f 636/6/5 635/6/5 634/6/5
f 637/6/5 635/6/5 636/6/5
f 640/6/5 639/6/5 638/6/5
f 641/6/5 639/6/5 640/6/5
f 646/6/5 643/6/5 642/6/5
f 647/6/5 643/6/5 646/6/5
f 648/6/5 645/6/5 644/6/5
f 649/6/5 645/6/5 648/6/5
f 652/6/5 651/6/5 650/6/5
f 653/6/5 651/6/5 652/6/5
f 656/6/5 655/6/5 654/6/5
f 657/6/5 655/6/5 656/6/5
f 661/3/5 657/3/5 656/3/5
f 662/4/5 658/4/5 657/4/5
f 662/3/5 657/3/5 661/3/5
f 663/6/5 659/6/5 658/6/5
f 663/4/5 658/4/5 662/4/5
f 664/6/5 659/6/5 663/6/5
f 665/6/5 661/6/5 660/6/5
f 666/4/5 662/4/5 661/4/5
f 666/6/5 661/6/5 665/6/5
f 666/4/5 663/4/5 662/4/5
f 667/4/5 663/4/5 666/4/5
f 668/4/5 663/4/5 667/4/5
f 669/6/5 668/6/5 667/6/5
f 670/6/5 668/6/5 669/6/5
f 673/5/5 672/5/5 671/5/5
f 674/5/5 672/5/5 673/5/5
f 682/6/5 680/6/5 679/6/5
f 683/6/5 680/6/5 682/6/5
f 684/6/5 680/6/5 683/6/5
f 686/6/5 682/6/5 681/6/5
f 687/6/5 686/6/5 681/6/5
f 688/6/5 686/6/5 687/6/5
f 689/6/5 685/6/5 684/6/5
f 690/6/5 685/6/5 689/6/5
f 691/6/5 689/6/5 688/6/5
f 692/6/5 689/6/5 691/6/5
f 693/5/5 676/5/5 675/5/5
f 694/5/5 676/5/5 693/5/5
f 695/5/5 678/5/5 677/5/5
f 696/5/5 678/5/5 695/5/5
f 699/5/5 698/5/5 697/5/5
f 700/5/5 698/5/5 699/5/5
f 705/3/5 702/3/5 701/3/5
f 705/4/5 703/4/5 702/4/5
f 706/4/5 703/4/5 705/4/5
f 707/4/5 703/4/5 706/4/5
f 708/3/5 704/3/5 703/3/5
f 708/4/5 703/4/5 707/4/5
f 709/3/5 705/3/5 701/3/5
f 709/3/5 706/3/5 705/3/5
f 710/3/5 706/3/5 709/3/5
f 711/3/5 704/3/5 708/3/5
f 711/3/5 708/3/5 707/3/5
f 712/3/5 704/3/5 711/3/5
f 713/3/5 706/3/5 710/3/5
f 714/4/5 707/4/5 706/4/5
f 714/3/5 706/3/5 713/3/5
f 715/3/5 711/3/5 707/3/5
f 715/4/5 707/4/5 714/4/5
f 716/3/5 711/3/5 715/3/5
f 717/3/5 713/3/5 710/3/5
f 718/4/5 714/4/5 713/4/5
f 718/3/5 713/3/5 717/3/5
f 718/4/5 715/4/5 714/4/5
f 718/4/5 716/4/5 715/4/5
f 719/4/5 716/4/5 718/4/5
f 720/4/5 716/4/5 719/4/5
f 721/3/5 711/3/5 716/3/5
f 721/4/5 716/4/5 720/4/5
f 722/3/5 711/3/5 721/3/5
f 723/4/5 710/4/5 709/4/5
f 723/3/5 717/3/5 710/3/5
f 724/4/5 718/4/5 717/4/5
f 724/3/5 717/3/5 723/3/5
f 724/4/5 719/4/5 718/4/5
f 725/4/5 719/4/5 724/4/5
f 726/4/5 719/4/5 725/4/5
f 727/4/5 722/4/5 721/4/5
f 727/4/5 721/4/5 720/4/5
f 728/4/5 722/4/5 727/4/5
f 729/3/5 711/3/5 722/3/5
f 729/4/5 722/4/5 728/4/5
f 730/4/5 712/4/5 711/4/5
f 730/3/5 711/3/5 729/3/5
f 731/4/5 725/4/5 724/4/5
f 731/4/5 723/4/5 709/4/5
f 731/4/5 724/4/5 723/4/5
f 732/4/5 725/4/5 731/4/5
f 733/4/5 725/4/5 732/4/5
f 736/4/5 730/4/5 729/4/5
f 736/4/5 729/4/5 728/4/5
f 737/4/5 730/4/5 736/4/5
f 738/4/5 712/4/5 730/4/5
f 738/4/5 730/4/5 737/4/5
f 739/4/5 734/4/5 733/4/5
f 739/4/5 733/4/5 732/4/5
f 739/3/5 732/3/5 731/3/5
f 740/4/5 734/4/5 739/4/5
f 741/4/5 734/4/5 740/4/5
f 742/4/5 737/4/5 736/4/5
f 742/4/5 736/4/5 735/4/5
f 743/4/5 737/4/5 742/4/5
f 744/3/5 738/3/5 737/3/5
f 744/4/5 737/4/5 743/4/5
f 745/4/5 741/4/5 740/4/5
f 745/4/5 743/4/5 742/4/5
f 745/3/5 740/3/5 739/3/5
f 745/4/5 742/4/5 741/4/5
f 746/4/5 743/4/5 745/4/5
f 747/4/5 743/4/5 746/4/5
f 748/3/5 744/3/5 743/3/5
f 748/4/5 743/4/5 747/4/5
f 749/4/5 731/4/5 709/4/5
f 750/3/5 739/3/5 731/3/5
f 750/4/5 731/4/5 749/4/5
f 750/3/5 745/3/5 739/3/5
f 750/3/5 746/3/5 745/3/5
f 751/3/5 738/3/5 744/3/5
f 751/4/5 712/4/5 738/4/5
f 751/3/5 744/3/5 748/3/5
f 751/3/5 748/3/5 747/3/5
f 752/4/5 712/4/5 751/4/5
f 753/3/5 746/3/5 750/3/5
f 753/3/5 750/3/5 749/3/5
f 754/4/5 747/4/5 746/4/5
f 754/3/5 746/3/5 753/3/5
f 755/3/5 752/3/5 751/3/5
f 755/4/5 747/4/5 754/4/5
f 755/3/5 751/3/5 747/3/5
f 756/3/5 752/3/5 755/3/5
f 757/3/5 753/3/5 749/3/5
f 758/4/5 754/4/5 753/4/5
f 758/3/5 753/3/5 757/3/5
f 758/4/5 755/4/5 754/4/5
f 758/4/5 756/4/5 755/4/5
f 759/3/5 752/3/5 756/3/5
f 759/4/5 756/4/5 758/4/5
f 760/3/5 752/3/5 759/3/5
f 763/5/5 762/5/5 761/5/5
f 764/5/5 762/5/5 763/5/5
f 765/5/5 762/5/5 764/5/5
f 766/5/5 762/5/5 765/5/5
f 771/5/5 768/5/5 767/5/5
f 772/5/5 770/5/5 769/5/5
f 773/5/5 771/5/5 767/5/5
f 774/5/5 770/5/5 772/5/5
f 775/5/5 773/5/5 767/5/5
f 776/5/5 773/5/5 775/5/5
f 777/5/5 770/5/5 774/5/5
f 778/5/5 770/5/5 777/5/5
f 783/5/5 780/5/5 779/5/5
f 783/5/5 782/5/5 781/5/5
f 783/5/5 781/5/5 780/5/5
f 784/5/5 782/5/5 783/5/5
f 785/8/6 786/8/6 787/8/6
f 787/8/6 786/8/6 788/8/6
f 789/5/6 790/5/6 792/5/6
f 792/5/6 790/5/6 793/5/6
f 791/8/6 792/8/6 796/8/6
f 793/8/6 794/8/6 796/8/6
f 792/8/6 793/8/6 796/8/6
f 796/8/6 794/8/6 797/8/6
f 797/8/6 794/8/6 798/8/6
f 798/8/6 794/8/6 799/8/6
f 801/6/6 802/6/6 804/6/6
f 804/6/6 802/6/6 805/6/6
f 803/6/6 804/6/6 806/6/6
f 806/6/6 804/6/6 807/6/6
f 795/5/6 796/5/6 808/5/6
f 796/8/6 797/8/6 809/8/6
f 808/5/6 796/5/6 809/5/6
f 809/8/6 797/8/6 810/8/6
f 798/8/6 799/8/6 811/8/6
f 799/5/6 800/5/6 812/5/6
f 811/8/6 799/8/6 812/8/6
f 812/5/6 800/5/6 813/5/6
f 809/8/6 810/8/6 814/8/6
f 810/8/6 811/8/6 814/8/6
f 811/8/6 812/8/6 814/8/6
f 814/8/6 812/8/6 815/8/6
f 815/8/6 812/8/6 816/8/6
f 816/8/6 812/8/6 817/8/6
f 815/5/6 816/5/6 818/5/6
f 818/5/6 816/5/6 819/5/6
f 820/6/6 821/6/6 822/6/6
f 822/6/6 821/6/6 823/6/6
f 824/6/6 825/6/6 828/6/6
f 828/6/6 825/6/6 829/6/6
f 826/6/6 827/6/6 830/6/6
f 830/6/6 827/6/6 831/6/6
f 832/6/6 833/6/6 834/6/6
f 834/6/6 833/6/6 835/6/6
f 836/6/6 837/6/6 838/6/6
f 838/6/6 837/6/6 839/6/6
f 840/6/6 841/6/6 844/6/6
f 844/6/6 841/6/6 845/6/6
f 842/6/6 843/6/6 846/6/6
f 846/6/6 843/6/6 847/6/6
f 848/6/6 849/6/6 850/6/6
f 850/6/6 849/6/6 851/6/6
f 852/6/6 853/6/6 854/6/6
f 854/6/6 853/6/6 855/6/6
f 856/6/6 857/6/6 860/6/6
f 860/6/6 857/6/6 861/6/6
f 858/6/6 859/6/6 862/6/6
f 862/6/6 859/6/6 863/6/6
f 864/6/6 865/6/6 866/6/6
f 866/6/6 865/6/6 867/6/6
f 868/5/6 869/5/6 870/5/6
f 870/5/6 869/5/6 871/5/6
f 871/5/6 869/5/6 872/5/6
f 872/5/6 869/5/6 873/5/6
f 874/5/6 875/5/6 878/5/6
f 876/5/6 877/5/6 879/5/6
f 874/5/6 878/5/6 880/5/6
f 879/5/6 877/5/6 881/5/6
f 874/5/6 880/5/6 882/5/6
f 882/5/6 880/5/6 883/5/6
f 881/5/6 877/5/6 884/5/6
f 884/5/6 877/5/6 885/5/6
f 886/5/6 887/5/6 890/5/6
f 888/5/6 889/5/6 890/5/6
f 887/5/6 888/5/6 890/5/6
f 890/5/6 889/5/6 891/5/6
f 892/5/6 893/5/6 894/5/6
f 894/5/6 893/5/6 895/5/6
f 894/3/6 895/3/6 896/3/6
f 896/3/6 895/3/6 897/3/6
f 894/3/6 896/3/6 898/3/6
f 896/4/6 897/4/6 899/4/6
f 898/3/6 896/3/6 899/3/6
f 897/3/6 895/3/6 900/3/6
f 899/4/6 897/4/6 900/4/6
f 900/3/6 895/3/6 901/3/6
f 898/4/6 899/4/6 902/4/6
f 894/3/6 898/3/6 902/3/6
f 900/4/6 901/4/6 902/4/6
f 899/4/6 900/4/6 902/4/6
f 902/4/6 901/4/6 903/4/6
f 903/4/6 901/4/6 904/4/6
f 901/3/6 895/3/6 905/3/6
f 904/4/6 901/4/6 905/4/6
f 903/4/6 904/4/6 906/4/6
f 902/3/6 903/3/6 906/3/6
f 906/4/6 904/4/6 907/4/6
f 907/4/6 904/4/6 908/4/6
f 904/3/6 905/3/6 909/3/6
f 908/4/6 904/4/6 909/4/6
f 907/4/6 908/4/6 910/4/6
f 906/3/6 907/3/6 910/3/6
f 908/3/6 909/3/6 911/3/6
f 910/4/6 908/4/6 911/4/6
f 892/5/6 894/5/6 912/5/6
f 894/3/6 902/3/6 912/3/6
f 910/3/6 911/3/6 912/3/6
f 906/3/6 910/3/6 912/3/6
f 902/3/6 906/3/6 912/3/6
f 911/3/6 909/3/6 913/3/6
f 912/3/6 911/3/6 913/3/6
f 895/5/6 893/5/6 913/5/6
f 909/3/6 905/3/6 913/3/6
f 905/3/6 895/3/6 913/3/6
f 892/5/6 912/5/6 914/5/6
f 912/5/6 913/5/6 914/5/6
f 913/5/6 893/5/6 915/5/6
f 914/5/6 913/5/6 915/5/6
