# MagicaVoxel @ Ephtracy

# group
o 

# material
mtllib CopperPlate.mtl
usemtl palette

# normals
vn -1 0 0
vn 1 0 0
vn 0 0 1
vn 0 0 -1
vn 0 -1 0
vn 0 1 0

# texcoords
vt 0.958984 0.5
vt 0.970703 0.5
vt 0.974609 0.5
vt 0.978516 0.5
vt 0.986328 0.5

# verts
v -0.4 0 0.4
v -0.4 0 0.3
v -0.4 0 -0.2
v -0.4 0 -0.3
v -0.4 0 -0.4
v -0.4 0.1 0.4
v -0.4 0.1 0.3
v -0.4 0.1 -0.2
v -0.4 0.1 -0.3
v -0.4 0.1 -0.4
v 0.4 0 0.4
v 0.4 0 0.3
v 0.4 0 0.2
v 0.4 0 -0.3
v 0.4 0 -0.4
v 0.4 0.1 0.4
v 0.4 0.1 0.3
v 0.4 0.1 0.2
v 0.4 0.1 -0.3
v 0.4 0.1 -0.4
v -0.4 0 0.4
v -0.4 0.1 0.4
v -0.3 0 0.4
v -0.3 0.1 0.4
v 0.1 0 0.4
v 0.1 0.1 0.4
v 0.3 0 0.4
v 0.3 0.1 0.4
v 0.4 0 0.4
v 0.4 0.1 0.4
v -0.4 0 -0.4
v -0.4 0.1 -0.4
v -0.3 0 -0.4
v -0.3 0.1 -0.4
v 0 0 -0.4
v 0 0.1 -0.4
v 0.3 0 -0.4
v 0.3 0.1 -0.4
v 0.4 0 -0.4
v 0.4 0.1 -0.4
v -0.4 0 0.4
v -0.3 0 0.4
v 0.1 0 0.4
v 0.3 0 0.4
v 0.4 0 0.4
v -0.4 0 0.3
v -0.3 0 0.3
v -0.2 0 0.3
v 0 0 0.3
v 0.1 0 0.3
v 0.2 0 0.3
v 0.3 0 0.3
v 0.4 0 0.3
v -0.3 0 0.2
v -0.2 0 0.2
v -0.1 0 0.2
v 0 0 0.2
v 0.2 0 0.2
v 0.3 0 0.2
v 0.4 0 0.2
v -0.2 0 0
v -0.1 0 0
v 0.2 0 0
v 0.3 0 0
v -0.3 0 -0.1
v -0.2 0 -0.1
v 0.1 0 -0.1
v 0.2 0 -0.1
v -0.4 0 -0.2
v -0.3 0 -0.2
v -0.2 0 -0.2
v 0 0 -0.2
v 0.1 0 -0.2
v 0.2 0 -0.2
v 0.3 0 -0.2
v -0.4 0 -0.3
v -0.3 0 -0.3
v -0.2 0 -0.3
v 0.2 0 -0.3
v 0.3 0 -0.3
v 0.4 0 -0.3
v -0.4 0 -0.4
v -0.3 0 -0.4
v 0 0 -0.4
v 0.3 0 -0.4
v 0.4 0 -0.4
v -0.4 0.1 0.4
v -0.3 0.1 0.4
v 0.1 0.1 0.4
v 0.3 0.1 0.4
v 0.4 0.1 0.4
v -0.4 0.1 0.3
v -0.3 0.1 0.3
v -0.2 0.1 0.3
v 0 0.1 0.3
v 0.1 0.1 0.3
v 0.2 0.1 0.3
v 0.3 0.1 0.3
v 0.4 0.1 0.3
v -0.3 0.1 0.2
v -0.2 0.1 0.2
v -0.1 0.1 0.2
v 0 0.1 0.2
v 0.2 0.1 0.2
v 0.3 0.1 0.2
v 0.4 0.1 0.2
v -0.2 0.1 0
v -0.1 0.1 0
v 0.2 0.1 0
v 0.3 0.1 0
v -0.3 0.1 -0.1
v -0.2 0.1 -0.1
v 0.1 0.1 -0.1
v 0.2 0.1 -0.1
v -0.4 0.1 -0.2
v -0.3 0.1 -0.2
v -0.2 0.1 -0.2
v 0 0.1 -0.2
v 0.1 0.1 -0.2
v 0.2 0.1 -0.2
v 0.3 0.1 -0.2
v -0.4 0.1 -0.3
v -0.3 0.1 -0.3
v -0.2 0.1 -0.3
v 0.2 0.1 -0.3
v 0.3 0.1 -0.3
v 0.4 0.1 -0.3
v -0.4 0.1 -0.4
v -0.3 0.1 -0.4
v 0 0.1 -0.4
v 0.3 0.1 -0.4
v 0.4 0.1 -0.4

# faces
f 6/4/1 2/4/1 1/4/1
f 7/3/1 3/3/1 2/3/1
f 7/4/1 2/4/1 6/4/1
f 8/2/1 4/2/1 3/2/1
f 8/3/1 3/3/1 7/3/1
f 9/4/1 5/4/1 4/4/1
f 9/2/1 4/2/1 8/2/1
f 10/4/1 5/4/1 9/4/1
f 11/4/2 12/4/2 16/4/2
f 12/2/2 13/2/2 17/2/2
f 16/4/2 12/4/2 17/4/2
f 13/1/2 14/1/2 18/1/2
f 17/2/2 13/2/2 18/2/2
f 14/2/2 15/2/2 19/2/2
f 18/1/2 14/1/2 19/1/2
f 19/2/2 15/2/2 20/2/2
f 23/4/3 22/4/3 21/4/3
f 24/4/3 22/4/3 23/4/3
f 25/3/3 24/3/3 23/3/3
f 26/3/3 24/3/3 25/3/3
f 27/2/3 26/2/3 25/2/3
f 28/2/3 26/2/3 27/2/3
f 29/4/3 28/4/3 27/4/3
f 30/4/3 28/4/3 29/4/3
f 31/4/4 32/4/4 33/4/4
f 33/4/4 32/4/4 34/4/4
f 33/2/4 34/2/4 35/2/4
f 35/2/4 34/2/4 36/2/4
f 35/1/4 36/1/4 37/1/4
f 37/1/4 36/1/4 38/1/4
f 37/2/4 38/2/4 39/2/4
f 39/2/4 38/2/4 40/2/4
f 46/4/5 42/4/5 41/4/5
f 47/3/5 43/3/5 42/3/5
f 47/4/5 42/4/5 46/4/5
f 48/3/5 43/3/5 47/3/5
f 49/3/5 43/3/5 48/3/5
f 50/2/5 44/2/5 43/2/5
f 50/3/5 43/3/5 49/3/5
f 51/2/5 44/2/5 50/2/5
f 52/4/5 45/4/5 44/4/5
f 52/2/5 44/2/5 51/2/5
f 53/4/5 45/4/5 52/4/5
f 54/3/5 47/3/5 46/3/5
f 54/5/5 48/5/5 47/5/5
f 55/3/5 49/3/5 48/3/5
f 55/5/5 48/5/5 54/5/5
f 56/3/5 49/3/5 55/3/5
f 57/2/5 51/2/5 50/2/5
f 57/3/5 49/3/5 56/3/5
f 57/2/5 50/2/5 49/2/5
f 58/5/5 52/5/5 51/5/5
f 58/2/5 51/2/5 57/2/5
f 59/2/5 53/2/5 52/2/5
f 59/5/5 52/5/5 58/5/5
f 60/2/5 53/2/5 59/2/5
f 61/3/5 56/3/5 55/3/5
f 61/3/5 55/3/5 54/3/5
f 62/2/5 58/2/5 57/2/5
f 62/3/5 56/3/5 61/3/5
f 62/2/5 57/2/5 56/2/5
f 62/2/5 59/2/5 58/2/5
f 63/2/5 59/2/5 62/2/5
f 64/1/5 60/1/5 59/1/5
f 64/2/5 59/2/5 63/2/5
f 65/3/5 54/3/5 46/3/5
f 65/3/5 61/3/5 54/3/5
f 66/2/5 63/2/5 62/2/5
f 66/3/5 61/3/5 65/3/5
f 66/2/5 62/2/5 61/2/5
f 67/2/5 63/2/5 66/2/5
f 68/1/5 64/1/5 63/1/5
f 68/2/5 63/2/5 67/2/5
f 69/3/5 65/3/5 46/3/5
f 70/2/5 67/2/5 66/2/5
f 70/3/5 65/3/5 69/3/5
f 70/2/5 66/2/5 65/2/5
f 71/2/5 67/2/5 70/2/5
f 72/2/5 67/2/5 71/2/5
f 73/1/5 68/1/5 67/1/5
f 73/2/5 67/2/5 72/2/5
f 74/1/5 64/1/5 68/1/5
f 74/1/5 68/1/5 73/1/5
f 75/1/5 60/1/5 64/1/5
f 75/1/5 64/1/5 74/1/5
f 76/2/5 70/2/5 69/2/5
f 77/5/5 71/5/5 70/5/5
f 77/2/5 70/2/5 76/2/5
f 78/2/5 72/2/5 71/2/5
f 78/5/5 71/5/5 77/5/5
f 79/1/5 74/1/5 73/1/5
f 79/1/5 73/1/5 72/1/5
f 79/5/5 75/5/5 74/5/5
f 80/1/5 60/1/5 75/1/5
f 80/5/5 75/5/5 79/5/5
f 81/1/5 60/1/5 80/1/5
f 82/4/5 77/4/5 76/4/5
f 83/2/5 78/2/5 77/2/5
f 83/4/5 77/4/5 82/4/5
f 84/2/5 72/2/5 78/2/5
f 84/2/5 78/2/5 83/2/5
f 84/1/5 79/1/5 72/1/5
f 84/1/5 80/1/5 79/1/5
f 85/2/5 81/2/5 80/2/5
f 85/1/5 80/1/5 84/1/5
f 86/2/5 81/2/5 85/2/5
f 87/4/6 88/4/6 92/4/6
f 88/3/6 89/3/6 93/3/6
f 92/4/6 88/4/6 93/4/6
f 93/3/6 89/3/6 94/3/6
f 94/3/6 89/3/6 95/3/6
f 89/2/6 90/2/6 96/2/6
f 95/3/6 89/3/6 96/3/6
f 96/2/6 90/2/6 97/2/6
f 90/4/6 91/4/6 98/4/6
f 97/2/6 90/2/6 98/2/6
f 98/4/6 91/4/6 99/4/6
f 92/3/6 93/3/6 100/3/6
f 93/5/6 94/5/6 100/5/6
f 94/3/6 95/3/6 101/3/6
f 100/5/6 94/5/6 101/5/6
f 101/3/6 95/3/6 102/3/6
f 96/2/6 97/2/6 103/2/6
f 102/3/6 95/3/6 103/3/6
f 95/2/6 96/2/6 103/2/6
f 97/5/6 98/5/6 104/5/6
f 103/2/6 97/2/6 104/2/6
f 98/2/6 99/2/6 105/2/6
f 104/5/6 98/5/6 105/5/6
f 105/2/6 99/2/6 106/2/6
f 101/3/6 102/3/6 107/3/6
f 100/3/6 101/3/6 107/3/6
f 103/2/6 104/2/6 108/2/6
f 107/3/6 102/3/6 108/3/6
f 102/2/6 103/2/6 108/2/6
f 104/2/6 105/2/6 108/2/6
f 108/2/6 105/2/6 109/2/6
f 105/1/6 106/1/6 110/1/6
f 109/2/6 105/2/6 110/2/6
f 92/3/6 100/3/6 111/3/6
f 100/3/6 107/3/6 111/3/6
f 108/2/6 109/2/6 112/2/6
f 111/3/6 107/3/6 112/3/6
f 107/2/6 108/2/6 112/2/6
f 112/2/6 109/2/6 113/2/6
f 109/1/6 110/1/6 114/1/6
f 113/2/6 109/2/6 114/2/6
f 92/3/6 111/3/6 115/3/6
f 112/2/6 113/2/6 116/2/6
f 115/3/6 111/3/6 116/3/6
f 111/2/6 112/2/6 116/2/6
f 116/2/6 113/2/6 117/2/6
f 117/2/6 113/2/6 118/2/6
f 113/1/6 114/1/6 119/1/6
f 118/2/6 113/2/6 119/2/6
f 114/1/6 110/1/6 120/1/6
f 119/1/6 114/1/6 120/1/6
f 110/1/6 106/1/6 121/1/6
f 120/1/6 110/1/6 121/1/6
f 115/2/6 116/2/6 122/2/6
f 116/5/6 117/5/6 123/5/6
f 122/2/6 116/2/6 123/2/6
f 117/2/6 118/2/6 124/2/6
f 123/5/6 117/5/6 124/5/6
f 119/1/6 120/1/6 125/1/6
f 118/1/6 119/1/6 125/1/6
f 120/5/6 121/5/6 125/5/6
f 121/1/6 106/1/6 126/1/6
f 125/5/6 121/5/6 126/5/6
f 126/1/6 106/1/6 127/1/6
f 122/4/6 123/4/6 128/4/6
f 123/2/6 124/2/6 129/2/6
f 128/4/6 123/4/6 129/4/6
f 124/2/6 118/2/6 130/2/6
f 129/2/6 124/2/6 130/2/6
f 118/1/6 125/1/6 130/1/6
f 125/1/6 126/1/6 130/1/6
f 126/2/6 127/2/6 131/2/6
f 130/1/6 126/1/6 131/1/6
f 131/2/6 127/2/6 132/2/6
