# MagicaVoxel @ Ephtracy

# group
o 

# material
mtllib GoldGenerator.mtl
usemtl palette

# normals
vn -1 0 0
vn 1 0 0
vn 0 0 1
vn 0 0 -1
vn 0 -1 0
vn 0 1 0

# texcoords
vt 0.310547 0.5
vt 0.373047 0.5
vt 0.419922 0.5
vt 0.427734 0.5
vt 0.478516 0.5
vt 0.486328 0.5
vt 0.693359 0.5
vt 0.771484 0.5
vt 0.958984 0.5
vt 0.962891 0.5
vt 0.982422 0.5
vt 0.990234 0.5
vt 0.994141 0.5

# verts
v -0.8 0 0.8
v -0.8 0 -0.8
v -0.8 0.5 0.2
v -0.8 0.5 -0.2
v -0.8 0.6 0.3
v -0.8 0.6 0.2
v -0.8 0.6 0.1
v -0.8 0.6 -0.1
v -0.8 0.6 -0.2
v -0.8 0.6 -0.3
v -0.8 0.7 0.2
v -0.8 0.7 0.1
v -0.8 0.7 -0.1
v -0.8 0.7 -0.2
v -0.8 0.9 0.2
v -0.8 0.9 0.1
v -0.8 0.9 -0.1
v -0.8 0.9 -0.2
v -0.8 1 0.3
v -0.8 1 0.2
v -0.8 1 0.1
v -0.8 1 -0.1
v -0.8 1 -0.2
v -0.8 1 -0.3
v -0.8 1.1 0.2
v -0.8 1.1 -0.2
v -0.8 1.2 0.8
v -0.8 1.2 0.7
v -0.8 1.2 -0.7
v -0.8 1.2 -0.8
v -0.8 1.3 0.7
v -0.8 1.3 0.6
v -0.8 1.3 -0.6
v -0.8 1.3 -0.7
v -0.8 1.4 0.6
v -0.8 1.4 -0.6
v -0.8 1.5 0.8
v -0.8 1.5 -0.8
v -0.5 2.6 0.2
v -0.5 2.6 0
v -0.5 2.7 0.2
v -0.5 2.7 0
v -0.4 1.6 -0.1
v -0.4 1.6 -0.2
v -0.4 1.7 -0.1
v -0.4 1.7 -0.2
v -0.4 1.7 -0.3
v -0.4 1.8 0.3
v -0.4 1.8 0.2
v -0.4 1.8 0
v -0.4 1.8 -0.2
v -0.4 1.8 -0.3
v -0.4 1.8 -0.4
v -0.4 1.9 0.3
v -0.4 1.9 0.2
v -0.4 1.9 0
v -0.4 1.9 -0.2
v -0.4 1.9 -0.3
v -0.4 1.9 -0.4
v -0.4 2 -0.1
v -0.4 2 -0.2
v -0.4 2 -0.3
v -0.4 2.1 -0.1
v -0.4 2.1 -0.2
v -0.4 2.2 0.2
v -0.4 2.2 0
v -0.4 2.3 0.2
v -0.4 2.3 0
v -0.4 2.6 0.3
v -0.4 2.6 0.2
v -0.4 2.6 0
v -0.4 2.6 -0.1
v -0.4 2.7 0.3
v -0.4 2.7 0.2
v -0.4 2.7 0
v -0.4 2.7 -0.1
v -0.4 2.8 0.2
v -0.4 2.8 0
v -0.3 1.5 0.2
v -0.3 1.5 -0.1
v -0.3 1.6 0
v -0.3 1.6 -0.1
v -0.3 1.8 0.2
v -0.3 1.8 0
v -0.3 2.2 0.2
v -0.3 2.2 0
v -0.3 2.3 0.3
v -0.3 2.3 0.2
v -0.3 2.3 0
v -0.3 2.3 -0.1
v -0.3 2.5 0
v -0.3 2.5 -0.1
v -0.3 2.6 0.4
v -0.3 2.6 0.3
v -0.3 2.6 0.2
v -0.3 2.6 -0.1
v -0.3 2.6 -0.2
v -0.3 2.7 0.4
v -0.3 2.7 0.3
v -0.3 2.7 0.2
v -0.3 2.7 0
v -0.3 2.7 -0.1
v -0.3 2.7 -0.2
v -0.3 2.8 0.3
v -0.3 2.8 0.2
v -0.3 2.8 0
v -0.3 2.8 -0.1
v -0.3 2.9 0.2
v -0.3 2.9 0
v -0.2 1.9 0.3
v -0.2 1.9 0.2
v -0.2 2 0
v -0.2 2 -0.1
v -0.2 2.1 0
v -0.2 2.1 -0.1
v -0.2 2.2 0.3
v -0.2 2.2 0.2
v -0.2 2.3 0.4
v -0.2 2.3 0.3
v -0.2 2.3 -0.1
v -0.2 2.3 -0.2
v -0.2 2.4 0.4
v -0.2 2.4 0.3
v -0.2 2.4 -0.1
v -0.2 2.4 -0.2
v -0.2 2.5 0
v -0.2 2.5 -0.1
v -0.2 2.5 -0.2
v -0.2 2.6 0.5
v -0.2 2.6 0.4
v -0.2 2.6 0
v -0.2 2.6 -0.1
v -0.2 2.6 -0.2
v -0.2 2.6 -0.3
v -0.2 2.7 0.5
v -0.2 2.7 0.4
v -0.2 2.7 0.3
v -0.2 2.7 -0.1
v -0.2 2.7 -0.2
v -0.2 2.7 -0.3
v -0.2 2.8 0.4
v -0.2 2.8 0.3
v -0.2 2.8 0.2
v -0.2 2.8 0
v -0.2 2.8 -0.1
v -0.2 2.8 -0.2
v -0.2 2.9 0.3
v -0.2 2.9 0.2
v -0.2 2.9 0
v -0.2 2.9 -0.1
v -0.1 1.9 0.4
v -0.1 1.9 0.3
v -0.1 1.9 0
v -0.1 1.9 -0.1
v -0.1 2 0
v -0.1 2 -0.1
v -0.1 2.1 0.4
v -0.1 2.1 0.3
v -0.1 2.1 0
v -0.1 2.1 -0.1
v -0.1 2.2 0
v -0.1 2.2 -0.1
v -0.1 2.4 0.4
v -0.1 2.4 0.3
v -0.1 2.5 -0.1
v -0.1 2.5 -0.2
v -0.1 2.6 0.4
v -0.1 2.6 0.3
v -0.1 2.6 -0.1
v -0.1 2.6 -0.2
v -0.1 2.8 -0.1
v -0.1 2.8 -0.2
v -0.1 2.9 0.2
v -0.1 2.9 0
v -0.1 2.9 -0.1
v -0.1 2.9 -0.2
v -0.1 3 0.2
v -0.1 3 0
v 0.1 1.5 0.2
v 0.1 1.5 -0.1
v 0.1 1.6 0
v 0.1 1.6 -0.1
v 0.1 1.8 0.2
v 0.1 1.8 0
v -0.3 1.6 -0.1
v -0.3 1.6 -0.2
v -0.3 1.7 -0.1
v -0.3 1.7 -0.2
v -0.3 1.7 -0.3
v -0.3 1.8 0.3
v -0.3 1.8 0.2
v -0.3 1.8 0
v -0.3 1.8 -0.2
v -0.3 1.8 -0.3
v -0.3 1.8 -0.4
v -0.3 1.9 0.3
v -0.3 1.9 0.2
v -0.3 1.9 0
v -0.3 1.9 -0.2
v -0.3 1.9 -0.3
v -0.3 1.9 -0.4
v -0.3 2 -0.1
v -0.3 2 -0.2
v -0.3 2 -0.3
v -0.3 2.1 -0.1
v -0.3 2.1 -0.2
v -0.1 1.5 0.2
v -0.1 1.5 -0.1
v -0.1 1.6 0
v -0.1 1.6 -0.1
v -0.1 1.8 0.2
v -0.1 1.8 0
v 0.1 1.9 0.4
v 0.1 1.9 0.3
v 0.1 1.9 0
v 0.1 1.9 -0.1
v 0.1 2 0
v 0.1 2 -0.1
v 0.1 2.1 0.4
v 0.1 2.1 0.3
v 0.1 2.1 0
v 0.1 2.1 -0.1
v 0.1 2.2 0
v 0.1 2.2 -0.1
v 0.1 2.4 0.4
v 0.1 2.4 0.3
v 0.1 2.5 -0.1
v 0.1 2.5 -0.2
v 0.1 2.6 0.4
v 0.1 2.6 0.3
v 0.1 2.6 -0.1
v 0.1 2.6 -0.2
v 0.1 2.8 -0.1
v 0.1 2.8 -0.2
v 0.1 2.9 0.2
v 0.1 2.9 0
v 0.1 2.9 -0.1
v 0.1 2.9 -0.2
v 0.1 3 0.2
v 0.1 3 0
v 0.2 1.9 0.3
v 0.2 1.9 0.2
v 0.2 2 0
v 0.2 2 -0.1
v 0.2 2.1 0.3
v 0.2 2.1 0.2
v 0.2 2.1 0
v 0.2 2.1 -0.1
v 0.2 2.2 0.3
v 0.2 2.2 0.2
v 0.2 2.3 0.4
v 0.2 2.3 0.3
v 0.2 2.3 -0.1
v 0.2 2.3 -0.2
v 0.2 2.4 0.4
v 0.2 2.4 0.3
v 0.2 2.4 -0.1
v 0.2 2.4 -0.2
v 0.2 2.5 0
v 0.2 2.5 -0.1
v 0.2 2.5 -0.2
v 0.2 2.6 0.5
v 0.2 2.6 0.4
v 0.2 2.6 0
v 0.2 2.6 -0.1
v 0.2 2.6 -0.2
v 0.2 2.6 -0.3
v 0.2 2.7 0.5
v 0.2 2.7 0.4
v 0.2 2.7 0.3
v 0.2 2.7 -0.1
v 0.2 2.7 -0.2
v 0.2 2.7 -0.3
v 0.2 2.8 0.4
v 0.2 2.8 0.3
v 0.2 2.8 0.2
v 0.2 2.8 0
v 0.2 2.8 -0.1
v 0.2 2.8 -0.2
v 0.2 2.9 0.3
v 0.2 2.9 0.2
v 0.2 2.9 0
v 0.2 2.9 -0.1
v 0.3 1.5 0.2
v 0.3 1.5 -0.1
v 0.3 1.6 0
v 0.3 1.6 -0.1
v 0.3 1.8 0.2
v 0.3 1.8 0
v 0.3 2.2 0.2
v 0.3 2.2 0
v 0.3 2.3 0.3
v 0.3 2.3 0.2
v 0.3 2.3 0
v 0.3 2.3 -0.1
v 0.3 2.5 0
v 0.3 2.5 -0.1
v 0.3 2.6 0.4
v 0.3 2.6 0.3
v 0.3 2.6 0.2
v 0.3 2.6 -0.1
v 0.3 2.6 -0.2
v 0.3 2.7 0.4
v 0.3 2.7 0.3
v 0.3 2.7 0.2
v 0.3 2.7 0
v 0.3 2.7 -0.1
v 0.3 2.7 -0.2
v 0.3 2.8 0.3
v 0.3 2.8 0.2
v 0.3 2.8 0
v 0.3 2.8 -0.1
v 0.3 2.9 0.2
v 0.3 2.9 0
v 0.4 1.8 0.2
v 0.4 1.8 0
v 0.4 1.9 0.2
v 0.4 1.9 0
v 0.4 2.2 0.2
v 0.4 2.2 0
v 0.4 2.3 0.2
v 0.4 2.3 0
v 0.4 2.6 0.3
v 0.4 2.6 0.2
v 0.4 2.6 0
v 0.4 2.6 -0.1
v 0.4 2.7 0.3
v 0.4 2.7 0.2
v 0.4 2.7 0
v 0.4 2.7 -0.1
v 0.4 2.8 0.2
v 0.4 2.8 0
v 0.5 2.6 0.2
v 0.5 2.6 0
v 0.5 2.7 0.2
v 0.5 2.7 0
v 0.8 0 0.8
v 0.8 0 -0.8
v 0.8 0.5 0.2
v 0.8 0.5 -0.2
v 0.8 0.6 0.3
v 0.8 0.6 0.2
v 0.8 0.6 0.1
v 0.8 0.6 -0.1
v 0.8 0.6 -0.2
v 0.8 0.6 -0.3
v 0.8 0.7 0.2
v 0.8 0.7 0.1
v 0.8 0.7 -0.1
v 0.8 0.7 -0.2
v 0.8 0.9 0.2
v 0.8 0.9 0.1
v 0.8 0.9 -0.1
v 0.8 0.9 -0.2
v 0.8 1 0.3
v 0.8 1 0.2
v 0.8 1 0.1
v 0.8 1 -0.1
v 0.8 1 -0.2
v 0.8 1 -0.3
v 0.8 1.1 0.2
v 0.8 1.1 -0.2
v 0.8 1.2 0.8
v 0.8 1.2 0.7
v 0.8 1.2 -0.7
v 0.8 1.2 -0.8
v 0.8 1.3 0.7
v 0.8 1.3 0.6
v 0.8 1.3 -0.6
v 0.8 1.3 -0.7
v 0.8 1.4 0.6
v 0.8 1.4 -0.6
v 0.8 1.5 0.8
v 0.8 1.5 -0.8
v -0.8 0 0.8
v -0.8 1.2 0.8
v -0.8 1.5 0.8
v -0.7 1.2 0.8
v -0.7 1.3 0.8
v -0.6 1.3 0.8
v -0.6 1.4 0.8
v -0.3 0.6 0.8
v -0.3 1 0.8
v -0.2 0.5 0.8
v -0.2 0.6 0.8
v -0.2 0.7 0.8
v -0.2 0.9 0.8
v -0.2 1 0.8
v -0.2 1.1 0.8
v -0.1 0.6 0.8
v -0.1 0.7 0.8
v -0.1 0.9 0.8
v -0.1 1 0.8
v 0.1 0.6 0.8
v 0.1 0.7 0.8
v 0.1 0.9 0.8
v 0.1 1 0.8
v 0.2 0.5 0.8
v 0.2 0.6 0.8
v 0.2 0.7 0.8
v 0.2 0.9 0.8
v 0.2 1 0.8
v 0.2 1.1 0.8
v 0.3 0.6 0.8
v 0.3 1 0.8
v 0.6 1.3 0.8
v 0.6 1.4 0.8
v 0.7 1.2 0.8
v 0.7 1.3 0.8
v 0.8 0 0.8
v 0.8 1.2 0.8
v 0.8 1.5 0.8
v -0.2 2.6 0.5
v -0.2 2.7 0.5
v -0.1 2.6 0.5
v -0.1 2.7 0.5
v 0.1 2.6 0.5
v 0.1 2.7 0.5
v 0.2 2.6 0.5
v 0.2 2.7 0.5
v -0.3 2.6 0.4
v -0.3 2.7 0.4
v -0.2 2.3 0.4
v -0.2 2.4 0.4
v -0.2 2.6 0.4
v -0.2 2.7 0.4
v -0.2 2.8 0.4
v -0.1 1.9 0.4
v -0.1 2.1 0.4
v -0.1 2.4 0.4
v -0.1 2.6 0.4
v -0.1 2.7 0.4
v -0.1 2.8 0.4
v 0.1 1.9 0.4
v 0.1 2.1 0.4
v 0.1 2.4 0.4
v 0.1 2.6 0.4
v 0.1 2.7 0.4
v 0.1 2.8 0.4
v 0.2 2.3 0.4
v 0.2 2.4 0.4
v 0.2 2.6 0.4
v 0.2 2.7 0.4
v 0.2 2.8 0.4
v 0.3 2.6 0.4
v 0.3 2.7 0.4
v -0.4 1.8 0.3
v -0.4 1.9 0.3
v -0.4 2.6 0.3
v -0.4 2.7 0.3
v -0.3 1.8 0.3
v -0.3 1.9 0.3
v -0.3 2.3 0.3
v -0.3 2.6 0.3
v -0.3 2.7 0.3
v -0.3 2.8 0.3
v -0.2 1.9 0.3
v -0.2 2.2 0.3
v -0.2 2.3 0.3
v -0.2 2.4 0.3
v -0.2 2.6 0.3
v -0.2 2.7 0.3
v -0.2 2.8 0.3
v -0.2 2.9 0.3
v -0.1 1.9 0.3
v -0.1 2.1 0.3
v -0.1 2.4 0.3
v -0.1 2.6 0.3
v -0.1 2.8 0.3
v -0.1 2.9 0.3
v 0.1 1.9 0.3
v 0.1 2.1 0.3
v 0.1 2.2 0.3
v 0.1 2.4 0.3
v 0.1 2.6 0.3
v 0.1 2.8 0.3
v 0.1 2.9 0.3
v 0.2 1.9 0.3
v 0.2 2.1 0.3
v 0.2 2.2 0.3
v 0.2 2.3 0.3
v 0.2 2.4 0.3
v 0.2 2.6 0.3
v 0.2 2.7 0.3
v 0.2 2.8 0.3
v 0.2 2.9 0.3
v 0.3 2.3 0.3
v 0.3 2.6 0.3
v 0.3 2.7 0.3
v 0.3 2.8 0.3
v 0.4 2.6 0.3
v 0.4 2.7 0.3
v -0.5 2.6 0.2
v -0.5 2.7 0.2
v -0.4 1.9 0.2
v -0.4 2.2 0.2
v -0.4 2.3 0.2
v -0.4 2.6 0.2
v -0.4 2.7 0.2
v -0.4 2.8 0.2
v -0.3 1.5 0.2
v -0.3 1.8 0.2
v -0.3 1.9 0.2
v -0.3 2.2 0.2
v -0.3 2.3 0.2
v -0.3 2.6 0.2
v -0.3 2.7 0.2
v -0.3 2.8 0.2
v -0.3 2.9 0.2
v -0.2 1.9 0.2
v -0.2 2.2 0.2
v -0.2 2.8 0.2
v -0.2 2.9 0.2
v -0.1 1.5 0.2
v -0.1 1.8 0.2
v -0.1 2.9 0.2
v -0.1 3 0.2
v 0.1 1.5 0.2
v 0.1 1.8 0.2
v 0.1 2.2 0.2
v 0.1 2.9 0.2
v 0.1 3 0.2
v 0.2 1.9 0.2
v 0.2 2.1 0.2
v 0.2 2.2 0.2
v 0.2 2.8 0.2
v 0.2 2.9 0.2
v 0.3 1.5 0.2
v 0.3 1.8 0.2
v 0.3 1.9 0.2
v 0.3 2.2 0.2
v 0.3 2.3 0.2
v 0.3 2.6 0.2
v 0.3 2.7 0.2
v 0.3 2.8 0.2
v 0.3 2.9 0.2
v 0.4 1.8 0.2
v 0.4 1.9 0.2
v 0.4 2.2 0.2
v 0.4 2.3 0.2
v 0.4 2.6 0.2
v 0.4 2.7 0.2
v 0.4 2.8 0.2
v 0.5 2.6 0.2
v 0.5 2.7 0.2
v -0.4 1.6 -0.1
v -0.4 1.7 -0.1
v -0.4 2 -0.1
v -0.4 2.1 -0.1
v -0.3 1.6 -0.1
v -0.3 1.7 -0.1
v -0.3 2 -0.1
v -0.3 2.1 -0.1
v -0.4 1.7 -0.2
v -0.4 1.8 -0.2
v -0.4 1.9 -0.2
v -0.4 2 -0.2
v -0.3 1.7 -0.2
v -0.3 1.8 -0.2
v -0.3 1.9 -0.2
v -0.3 2 -0.2
v -0.5 2.6 0
v -0.5 2.7 0
v -0.4 1.9 0
v -0.4 2.2 0
v -0.4 2.3 0
v -0.4 2.6 0
v -0.4 2.7 0
v -0.4 2.8 0
v -0.3 1.6 0
v -0.3 1.8 0
v -0.3 1.9 0
v -0.3 2.2 0
v -0.3 2.3 0
v -0.3 2.5 0
v -0.3 2.7 0
v -0.3 2.8 0
v -0.3 2.9 0
v -0.2 2 0
v -0.2 2.1 0
v -0.2 2.5 0
v -0.2 2.6 0
v -0.2 2.8 0
v -0.2 2.9 0
v -0.1 1.6 0
v -0.1 1.8 0
v -0.1 1.9 0
v -0.1 2 0
v -0.1 2.1 0
v -0.1 2.2 0
v -0.1 2.9 0
v -0.1 3 0
v 0.1 1.6 0
v 0.1 1.8 0
v 0.1 1.9 0
v 0.1 2 0
v 0.1 2.1 0
v 0.1 2.2 0
v 0.1 2.9 0
v 0.1 3 0
v 0.2 2 0
v 0.2 2.1 0
v 0.2 2.5 0
v 0.2 2.6 0
v 0.2 2.8 0
v 0.2 2.9 0
v 0.3 1.6 0
v 0.3 1.8 0
v 0.3 1.9 0
v 0.3 2.2 0
v 0.3 2.3 0
v 0.3 2.5 0
v 0.3 2.7 0
v 0.3 2.8 0
v 0.3 2.9 0
v 0.4 1.8 0
v 0.4 1.9 0
v 0.4 2.2 0
v 0.4 2.3 0
v 0.4 2.6 0
v 0.4 2.7 0
v 0.4 2.8 0
v 0.5 2.6 0
v 0.5 2.7 0
v -0.4 2.6 -0.1
v -0.4 2.7 -0.1
v -0.3 1.5 -0.1
v -0.3 1.6 -0.1
v -0.3 2.3 -0.1
v -0.3 2.5 -0.1
v -0.3 2.6 -0.1
v -0.3 2.7 -0.1
v -0.3 2.8 -0.1
v -0.2 2 -0.1
v -0.2 2.1 -0.1
v -0.2 2.3 -0.1
v -0.2 2.4 -0.1
v -0.2 2.5 -0.1
v -0.2 2.6 -0.1
v -0.2 2.7 -0.1
v -0.2 2.8 -0.1
v -0.2 2.9 -0.1
v -0.1 1.5 -0.1
v -0.1 1.6 -0.1
v -0.1 1.9 -0.1
v -0.1 2 -0.1
v -0.1 2.1 -0.1
v -0.1 2.2 -0.1
v -0.1 2.5 -0.1
v -0.1 2.6 -0.1
v -0.1 2.8 -0.1
v -0.1 2.9 -0.1
v 0.1 1.5 -0.1
v 0.1 1.6 -0.1
v 0.1 1.9 -0.1
v 0.1 2 -0.1
v 0.1 2.1 -0.1
v 0.1 2.2 -0.1
v 0.1 2.5 -0.1
v 0.1 2.6 -0.1
v 0.1 2.8 -0.1
v 0.1 2.9 -0.1
v 0.2 2 -0.1
v 0.2 2.1 -0.1
v 0.2 2.3 -0.1
v 0.2 2.4 -0.1
v 0.2 2.5 -0.1
v 0.2 2.6 -0.1
v 0.2 2.7 -0.1
v 0.2 2.8 -0.1
v 0.2 2.9 -0.1
v 0.3 1.5 -0.1
v 0.3 1.6 -0.1
v 0.3 2.3 -0.1
v 0.3 2.5 -0.1
v 0.3 2.6 -0.1
v 0.3 2.7 -0.1
v 0.3 2.8 -0.1
v 0.4 2.6 -0.1
v 0.4 2.7 -0.1
v -0.4 1.6 -0.2
v -0.4 1.7 -0.2
v -0.4 2 -0.2
v -0.4 2.1 -0.2
v -0.3 1.6 -0.2
v -0.3 1.7 -0.2
v -0.3 2 -0.2
v -0.3 2.1 -0.2
v -0.3 2.6 -0.2
v -0.3 2.7 -0.2
v -0.2 2.3 -0.2
v -0.2 2.4 -0.2
v -0.2 2.5 -0.2
v -0.2 2.6 -0.2
v -0.2 2.7 -0.2
v -0.2 2.8 -0.2
v -0.1 2.4 -0.2
v -0.1 2.5 -0.2
v -0.1 2.6 -0.2
v -0.1 2.7 -0.2
v -0.1 2.8 -0.2
v -0.1 2.9 -0.2
v 0 2.8 -0.2
v 0 2.9 -0.2
v 0.1 2.4 -0.2
v 0.1 2.5 -0.2
v 0.1 2.6 -0.2
v 0.1 2.7 -0.2
v 0.1 2.8 -0.2
v 0.1 2.9 -0.2
v 0.2 2.3 -0.2
v 0.2 2.4 -0.2
v 0.2 2.5 -0.2
v 0.2 2.6 -0.2
v 0.2 2.7 -0.2
v 0.2 2.8 -0.2
v 0.3 2.6 -0.2
v 0.3 2.7 -0.2
v -0.4 1.7 -0.3
v -0.4 1.8 -0.3
v -0.4 1.9 -0.3
v -0.4 2 -0.3
v -0.3 1.7 -0.3
v -0.3 1.8 -0.3
v -0.3 1.9 -0.3
v -0.3 2 -0.3
v -0.2 2.6 -0.3
v -0.2 2.7 -0.3
v -0.1 2.6 -0.3
v -0.1 2.7 -0.3
v 0.1 2.6 -0.3
v 0.1 2.7 -0.3
v 0.2 2.6 -0.3
v 0.2 2.7 -0.3
v -0.4 1.8 -0.4
v -0.4 1.9 -0.4
v -0.3 1.8 -0.4
v -0.3 1.9 -0.4
v -0.8 0 -0.8
v -0.8 1.2 -0.8
v -0.8 1.5 -0.8
v -0.7 1.2 -0.8
v -0.7 1.3 -0.8
v -0.6 1.3 -0.8
v -0.6 1.4 -0.8
v -0.3 0.6 -0.8
v -0.3 1 -0.8
v -0.2 0.5 -0.8
v -0.2 0.6 -0.8
v -0.2 0.7 -0.8
v -0.2 0.9 -0.8
v -0.2 1 -0.8
v -0.2 1.1 -0.8
v -0.1 0.6 -0.8
v -0.1 0.7 -0.8
v -0.1 0.9 -0.8
v -0.1 1 -0.8
v 0.1 0.6 -0.8
v 0.1 0.7 -0.8
v 0.1 0.9 -0.8
v 0.1 1 -0.8
v 0.2 0.5 -0.8
v 0.2 0.6 -0.8
v 0.2 0.7 -0.8
v 0.2 0.9 -0.8
v 0.2 1 -0.8
v 0.2 1.1 -0.8
v 0.3 0.6 -0.8
v 0.3 1 -0.8
v 0.6 1.3 -0.8
v 0.6 1.4 -0.8
v 0.7 1.2 -0.8
v 0.7 1.3 -0.8
v 0.8 0 -0.8
v 0.8 1.2 -0.8
v 0.8 1.5 -0.8
v -0.8 0 0.8
v 0.8 0 0.8
v -0.8 0 -0.8
v 0.8 0 -0.8
v -0.4 1.6 -0.1
v -0.3 1.6 -0.1
v -0.4 1.6 -0.2
v -0.3 1.6 -0.2
v -0.4 1.7 -0.2
v -0.3 1.7 -0.2
v -0.4 1.7 -0.3
v -0.3 1.7 -0.3
v -0.4 1.8 0.3
v -0.3 1.8 0.3
v -0.4 1.8 0.2
v -0.3 1.8 0.2
v -0.1 1.8 0.2
v 0.1 1.8 0.2
v 0.3 1.8 0.2
v 0.4 1.8 0.2
v -0.4 1.8 0
v -0.3 1.8 0
v -0.1 1.8 0
v 0.1 1.8 0
v 0.3 1.8 0
v 0.4 1.8 0
v -0.4 1.8 -0.2
v -0.3 1.8 -0.2
v -0.4 1.8 -0.3
v -0.3 1.8 -0.3
v -0.4 1.8 -0.4
v -0.3 1.8 -0.4
v -0.1 1.9 0.4
v 0.1 1.9 0.4
v -0.2 1.9 0.3
v -0.1 1.9 0.3
v 0.1 1.9 0.3
v 0.2 1.9 0.3
v -0.2 1.9 0.2
v 0.2 1.9 0.2
v -0.1 1.9 0
v 0.1 1.9 0
v -0.1 1.9 -0.1
v 0.1 1.9 -0.1
v -0.2 2 0
v -0.1 2 0
v 0.1 2 0
v 0.2 2 0
v -0.4 2 -0.1
v -0.3 2 -0.1
v -0.2 2 -0.1
v -0.1 2 -0.1
v 0.1 2 -0.1
v 0.2 2 -0.1
v -0.4 2 -0.2
v -0.3 2 -0.2
v -0.2 2.3 0.4
v 0.2 2.3 0.4
v -0.3 2.3 0.3
v -0.2 2.3 0.3
v 0.2 2.3 0.3
v 0.3 2.3 0.3
v -0.4 2.3 0.2
v -0.3 2.3 0.2
v 0.3 2.3 0.2
v 0.4 2.3 0.2
v -0.4 2.3 0
v -0.3 2.3 0
v 0.3 2.3 0
v 0.4 2.3 0
v -0.3 2.3 -0.1
v -0.2 2.3 -0.1
v 0.2 2.3 -0.1
v 0.3 2.3 -0.1
v -0.2 2.3 -0.2
v 0.2 2.3 -0.2
v -0.2 2.6 0.5
v -0.1 2.6 0.5
v 0.1 2.6 0.5
v 0.2 2.6 0.5
v -0.3 2.6 0.4
v -0.2 2.6 0.4
v -0.1 2.6 0.4
v 0.1 2.6 0.4
v 0.2 2.6 0.4
v 0.3 2.6 0.4
v -0.4 2.6 0.3
v -0.3 2.6 0.3
v -0.2 2.6 0.3
v -0.1 2.6 0.3
v 0.1 2.6 0.3
v 0.2 2.6 0.3
v 0.3 2.6 0.3
v 0.4 2.6 0.3
v -0.5 2.6 0.2
v -0.4 2.6 0.2
v -0.3 2.6 0.2
v 0.3 2.6 0.2
v 0.4 2.6 0.2
v 0.5 2.6 0.2
v -0.5 2.6 0
v -0.4 2.6 0
v -0.2 2.6 0
v 0.2 2.6 0
v 0.4 2.6 0
v 0.5 2.6 0
v -0.4 2.6 -0.1
v -0.3 2.6 -0.1
v -0.2 2.6 -0.1
v -0.1 2.6 -0.1
v 0.1 2.6 -0.1
v 0.2 2.6 -0.1
v 0.3 2.6 -0.1
v 0.4 2.6 -0.1
v -0.3 2.6 -0.2
v -0.2 2.6 -0.2
v -0.1 2.6 -0.2
v 0.1 2.6 -0.2
v 0.2 2.6 -0.2
v 0.3 2.6 -0.2
v -0.2 2.6 -0.3
v -0.1 2.6 -0.3
v 0.1 2.6 -0.3
v 0.2 2.6 -0.3
v -0.8 1.5 0.8
v 0.8 1.5 0.8
v -0.7 1.5 0.7
v 0.7 1.5 0.7
v -0.3 1.5 0.2
v -0.1 1.5 0.2
v 0.1 1.5 0.2
v 0.3 1.5 0.2
v -0.3 1.5 -0.1
v -0.1 1.5 -0.1
v 0.1 1.5 -0.1
v 0.3 1.5 -0.1
v -0.7 1.5 -0.7
v 0.7 1.5 -0.7
v -0.8 1.5 -0.8
v 0.8 1.5 -0.8
v -0.3 1.6 0
v -0.1 1.6 0
v 0.1 1.6 0
v 0.3 1.6 0
v -0.3 1.6 -0.1
v -0.1 1.6 -0.1
v 0.1 1.6 -0.1
v 0.3 1.6 -0.1
v -0.4 1.7 -0.1
v -0.3 1.7 -0.1
v -0.4 1.7 -0.2
v -0.3 1.7 -0.2
v -0.4 1.9 0.3
v -0.3 1.9 0.3
v -0.4 1.9 0.2
v -0.3 1.9 0.2
v -0.4 1.9 0
v -0.3 1.9 0
v -0.4 1.9 -0.2
v -0.3 1.9 -0.2
v -0.4 1.9 -0.3
v -0.3 1.9 -0.3
v -0.4 1.9 -0.4
v -0.3 1.9 -0.4
v -0.4 2 -0.2
v -0.3 2 -0.2
v -0.4 2 -0.3
v -0.3 2 -0.3
v -0.1 2.1 0.4
v 0.1 2.1 0.4
v -0.1 2.1 0.3
v 0.1 2.1 0.3
v -0.2 2.1 0
v -0.1 2.1 0
v 0.1 2.1 0
v 0.2 2.1 0
v -0.4 2.1 -0.1
v -0.3 2.1 -0.1
v -0.2 2.1 -0.1
v -0.1 2.1 -0.1
v 0.1 2.1 -0.1
v 0.2 2.1 -0.1
v -0.4 2.1 -0.2
v -0.3 2.1 -0.2
v -0.2 2.2 0.3
v 0.1 2.2 0.3
v 0.2 2.2 0.3
v -0.4 2.2 0.2
v -0.3 2.2 0.2
v -0.2 2.2 0.2
v 0.1 2.2 0.2
v 0.2 2.2 0.2
v 0.3 2.2 0.2
v 0.4 2.2 0.2
v -0.4 2.2 0
v -0.3 2.2 0
v -0.1 2.2 0
v 0.1 2.2 0
v 0.3 2.2 0
v 0.4 2.2 0
v -0.1 2.2 -0.1
v 0.1 2.2 -0.1
v -0.2 2.4 0.4
v -0.1 2.4 0.4
v 0.1 2.4 0.4
v 0.2 2.4 0.4
v -0.2 2.4 0.3
v -0.1 2.4 0.3
v 0.1 2.4 0.3
v 0.2 2.4 0.3
v -0.3 2.5 0
v -0.2 2.5 0
v 0.2 2.5 0
v 0.3 2.5 0
v -0.3 2.5 -0.1
v -0.2 2.5 -0.1
v -0.1 2.5 -0.1
v 0.1 2.5 -0.1
v 0.2 2.5 -0.1
v 0.3 2.5 -0.1
v -0.2 2.5 -0.2
v -0.1 2.5 -0.2
v 0.1 2.5 -0.2
v 0.2 2.5 -0.2
v -0.2 2.7 0.5
v -0.1 2.7 0.5
v 0.1 2.7 0.5
v 0.2 2.7 0.5
v -0.3 2.7 0.4
v -0.2 2.7 0.4
v -0.1 2.7 0.4
v 0.1 2.7 0.4
v 0.2 2.7 0.4
v 0.3 2.7 0.4
v -0.4 2.7 0.3
v -0.3 2.7 0.3
v -0.2 2.7 0.3
v 0.2 2.7 0.3
v 0.3 2.7 0.3
v 0.4 2.7 0.3
v -0.5 2.7 0.2
v -0.4 2.7 0.2
v -0.3 2.7 0.2
v 0.3 2.7 0.2
v 0.4 2.7 0.2
v 0.5 2.7 0.2
v -0.5 2.7 0
v -0.4 2.7 0
v -0.3 2.7 0
v 0.3 2.7 0
v 0.4 2.7 0
v 0.5 2.7 0
v -0.4 2.7 -0.1
v -0.3 2.7 -0.1
v -0.2 2.7 -0.1
v 0.2 2.7 -0.1
v 0.3 2.7 -0.1
v 0.4 2.7 -0.1
v -0.3 2.7 -0.2
v -0.2 2.7 -0.2
v -0.1 2.7 -0.2
v 0.1 2.7 -0.2
v 0.2 2.7 -0.2
v 0.3 2.7 -0.2
v -0.2 2.7 -0.3
v -0.1 2.7 -0.3
v 0.1 2.7 -0.3
v 0.2 2.7 -0.3
v -0.2 2.8 0.4
v -0.1 2.8 0.4
v 0.1 2.8 0.4
v 0.2 2.8 0.4
v -0.3 2.8 0.3
v -0.2 2.8 0.3
v -0.1 2.8 0.3
v 0.1 2.8 0.3
v 0.2 2.8 0.3
v 0.3 2.8 0.3
v -0.4 2.8 0.2
v -0.3 2.8 0.2
v -0.2 2.8 0.2
v 0.2 2.8 0.2
v 0.3 2.8 0.2
v 0.4 2.8 0.2
v -0.4 2.8 0
v -0.3 2.8 0
v -0.2 2.8 0
v 0.2 2.8 0
v 0.3 2.8 0
v 0.4 2.8 0
v -0.3 2.8 -0.1
v -0.2 2.8 -0.1
v -0.1 2.8 -0.1
v 0.1 2.8 -0.1
v 0.2 2.8 -0.1
v 0.3 2.8 -0.1
v -0.2 2.8 -0.2
v -0.1 2.8 -0.2
v 0.1 2.8 -0.2
v 0.2 2.8 -0.2
v -0.2 2.9 0.3
v -0.1 2.9 0.3
v 0.1 2.9 0.3
v 0.2 2.9 0.3
v -0.3 2.9 0.2
v -0.2 2.9 0.2
v -0.1 2.9 0.2
v 0.1 2.9 0.2
v 0.2 2.9 0.2
v 0.3 2.9 0.2
v -0.3 2.9 0
v -0.2 2.9 0
v -0.1 2.9 0
v 0.1 2.9 0
v 0.2 2.9 0
v 0.3 2.9 0
v -0.2 2.9 -0.1
v -0.1 2.9 -0.1
v 0 2.9 -0.1
v 0.1 2.9 -0.1
v 0.2 2.9 -0.1
v -0.1 2.9 -0.2
v 0 2.9 -0.2
v 0.1 2.9 -0.2
v -0.1 3 0.2
v 0.1 3 0.2
v -0.1 3 0
v 0.1 3 0

# faces
f 3/12/1 2/12/1 1/12/1
f 4/12/1 2/12/1 3/12/1
f 5/12/1 3/12/1 1/12/1
f 6/8/1 4/8/1 3/8/1
f 6/12/1 3/12/1 5/12/1
f 7/8/1 4/8/1 6/8/1
f 8/8/1 4/8/1 7/8/1
f 9/12/1 2/12/1 4/12/1
f 9/8/1 4/8/1 8/8/1
f 10/12/1 2/12/1 9/12/1
f 11/8/1 6/8/1 5/8/1
f 11/8/1 7/8/1 6/8/1
f 12/11/1 8/11/1 7/11/1
f 12/8/1 7/8/1 11/8/1
f 13/8/1 10/8/1 9/8/1
f 13/11/1 8/11/1 12/11/1
f 13/8/1 9/8/1 8/8/1
f 14/8/1 10/8/1 13/8/1
f 15/8/1 11/8/1 5/8/1
f 15/11/1 12/11/1 11/11/1
f 15/11/1 14/11/1 13/11/1
f 15/11/1 13/11/1 12/11/1
f 16/11/1 14/11/1 15/11/1
f 17/11/1 14/11/1 16/11/1
f 18/8/1 10/8/1 14/8/1
f 18/11/1 14/11/1 17/11/1
f 19/12/1 5/12/1 1/12/1
f 19/8/1 15/8/1 5/8/1
f 19/8/1 16/8/1 15/8/1
f 20/8/1 16/8/1 19/8/1
f 21/11/1 17/11/1 16/11/1
f 21/8/1 16/8/1 20/8/1
f 22/8/1 18/8/1 17/8/1
f 22/11/1 17/11/1 21/11/1
f 23/8/1 10/8/1 18/8/1
f 23/8/1 18/8/1 22/8/1
f 24/12/1 2/12/1 10/12/1
f 24/8/1 10/8/1 23/8/1
f 25/12/1 20/12/1 19/12/1
f 25/8/1 22/8/1 21/8/1
f 25/8/1 23/8/1 22/8/1
f 25/8/1 21/8/1 20/8/1
f 26/12/1 24/12/1 23/12/1
f 26/8/1 23/8/1 25/8/1
f 27/12/1 25/12/1 19/12/1
f 27/12/1 19/12/1 1/12/1
f 27/12/1 26/12/1 25/12/1
f 28/12/1 26/12/1 27/12/1
f 29/12/1 2/12/1 24/12/1
f 29/12/1 26/12/1 28/12/1
f 29/12/1 24/12/1 26/12/1
f 30/12/1 2/12/1 29/12/1
f 31/4/1 28/4/1 27/4/1
f 31/12/1 29/12/1 28/12/1
f 32/12/1 29/12/1 31/12/1
f 33/12/1 29/12/1 32/12/1
f 34/4/1 30/4/1 29/4/1
f 34/12/1 29/12/1 33/12/1
f 35/12/1 33/12/1 32/12/1
f 35/4/1 32/4/1 31/4/1
f 36/4/1 34/4/1 33/4/1
f 36/12/1 33/12/1 35/12/1
f 37/4/1 31/4/1 27/4/1
f 37/4/1 35/4/1 31/4/1
f 37/4/1 36/4/1 35/4/1
f 38/4/1 30/4/1 34/4/1
f 38/4/1 36/4/1 37/4/1
f 38/4/1 34/4/1 36/4/1
f 41/3/1 40/3/1 39/3/1
f 42/3/1 40/3/1 41/3/1
f 45/4/1 44/4/1 43/4/1
f 46/4/1 44/4/1 45/4/1
f 51/4/1 47/4/1 46/4/1
f 52/4/1 47/4/1 51/4/1
f 54/1/1 49/1/1 48/1/1
f 55/9/1 50/9/1 49/9/1
f 55/1/1 49/1/1 54/1/1
f 56/1/1 51/1/1 50/1/1
f 56/9/1 50/9/1 55/9/1
f 57/4/1 52/4/1 51/4/1
f 57/1/1 51/1/1 56/1/1
f 58/1/1 53/1/1 52/1/1
f 58/4/1 52/4/1 57/4/1
f 59/1/1 53/1/1 58/1/1
f 61/4/1 58/4/1 57/4/1
f 62/4/1 58/4/1 61/4/1
f 63/4/1 61/4/1 60/4/1
f 64/4/1 61/4/1 63/4/1
f 65/3/1 56/3/1 55/3/1
f 66/3/1 56/3/1 65/3/1
f 70/9/1 68/9/1 67/9/1
f 71/9/1 68/9/1 70/9/1
f 73/3/1 70/3/1 69/3/1
f 74/3/1 70/3/1 73/3/1
f 75/3/1 72/3/1 71/3/1
f 76/3/1 72/3/1 75/3/1
f 77/3/1 75/3/1 74/3/1
f 78/3/1 75/3/1 77/3/1
f 81/13/1 80/13/1 79/13/1
f 82/13/1 80/13/1 81/13/1
f 83/13/1 81/13/1 79/13/1
f 84/13/1 81/13/1 83/13/1
f 88/3/1 86/3/1 85/3/1
f 89/3/1 86/3/1 88/3/1
f 91/9/1 90/9/1 89/9/1
f 92/9/1 90/9/1 91/9/1
f 94/9/1 88/9/1 87/9/1
f 95/9/1 88/9/1 94/9/1
f 98/3/1 94/3/1 93/3/1
f 99/3/1 94/3/1 98/3/1
f 102/3/1 97/3/1 96/3/1
f 103/3/1 97/3/1 102/3/1
f 104/3/1 100/3/1 99/3/1
f 105/3/1 100/3/1 104/3/1
f 106/3/1 102/3/1 101/3/1
f 107/3/1 102/3/1 106/3/1
f 108/3/1 106/3/1 105/3/1
f 109/3/1 106/3/1 108/3/1
f 114/3/1 113/3/1 112/3/1
f 115/3/1 113/3/1 114/3/1
f 116/5/1 111/5/1 110/5/1
f 117/5/1 111/5/1 116/5/1
f 122/9/1 119/9/1 118/9/1
f 123/9/1 119/9/1 122/9/1
f 124/9/1 121/9/1 120/9/1
f 125/9/1 121/9/1 124/9/1
f 127/13/1 125/13/1 124/13/1
f 128/13/1 125/13/1 127/13/1
f 131/9/1 127/9/1 126/9/1
f 132/9/1 127/9/1 131/9/1
f 135/4/1 130/4/1 129/4/1
f 136/4/1 130/4/1 135/4/1
f 139/4/1 134/4/1 133/4/1
f 140/4/1 134/4/1 139/4/1
f 141/4/1 137/4/1 136/4/1
f 142/4/1 137/4/1 141/4/1
f 145/4/1 139/4/1 138/4/1
f 146/4/1 139/4/1 145/4/1
f 147/4/1 143/4/1 142/4/1
f 148/4/1 143/4/1 147/4/1
f 149/4/1 145/4/1 144/4/1
f 150/4/1 145/4/1 149/4/1
f 155/3/1 154/3/1 153/3/1
f 156/3/1 154/3/1 155/3/1
f 157/5/1 152/5/1 151/5/1
f 158/5/1 152/5/1 157/5/1
f 161/3/1 160/3/1 159/3/1
f 162/3/1 160/3/1 161/3/1
f 167/9/1 164/9/1 163/9/1
f 168/9/1 164/9/1 167/9/1
f 169/9/1 166/9/1 165/9/1
f 170/9/1 166/9/1 169/9/1
f 175/10/1 172/10/1 171/10/1
f 176/10/1 172/10/1 175/10/1
f 177/3/1 174/3/1 173/3/1
f 178/3/1 174/3/1 177/3/1
f 181/13/1 180/13/1 179/13/1
f 182/13/1 180/13/1 181/13/1
f 183/13/1 181/13/1 179/13/1
f 184/13/1 181/13/1 183/13/1
f 185/4/2 186/4/2 187/4/2
f 187/4/2 186/4/2 188/4/2
f 188/4/2 189/4/2 193/4/2
f 193/4/2 189/4/2 194/4/2
f 190/1/2 191/1/2 196/1/2
f 196/1/2 191/1/2 197/1/2
f 192/1/2 193/1/2 198/1/2
f 193/4/2 194/4/2 199/4/2
f 198/1/2 193/1/2 199/1/2
f 194/1/2 195/1/2 200/1/2
f 199/4/2 194/4/2 200/4/2
f 200/1/2 195/1/2 201/1/2
f 199/4/2 200/4/2 203/4/2
f 203/4/2 200/4/2 204/4/2
f 202/4/2 203/4/2 205/4/2
f 205/4/2 203/4/2 206/4/2
f 207/13/2 208/13/2 209/13/2
f 209/13/2 208/13/2 210/13/2
f 207/13/2 209/13/2 211/13/2
f 211/13/2 209/13/2 212/13/2
f 215/3/2 216/3/2 217/3/2
f 217/3/2 216/3/2 218/3/2
f 213/5/2 214/5/2 219/5/2
f 219/5/2 214/5/2 220/5/2
f 221/3/2 222/3/2 223/3/2
f 223/3/2 222/3/2 224/3/2
f 225/9/2 226/9/2 229/9/2
f 229/9/2 226/9/2 230/9/2
f 227/9/2 228/9/2 231/9/2
f 231/9/2 228/9/2 232/9/2
f 233/9/2 234/9/2 237/9/2
f 237/9/2 234/9/2 238/9/2
f 235/3/2 236/3/2 239/3/2
f 239/3/2 236/3/2 240/3/2
f 241/5/2 242/5/2 245/5/2
f 245/5/2 242/5/2 246/5/2
f 243/3/2 244/3/2 247/3/2
f 247/3/2 244/3/2 248/3/2
f 245/6/2 246/6/2 249/6/2
f 249/6/2 246/6/2 250/6/2
f 251/9/2 252/9/2 255/9/2
f 255/9/2 252/9/2 256/9/2
f 253/9/2 254/9/2 257/9/2
f 257/9/2 254/9/2 258/9/2
f 257/13/2 258/13/2 260/13/2
f 260/13/2 258/13/2 261/13/2
f 259/9/2 260/9/2 264/9/2
f 264/9/2 260/9/2 265/9/2
f 262/4/2 263/4/2 268/4/2
f 268/4/2 263/4/2 269/4/2
f 266/4/2 267/4/2 272/4/2
f 272/4/2 267/4/2 273/4/2
f 269/4/2 270/4/2 274/4/2
f 274/4/2 270/4/2 275/4/2
f 271/4/2 272/4/2 278/4/2
f 278/4/2 272/4/2 279/4/2
f 275/4/2 276/4/2 280/4/2
f 280/4/2 276/4/2 281/4/2
f 277/4/2 278/4/2 282/4/2
f 282/4/2 278/4/2 283/4/2
f 284/13/2 285/13/2 286/13/2
f 286/13/2 285/13/2 287/13/2
f 284/13/2 286/13/2 288/13/2
f 288/13/2 286/13/2 289/13/2
f 290/3/2 291/3/2 293/3/2
f 293/3/2 291/3/2 294/3/2
f 294/9/2 295/9/2 296/9/2
f 296/9/2 295/9/2 297/9/2
f 292/9/2 293/9/2 299/9/2
f 299/9/2 293/9/2 300/9/2
f 298/3/2 299/3/2 303/3/2
f 303/3/2 299/3/2 304/3/2
f 301/3/2 302/3/2 307/3/2
f 307/3/2 302/3/2 308/3/2
f 304/3/2 305/3/2 309/3/2
f 309/3/2 305/3/2 310/3/2
f 306/3/2 307/3/2 311/3/2
f 311/3/2 307/3/2 312/3/2
f 310/3/2 311/3/2 313/3/2
f 313/3/2 311/3/2 314/3/2
f 315/9/2 316/9/2 317/9/2
f 317/9/2 316/9/2 318/9/2
f 317/3/2 318/3/2 319/3/2
f 319/3/2 318/3/2 320/3/2
f 321/9/2 322/9/2 324/9/2
f 324/9/2 322/9/2 325/9/2
f 323/3/2 324/3/2 327/3/2
f 327/3/2 324/3/2 328/3/2
f 325/3/2 326/3/2 329/3/2
f 329/3/2 326/3/2 330/3/2
f 328/3/2 329/3/2 331/3/2
f 331/3/2 329/3/2 332/3/2
f 333/3/2 334/3/2 335/3/2
f 335/3/2 334/3/2 336/3/2
f 337/12/2 338/12/2 339/12/2
f 339/12/2 338/12/2 340/12/2
f 337/12/2 339/12/2 341/12/2
f 339/8/2 340/8/2 342/8/2
f 341/12/2 339/12/2 342/12/2
f 342/8/2 340/8/2 343/8/2
f 343/8/2 340/8/2 344/8/2
f 340/12/2 338/12/2 345/12/2
f 344/8/2 340/8/2 345/8/2
f 345/12/2 338/12/2 346/12/2
f 341/8/2 342/8/2 347/8/2
f 342/8/2 343/8/2 347/8/2
f 343/11/2 344/11/2 348/11/2
f 347/8/2 343/8/2 348/8/2
f 345/8/2 346/8/2 349/8/2
f 348/11/2 344/11/2 349/11/2
f 344/8/2 345/8/2 349/8/2
f 349/8/2 346/8/2 350/8/2
f 341/8/2 347/8/2 351/8/2
f 347/11/2 348/11/2 351/11/2
f 349/11/2 350/11/2 351/11/2
f 348/11/2 349/11/2 351/11/2
f 351/11/2 350/11/2 352/11/2
f 352/11/2 350/11/2 353/11/2
f 350/8/2 346/8/2 354/8/2
f 353/11/2 350/11/2 354/11/2
f 337/12/2 341/12/2 355/12/2
f 341/8/2 351/8/2 355/8/2
f 351/8/2 352/8/2 355/8/2
f 355/8/2 352/8/2 356/8/2
f 352/11/2 353/11/2 357/11/2
f 356/8/2 352/8/2 357/8/2
f 353/8/2 354/8/2 358/8/2
f 357/11/2 353/11/2 358/11/2
f 354/8/2 346/8/2 359/8/2
f 358/8/2 354/8/2 359/8/2
f 346/12/2 338/12/2 360/12/2
f 359/8/2 346/8/2 360/8/2
f 355/12/2 356/12/2 361/12/2
f 357/8/2 358/8/2 361/8/2
f 358/8/2 359/8/2 361/8/2
f 356/8/2 357/8/2 361/8/2
f 359/12/2 360/12/2 362/12/2
f 361/8/2 359/8/2 362/8/2
f 355/12/2 361/12/2 363/12/2
f 337/12/2 355/12/2 363/12/2
f 361/12/2 362/12/2 363/12/2
f 363/12/2 362/12/2 364/12/2
f 360/12/2 338/12/2 365/12/2
f 364/12/2 362/12/2 365/12/2
f 362/12/2 360/12/2 365/12/2
f 365/12/2 338/12/2 366/12/2
f 363/4/2 364/4/2 367/4/2
f 364/12/2 365/12/2 367/12/2
f 367/12/2 365/12/2 368/12/2
f 368/12/2 365/12/2 369/12/2
f 365/4/2 366/4/2 370/4/2
f 369/12/2 365/12/2 370/12/2
f 368/12/2 369/12/2 371/12/2
f 367/4/2 368/4/2 371/4/2
f 369/4/2 370/4/2 372/4/2
f 371/12/2 369/12/2 372/12/2
f 363/4/2 367/4/2 373/4/2
f 367/4/2 371/4/2 373/4/2
f 371/4/2 372/4/2 373/4/2
f 370/4/2 366/4/2 374/4/2
f 373/4/2 372/4/2 374/4/2
f 372/4/2 370/4/2 374/4/2
f 378/12/3 376/12/3 375/12/3
f 378/4/3 377/4/3 376/4/3
f 379/4/3 377/4/3 378/4/3
f 380/12/3 379/12/3 378/12/3
f 380/4/3 377/4/3 379/4/3
f 381/4/3 377/4/3 380/4/3
f 382/12/3 378/12/3 375/12/3
f 382/12/3 380/12/3 378/12/3
f 382/12/3 381/12/3 380/12/3
f 383/12/3 381/12/3 382/12/3
f 384/12/3 382/12/3 375/12/3
f 385/8/3 383/8/3 382/8/3
f 385/12/3 382/12/3 384/12/3
f 386/8/3 383/8/3 385/8/3
f 387/8/3 383/8/3 386/8/3
f 388/12/3 381/12/3 383/12/3
f 388/8/3 383/8/3 387/8/3
f 389/12/3 381/12/3 388/12/3
f 390/8/3 385/8/3 384/8/3
f 390/8/3 386/8/3 385/8/3
f 391/11/3 387/11/3 386/11/3
f 391/8/3 386/8/3 390/8/3
f 392/8/3 389/8/3 388/8/3
f 392/11/3 387/11/3 391/11/3
f 392/8/3 388/8/3 387/8/3
f 393/8/3 389/8/3 392/8/3
f 394/8/3 390/8/3 384/8/3
f 394/11/3 391/11/3 390/11/3
f 394/11/3 393/11/3 392/11/3
f 394/11/3 392/11/3 391/11/3
f 395/11/3 393/11/3 394/11/3
f 396/11/3 393/11/3 395/11/3
f 397/8/3 389/8/3 393/8/3
f 397/11/3 393/11/3 396/11/3
f 398/12/3 384/12/3 375/12/3
f 398/8/3 394/8/3 384/8/3
f 398/8/3 395/8/3 394/8/3
f 399/8/3 395/8/3 398/8/3
f 400/11/3 396/11/3 395/11/3
f 400/8/3 395/8/3 399/8/3
f 401/8/3 397/8/3 396/8/3
f 401/11/3 396/11/3 400/11/3
f 402/8/3 389/8/3 397/8/3
f 402/8/3 397/8/3 401/8/3
f 403/12/3 381/12/3 389/12/3
f 403/8/3 389/8/3 402/8/3
f 404/12/3 399/12/3 398/12/3
f 404/8/3 401/8/3 400/8/3
f 404/8/3 402/8/3 401/8/3
f 404/8/3 400/8/3 399/8/3
f 405/12/3 403/12/3 402/12/3
f 405/8/3 402/8/3 404/8/3
f 406/12/3 381/12/3 403/12/3
f 406/12/3 403/12/3 405/12/3
f 406/12/3 405/12/3 404/12/3
f 407/4/3 377/4/3 381/4/3
f 407/12/3 381/12/3 406/12/3
f 408/12/3 406/12/3 404/12/3
f 409/4/3 407/4/3 406/4/3
f 409/12/3 406/12/3 408/12/3
f 410/12/3 398/12/3 375/12/3
f 410/12/3 404/12/3 398/12/3
f 410/12/3 408/12/3 404/12/3
f 411/4/3 409/4/3 408/4/3
f 411/12/3 408/12/3 410/12/3
f 412/4/3 377/4/3 407/4/3
f 412/4/3 409/4/3 411/4/3
f 412/4/3 407/4/3 409/4/3
f 415/4/3 414/4/3 413/4/3
f 416/4/3 414/4/3 415/4/3
f 417/3/3 416/3/3 415/3/3
f 418/3/3 416/3/3 417/3/3
f 419/4/3 418/4/3 417/4/3
f 420/4/3 418/4/3 419/4/3
f 425/3/3 422/3/3 421/3/3
f 426/3/3 422/3/3 425/3/3
f 430/9/3 424/9/3 423/9/3
f 432/4/3 427/4/3 426/4/3
f 433/4/3 427/4/3 432/4/3
f 434/5/3 429/5/3 428/5/3
f 435/5/3 429/5/3 434/5/3
f 436/9/3 431/9/3 430/9/3
f 436/9/3 430/9/3 423/9/3
f 437/9/3 431/9/3 436/9/3
f 438/3/3 433/3/3 432/3/3
f 439/3/3 433/3/3 438/3/3
f 440/9/3 436/9/3 423/9/3
f 441/9/3 436/9/3 440/9/3
f 443/4/3 439/4/3 438/4/3
f 444/4/3 439/4/3 443/4/3
f 445/3/3 443/3/3 442/3/3
f 446/3/3 443/3/3 445/3/3
f 451/1/3 448/1/3 447/1/3
f 452/1/3 448/1/3 451/1/3
f 454/3/3 450/3/3 449/3/3
f 455/3/3 450/3/3 454/3/3
f 459/9/3 454/9/3 453/9/3
f 460/9/3 454/9/3 459/9/3
f 461/9/3 454/9/3 460/9/3
f 462/3/3 456/3/3 455/3/3
f 463/3/3 456/3/3 462/3/3
f 465/5/3 458/5/3 457/5/3
f 466/5/3 458/5/3 465/5/3
f 467/9/3 461/9/3 460/9/3
f 468/9/3 461/9/3 467/9/3
f 469/4/3 464/4/3 463/4/3
f 470/4/3 464/4/3 469/4/3
f 472/5/3 458/5/3 466/5/3
f 473/5/3 458/5/3 472/5/3
f 476/3/3 470/3/3 469/3/3
f 477/3/3 470/3/3 476/3/3
f 478/5/3 472/5/3 471/5/3
f 479/6/3 473/6/3 472/6/3
f 479/5/3 472/5/3 478/5/3
f 480/6/3 473/6/3 479/6/3
f 482/9/3 475/9/3 474/9/3
f 483/9/3 475/9/3 482/9/3
f 485/4/3 477/4/3 476/4/3
f 486/4/3 477/4/3 485/4/3
f 487/9/3 483/9/3 482/9/3
f 487/9/3 482/9/3 481/9/3
f 488/9/3 483/9/3 487/9/3
f 489/3/3 485/3/3 484/3/3
f 490/3/3 485/3/3 489/3/3
f 491/3/3 489/3/3 488/3/3
f 492/3/3 489/3/3 491/3/3
f 498/3/3 494/3/3 493/3/3
f 499/3/3 494/3/3 498/3/3
f 503/3/3 496/3/3 495/3/3
f 504/3/3 496/3/3 503/3/3
f 505/9/3 498/9/3 497/9/3
f 506/9/3 498/9/3 505/9/3
f 507/3/3 500/3/3 499/3/3
f 508/3/3 500/3/3 507/3/3
f 510/3/3 504/3/3 503/3/3
f 510/3/3 503/3/3 502/3/3
f 510/3/3 505/3/3 504/3/3
f 511/3/3 505/3/3 510/3/3
f 512/3/3 509/3/3 508/3/3
f 513/3/3 509/3/3 512/3/3
f 514/13/3 502/13/3 501/13/3
f 515/3/3 510/3/3 502/3/3
f 515/13/3 502/13/3 514/13/3
f 519/3/3 510/3/3 515/3/3
f 520/3/3 505/3/3 511/3/3
f 521/3/3 517/3/3 516/3/3
f 522/3/3 517/3/3 521/3/3
f 523/3/3 510/3/3 519/3/3
f 525/3/3 505/3/3 520/3/3
f 528/13/3 519/13/3 518/13/3
f 529/3/3 524/3/3 523/3/3
f 529/13/3 519/13/3 528/13/3
f 529/3/3 523/3/3 519/3/3
f 529/3/3 525/3/3 524/3/3
f 530/3/3 525/3/3 529/3/3
f 531/3/3 505/3/3 525/3/3
f 531/3/3 525/3/3 530/3/3
f 532/3/3 505/3/3 531/3/3
f 535/3/3 527/3/3 526/3/3
f 536/3/3 527/3/3 535/3/3
f 537/9/3 530/9/3 529/9/3
f 538/3/3 531/3/3 530/3/3
f 538/9/3 530/9/3 537/9/3
f 539/3/3 531/3/3 538/3/3
f 540/9/3 533/9/3 532/9/3
f 541/9/3 533/9/3 540/9/3
f 542/3/3 535/3/3 534/3/3
f 543/3/3 535/3/3 542/3/3
f 544/3/3 542/3/3 541/3/3
f 545/3/3 542/3/3 544/3/3
f 550/4/3 547/4/3 546/4/3
f 551/4/3 547/4/3 550/4/3
f 552/4/3 549/4/3 548/4/3
f 553/4/3 549/4/3 552/4/3
f 558/4/3 555/4/3 554/4/3
f 559/4/3 555/4/3 558/4/3
f 560/4/3 557/4/3 556/4/3
f 561/4/3 557/4/3 560/4/3
f 562/3/4 563/3/4 567/3/4
f 567/3/4 563/3/4 568/3/4
f 564/3/4 565/3/4 572/3/4
f 572/3/4 565/3/4 573/3/4
f 566/9/4 567/9/4 574/9/4
f 574/9/4 567/9/4 575/9/4
f 568/3/4 569/3/4 576/3/4
f 576/3/4 569/3/4 577/3/4
f 572/3/4 573/3/4 579/3/4
f 571/3/4 572/3/4 579/3/4
f 573/3/4 574/3/4 579/3/4
f 579/3/4 574/3/4 580/3/4
f 575/9/4 567/9/4 581/9/4
f 581/9/4 567/9/4 582/9/4
f 577/3/4 578/3/4 583/3/4
f 583/3/4 578/3/4 584/3/4
f 570/13/4 571/13/4 585/13/4
f 571/3/4 579/3/4 586/3/4
f 585/13/4 571/13/4 586/13/4
f 586/3/4 579/3/4 587/3/4
f 587/3/4 579/3/4 588/3/4
f 580/3/4 574/3/4 589/3/4
f 589/3/4 574/3/4 590/3/4
f 586/3/4 587/3/4 594/3/4
f 594/3/4 587/3/4 595/3/4
f 590/3/4 574/3/4 598/3/4
f 591/3/4 592/3/4 599/3/4
f 599/3/4 592/3/4 600/3/4
f 595/3/4 596/3/4 601/3/4
f 594/3/4 595/3/4 601/3/4
f 597/3/4 598/3/4 602/3/4
f 593/13/4 594/13/4 607/13/4
f 594/3/4 601/3/4 608/3/4
f 607/13/4 594/13/4 608/13/4
f 601/3/4 602/3/4 608/3/4
f 608/3/4 602/3/4 609/3/4
f 598/3/4 574/3/4 610/3/4
f 609/3/4 602/3/4 610/3/4
f 602/3/4 598/3/4 610/3/4
f 610/3/4 574/3/4 611/3/4
f 603/9/4 604/9/4 612/9/4
f 605/3/4 606/3/4 614/3/4
f 614/3/4 606/3/4 615/3/4
f 608/9/4 609/9/4 616/9/4
f 609/3/4 610/3/4 617/3/4
f 616/9/4 609/9/4 617/9/4
f 617/3/4 610/3/4 618/3/4
f 611/9/4 612/9/4 619/9/4
f 612/9/4 604/9/4 620/9/4
f 619/9/4 612/9/4 620/9/4
f 613/3/4 614/3/4 621/3/4
f 621/3/4 614/3/4 622/3/4
f 620/3/4 621/3/4 623/3/4
f 623/3/4 621/3/4 624/3/4
f 625/3/4 626/3/4 631/3/4
f 631/3/4 626/3/4 632/3/4
f 629/9/4 630/9/4 636/9/4
f 636/9/4 630/9/4 637/9/4
f 637/9/4 630/9/4 638/9/4
f 632/3/4 633/3/4 640/3/4
f 640/3/4 633/3/4 641/3/4
f 627/13/4 628/13/4 643/13/4
f 643/13/4 628/13/4 644/13/4
f 634/3/4 635/3/4 646/3/4
f 646/3/4 635/3/4 647/3/4
f 638/9/4 639/9/4 649/9/4
f 649/9/4 639/9/4 650/9/4
f 641/4/4 642/4/4 651/4/4
f 651/4/4 642/4/4 652/4/4
f 647/3/4 648/3/4 655/3/4
f 645/3/4 646/3/4 655/3/4
f 646/3/4 647/3/4 655/3/4
f 655/3/4 648/3/4 656/3/4
f 656/3/4 648/3/4 657/3/4
f 657/3/4 648/3/4 658/3/4
f 656/3/4 657/3/4 663/3/4
f 663/3/4 657/3/4 664/3/4
f 659/9/4 660/9/4 667/9/4
f 667/9/4 660/9/4 668/9/4
f 661/4/4 662/4/4 670/4/4
f 670/4/4 662/4/4 671/4/4
f 653/13/4 654/13/4 672/13/4
f 672/13/4 654/13/4 673/13/4
f 665/9/4 666/9/4 674/9/4
f 666/9/4 667/9/4 674/9/4
f 674/9/4 667/9/4 675/9/4
f 669/3/4 670/3/4 677/3/4
f 677/3/4 670/3/4 678/3/4
f 676/3/4 677/3/4 679/3/4
f 679/3/4 677/3/4 680/3/4
f 681/4/4 682/4/4 685/4/4
f 685/4/4 682/4/4 686/4/4
f 683/4/4 684/4/4 687/4/4
f 687/4/4 684/4/4 688/4/4
f 689/3/4 690/3/4 694/3/4
f 694/3/4 690/3/4 695/3/4
f 692/13/4 693/13/4 697/13/4
f 691/9/4 692/9/4 697/9/4
f 697/13/4 693/13/4 698/13/4
f 695/4/4 696/4/4 700/4/4
f 700/4/4 696/4/4 701/4/4
f 700/9/4 701/9/4 703/9/4
f 701/10/4 702/10/4 703/10/4
f 703/10/4 702/10/4 704/10/4
f 698/9/4 699/9/4 705/9/4
f 691/9/4 697/9/4 705/9/4
f 697/9/4 698/9/4 705/9/4
f 705/9/4 699/9/4 706/9/4
f 706/9/4 699/9/4 707/9/4
f 703/9/4 704/9/4 708/9/4
f 700/9/4 703/9/4 708/9/4
f 708/9/4 704/9/4 709/9/4
f 709/9/4 704/9/4 710/9/4
f 691/9/4 705/9/4 711/9/4
f 705/13/4 706/13/4 712/13/4
f 711/9/4 705/9/4 712/9/4
f 712/13/4 706/13/4 713/13/4
f 708/4/4 709/4/4 715/4/4
f 715/4/4 709/4/4 716/4/4
f 714/3/4 715/3/4 717/3/4
f 717/3/4 715/3/4 718/3/4
f 719/4/4 720/4/4 723/4/4
f 723/4/4 720/4/4 724/4/4
f 721/4/4 722/4/4 725/4/4
f 725/4/4 722/4/4 726/4/4
f 727/4/4 728/4/4 729/4/4
f 729/4/4 728/4/4 730/4/4
f 729/3/4 730/3/4 731/3/4
f 731/3/4 730/3/4 732/3/4
f 731/4/4 732/4/4 733/4/4
f 733/4/4 732/4/4 734/4/4
f 735/1/4 736/1/4 737/1/4
f 737/1/4 736/1/4 738/1/4
f 739/12/4 740/12/4 742/12/4
f 740/4/4 741/4/4 742/4/4
f 742/4/4 741/4/4 743/4/4
f 742/12/4 743/12/4 744/12/4
f 743/4/4 741/4/4 744/4/4
f 744/4/4 741/4/4 745/4/4
f 739/12/4 742/12/4 746/12/4
f 742/12/4 744/12/4 746/12/4
f 744/12/4 745/12/4 746/12/4
f 746/12/4 745/12/4 747/12/4
f 739/12/4 746/12/4 748/12/4
f 746/8/4 747/8/4 749/8/4
f 748/12/4 746/12/4 749/12/4
f 749/8/4 747/8/4 750/8/4
f 750/8/4 747/8/4 751/8/4
f 747/12/4 745/12/4 752/12/4
f 751/8/4 747/8/4 752/8/4
f 752/12/4 745/12/4 753/12/4
f 748/8/4 749/8/4 754/8/4
f 749/8/4 750/8/4 754/8/4
f 750/11/4 751/11/4 755/11/4
f 754/8/4 750/8/4 755/8/4
f 752/8/4 753/8/4 756/8/4
f 755/11/4 751/11/4 756/11/4
f 751/8/4 752/8/4 756/8/4
f 756/8/4 753/8/4 757/8/4
f 748/8/4 754/8/4 758/8/4
f 754/11/4 755/11/4 758/11/4
f 756/11/4 757/11/4 758/11/4
f 755/11/4 756/11/4 758/11/4
f 758/11/4 757/11/4 759/11/4
f 759/11/4 757/11/4 760/11/4
f 757/8/4 753/8/4 761/8/4
f 760/11/4 757/11/4 761/11/4
f 739/12/4 748/12/4 762/12/4
f 748/8/4 758/8/4 762/8/4
f 758/8/4 759/8/4 762/8/4
f 762/8/4 759/8/4 763/8/4
f 759/11/4 760/11/4 764/11/4
f 763/8/4 759/8/4 764/8/4
f 760/8/4 761/8/4 765/8/4
f 764/11/4 760/11/4 765/11/4
f 761/8/4 753/8/4 766/8/4
f 765/8/4 761/8/4 766/8/4
f 753/12/4 745/12/4 767/12/4
f 766/8/4 753/8/4 767/8/4
f 762/12/4 763/12/4 768/12/4
f 764/8/4 765/8/4 768/8/4
f 765/8/4 766/8/4 768/8/4
f 763/8/4 764/8/4 768/8/4
f 766/12/4 767/12/4 769/12/4
f 768/8/4 766/8/4 769/8/4
f 767/12/4 745/12/4 770/12/4
f 769/12/4 767/12/4 770/12/4
f 768/12/4 769/12/4 770/12/4
f 745/4/4 741/4/4 771/4/4
f 770/12/4 745/12/4 771/12/4
f 768/12/4 770/12/4 772/12/4
f 770/4/4 771/4/4 773/4/4
f 772/12/4 770/12/4 773/12/4
f 739/12/4 762/12/4 774/12/4
f 762/12/4 768/12/4 774/12/4
f 768/12/4 772/12/4 774/12/4
f 772/4/4 773/4/4 775/4/4
f 774/12/4 772/12/4 775/12/4
f 771/4/4 741/4/4 776/4/4
f 775/4/4 773/4/4 776/4/4
f 773/4/4 771/4/4 776/4/4
f 779/12/5 778/12/5 777/12/5
f 780/12/5 778/12/5 779/12/5
f 783/4/5 782/4/5 781/4/5
f 784/4/5 782/4/5 783/4/5
f 787/4/5 786/4/5 785/4/5
f 788/4/5 786/4/5 787/4/5
f 791/1/5 790/1/5 789/1/5
f 792/1/5 790/1/5 791/1/5
f 797/9/5 792/9/5 791/9/5
f 798/9/5 792/9/5 797/9/5
f 799/3/5 794/3/5 793/3/5
f 800/3/5 794/3/5 799/3/5
f 801/9/5 796/9/5 795/9/5
f 802/9/5 796/9/5 801/9/5
f 803/1/5 798/1/5 797/1/5
f 804/1/5 798/1/5 803/1/5
f 807/1/5 806/1/5 805/1/5
f 808/1/5 806/1/5 807/1/5
f 812/5/5 810/5/5 809/5/5
f 813/5/5 810/5/5 812/5/5
f 815/5/5 812/5/5 811/5/5
f 815/5/5 814/5/5 813/5/5
f 815/5/5 813/5/5 812/5/5
f 816/5/5 814/5/5 815/5/5
f 819/3/5 818/3/5 817/3/5
f 820/3/5 818/3/5 819/3/5
f 827/3/5 822/3/5 821/3/5
f 828/3/5 822/3/5 827/3/5
f 829/3/5 824/3/5 823/3/5
f 830/3/5 824/3/5 829/3/5
f 831/4/5 826/4/5 825/4/5
f 832/4/5 826/4/5 831/4/5
f 836/9/5 834/9/5 833/9/5
f 837/9/5 834/9/5 836/9/5
f 840/9/5 836/9/5 835/9/5
f 840/9/5 838/9/5 837/9/5
f 840/9/5 837/9/5 836/9/5
f 841/9/5 838/9/5 840/9/5
f 843/9/5 840/9/5 839/9/5
f 844/9/5 840/9/5 843/9/5
f 845/9/5 842/9/5 841/9/5
f 846/9/5 842/9/5 845/9/5
f 847/9/5 845/9/5 844/9/5
f 848/9/5 845/9/5 847/9/5
f 849/9/5 845/9/5 848/9/5
f 850/9/5 845/9/5 849/9/5
f 851/9/5 849/9/5 848/9/5
f 852/9/5 849/9/5 851/9/5
f 858/4/5 854/4/5 853/4/5
f 859/3/5 855/3/5 854/3/5
f 859/4/5 854/4/5 858/4/5
f 860/4/5 856/4/5 855/4/5
f 860/3/5 855/3/5 859/3/5
f 861/4/5 856/4/5 860/4/5
f 864/3/5 858/3/5 857/3/5
f 865/4/5 859/4/5 858/4/5
f 865/3/5 858/3/5 864/3/5
f 866/4/5 859/4/5 865/4/5
f 867/4/5 861/4/5 860/4/5
f 868/3/5 862/3/5 861/3/5
f 868/4/5 861/4/5 867/4/5
f 869/3/5 862/3/5 868/3/5
f 872/3/5 864/3/5 863/3/5
f 873/3/5 864/3/5 872/3/5
f 874/3/5 870/3/5 869/3/5
f 875/3/5 870/3/5 874/3/5
f 877/3/5 872/3/5 871/3/5
f 878/3/5 872/3/5 877/3/5
f 881/3/5 876/3/5 875/3/5
f 882/3/5 876/3/5 881/3/5
f 883/3/5 879/3/5 878/3/5
f 884/3/5 879/3/5 883/3/5
f 885/3/5 879/3/5 884/3/5
f 888/3/5 881/3/5 880/3/5
f 889/3/5 881/3/5 888/3/5
f 890/3/5 881/3/5 889/3/5
f 891/3/5 885/3/5 884/3/5
f 892/4/5 886/4/5 885/4/5
f 892/3/5 885/3/5 891/3/5
f 893/4/5 886/4/5 892/4/5
f 894/4/5 888/4/5 887/4/5
f 895/3/5 889/3/5 888/3/5
f 895/4/5 888/4/5 894/4/5
f 896/3/5 889/3/5 895/3/5
f 897/4/5 893/4/5 892/4/5
f 898/3/5 894/3/5 893/3/5
f 898/4/5 893/4/5 897/4/5
f 899/4/5 895/4/5 894/4/5
f 899/3/5 894/3/5 898/3/5
f 900/4/5 895/4/5 899/4/5
f 901/4/6 902/4/6 903/4/6
f 903/4/6 902/4/6 904/4/6
f 903/3/6 904/3/6 905/3/6
f 905/3/6 904/3/6 906/3/6
f 906/3/6 904/3/6 907/3/6
f 907/3/6 904/3/6 908/3/6
f 903/3/6 905/3/6 909/3/6
f 906/3/6 907/3/6 910/3/6
f 910/3/6 907/3/6 911/3/6
f 908/3/6 904/3/6 912/3/6
f 901/4/6 903/4/6 913/4/6
f 911/3/6 912/3/6 913/3/6
f 910/3/6 911/3/6 913/3/6
f 903/3/6 909/3/6 913/3/6
f 909/3/6 910/3/6 913/3/6
f 912/3/6 904/3/6 914/3/6
f 913/3/6 912/3/6 914/3/6
f 904/4/6 902/4/6 914/4/6
f 901/4/6 913/4/6 915/4/6
f 913/4/6 914/4/6 915/4/6
f 914/4/6 902/4/6 916/4/6
f 915/4/6 914/4/6 916/4/6
f 917/13/6 918/13/6 921/13/6
f 921/13/6 918/13/6 922/13/6
f 919/13/6 920/13/6 923/13/6
f 923/13/6 920/13/6 924/13/6
f 925/4/6 926/4/6 927/4/6
f 927/4/6 926/4/6 928/4/6
f 929/1/6 930/1/6 931/1/6
f 931/1/6 930/1/6 932/1/6
f 933/1/6 934/1/6 935/1/6
f 935/1/6 934/1/6 936/1/6
f 937/1/6 938/1/6 939/1/6
f 939/1/6 938/1/6 940/1/6
f 941/4/6 942/4/6 943/4/6
f 943/4/6 942/4/6 944/4/6
f 945/5/6 946/5/6 947/5/6
f 947/5/6 946/5/6 948/5/6
f 949/3/6 950/3/6 955/3/6
f 955/3/6 950/3/6 956/3/6
f 951/3/6 952/3/6 957/3/6
f 957/3/6 952/3/6 958/3/6
f 953/4/6 954/4/6 959/4/6
f 959/4/6 954/4/6 960/4/6
f 961/5/6 962/5/6 966/5/6
f 962/6/6 963/6/6 967/6/6
f 966/5/6 962/5/6 967/5/6
f 967/6/6 963/6/6 968/6/6
f 964/3/6 965/3/6 971/3/6
f 971/3/6 965/3/6 972/3/6
f 969/3/6 970/3/6 975/3/6
f 975/3/6 970/3/6 976/3/6
f 973/3/6 974/3/6 977/3/6
f 977/3/6 974/3/6 978/3/6
f 979/9/6 980/9/6 983/9/6
f 983/9/6 980/9/6 984/9/6
f 981/9/6 982/9/6 985/9/6
f 985/9/6 982/9/6 986/9/6
f 987/9/6 988/9/6 991/9/6
f 991/9/6 988/9/6 992/9/6
f 989/9/6 990/9/6 995/9/6
f 995/9/6 990/9/6 996/9/6
f 992/13/6 993/13/6 997/13/6
f 997/13/6 993/13/6 998/13/6
f 994/13/6 995/13/6 999/13/6
f 999/13/6 995/13/6 1000/13/6
f 1001/4/6 1002/4/6 1006/4/6
f 1002/3/6 1003/3/6 1007/3/6
f 1006/4/6 1002/4/6 1007/4/6
f 1003/4/6 1004/4/6 1008/4/6
f 1007/3/6 1003/3/6 1008/3/6
f 1008/4/6 1004/4/6 1009/4/6
f 1005/3/6 1006/3/6 1012/3/6
f 1012/3/6 1006/3/6 1013/3/6
f 1009/3/6 1010/3/6 1014/3/6
f 1014/3/6 1010/3/6 1015/3/6
f 1011/3/6 1012/3/6 1018/3/6
f 1018/3/6 1012/3/6 1019/3/6
f 1015/3/6 1016/3/6 1020/3/6
f 1020/3/6 1016/3/6 1021/3/6
f 1017/3/6 1018/3/6 1023/3/6
f 1023/3/6 1018/3/6 1024/3/6
f 1021/3/6 1022/3/6 1027/3/6
f 1027/3/6 1022/3/6 1028/3/6
f 1024/3/6 1025/3/6 1029/3/6
f 1029/3/6 1025/3/6 1030/3/6
f 1026/3/6 1027/3/6 1033/3/6
f 1033/3/6 1027/3/6 1034/3/6
f 1030/3/6 1031/3/6 1035/3/6
f 1035/3/6 1031/3/6 1036/3/6
f 1032/3/6 1033/3/6 1039/3/6
f 1039/3/6 1033/3/6 1040/3/6
f 1036/4/6 1037/4/6 1041/4/6
f 1037/3/6 1038/3/6 1042/3/6
f 1041/4/6 1037/4/6 1042/4/6
f 1038/4/6 1039/4/6 1043/4/6
f 1042/3/6 1038/3/6 1043/3/6
f 1043/4/6 1039/4/6 1044/4/6
f 1045/4/6 1046/4/6 1050/4/6
f 1046/3/6 1047/3/6 1051/3/6
f 1050/4/6 1046/4/6 1051/4/6
f 1047/4/6 1048/4/6 1052/4/6
f 1051/3/6 1047/3/6 1052/3/6
f 1052/4/6 1048/4/6 1053/4/6
f 1049/3/6 1050/3/6 1056/3/6
f 1056/3/6 1050/3/6 1057/3/6
f 1053/3/6 1054/3/6 1058/3/6
f 1058/3/6 1054/3/6 1059/3/6
f 1055/3/6 1056/3/6 1061/3/6
f 1061/3/6 1056/3/6 1062/3/6
f 1059/3/6 1060/3/6 1065/3/6
f 1065/3/6 1060/3/6 1066/3/6
f 1062/3/6 1063/3/6 1067/3/6
f 1067/3/6 1063/3/6 1068/3/6
f 1064/3/6 1065/3/6 1071/3/6
f 1071/3/6 1065/3/6 1072/3/6
f 1068/4/6 1069/4/6 1073/4/6
f 1073/4/6 1069/4/6 1074/4/6
f 1070/4/6 1071/4/6 1075/4/6
f 1075/4/6 1071/4/6 1076/4/6
f 1077/4/6 1078/4/6 1082/4/6
f 1078/3/6 1079/3/6 1083/3/6
f 1082/4/6 1078/4/6 1083/4/6
f 1079/4/6 1080/4/6 1084/4/6
f 1083/3/6 1079/3/6 1084/3/6
f 1084/4/6 1080/4/6 1085/4/6
f 1081/3/6 1082/3/6 1087/3/6
f 1082/4/6 1083/4/6 1088/4/6
f 1087/3/6 1082/3/6 1088/3/6
f 1088/4/6 1083/4/6 1089/4/6
f 1084/4/6 1085/4/6 1090/4/6
f 1085/3/6 1086/3/6 1091/3/6
f 1090/4/6 1085/4/6 1091/4/6
f 1091/3/6 1086/3/6 1092/3/6
f 1088/4/6 1089/4/6 1093/4/6
f 1089/3/6 1090/3/6 1094/3/6
f 1093/4/6 1089/4/6 1094/4/6
f 1094/3/6 1090/3/6 1095/3/6
f 1090/4/6 1091/4/6 1096/4/6
f 1095/3/6 1090/3/6 1096/3/6
f 1096/4/6 1091/4/6 1097/4/6
f 1094/10/6 1095/10/6 1098/10/6
f 1095/9/6 1096/9/6 1099/9/6
f 1098/10/6 1095/10/6 1099/10/6
f 1099/9/6 1096/9/6 1100/9/6
f 1101/3/6 1102/3/6 1103/3/6
f 1103/3/6 1102/3/6 1104/3/6
