# MagicaVoxel @ Ephtracy

# group
o 

# material
mtllib Seller.mtl
usemtl palette

# normals
vn -1 0 0
vn 1 0 0
vn 0 0 1
vn 0 0 -1
vn 0 -1 0
vn 0 1 0

# texcoords
vt 0.146484 0.5
vt 0.607422 0.5
vt 0.697266 0.5
vt 0.982422 0.5
vt 0.990234 0.5

# verts
v -0.8 0 0.8
v -0.8 0 -0.8
v -0.8 0.5 0.2
v -0.8 0.5 -0.2
v -0.8 0.6 0.3
v -0.8 0.6 0.2
v -0.8 0.6 0.1
v -0.8 0.6 -0.1
v -0.8 0.6 -0.2
v -0.8 0.6 -0.3
v -0.8 0.7 0.2
v -0.8 0.7 0.1
v -0.8 0.7 -0.1
v -0.8 0.7 -0.2
v -0.8 0.9 0.2
v -0.8 0.9 0.1
v -0.8 0.9 -0.1
v -0.8 0.9 -0.2
v -0.8 1 0.3
v -0.8 1 0.2
v -0.8 1 0.1
v -0.8 1 -0.1
v -0.8 1 -0.2
v -0.8 1 -0.3
v -0.8 1.1 0.2
v -0.8 1.1 -0.2
v -0.8 1.5 0.8
v -0.8 1.5 -0.8
v -0.8 1.6 0.8
v -0.8 1.6 -0.8
v 0.8 0 0.8
v 0.8 0 -0.8
v 0.8 0.5 0.2
v 0.8 0.5 -0.2
v 0.8 0.6 0.3
v 0.8 0.6 0.2
v 0.8 0.6 0.1
v 0.8 0.6 -0.1
v 0.8 0.6 -0.2
v 0.8 0.6 -0.3
v 0.8 0.7 0.2
v 0.8 0.7 0.1
v 0.8 0.7 -0.1
v 0.8 0.7 -0.2
v 0.8 0.9 0.2
v 0.8 0.9 0.1
v 0.8 0.9 -0.1
v 0.8 0.9 -0.2
v 0.8 1 0.3
v 0.8 1 0.2
v 0.8 1 0.1
v 0.8 1 -0.1
v 0.8 1 -0.2
v 0.8 1 -0.3
v 0.8 1.1 0.2
v 0.8 1.1 -0.2
v 0.8 1.5 0.8
v 0.8 1.5 -0.8
v 0.8 1.6 0.8
v 0.8 1.6 -0.8
v -0.8 0 0.8
v -0.8 1.5 0.8
v -0.8 1.6 0.8
v -0.3 0.6 0.8
v -0.3 1 0.8
v -0.2 0.5 0.8
v -0.2 0.6 0.8
v -0.2 0.7 0.8
v -0.2 0.9 0.8
v -0.2 1 0.8
v -0.2 1.1 0.8
v -0.1 0.6 0.8
v -0.1 0.7 0.8
v -0.1 0.9 0.8
v -0.1 1 0.8
v 0.1 0.6 0.8
v 0.1 0.7 0.8
v 0.1 0.9 0.8
v 0.1 1 0.8
v 0.2 0.5 0.8
v 0.2 0.6 0.8
v 0.2 0.7 0.8
v 0.2 0.9 0.8
v 0.2 1 0.8
v 0.2 1.1 0.8
v 0.3 0.6 0.8
v 0.3 1 0.8
v 0.8 0 0.8
v 0.8 1.5 0.8
v 0.8 1.6 0.8
v -0.8 0 -0.8
v -0.8 1.5 -0.8
v -0.8 1.6 -0.8
v -0.3 0.6 -0.8
v -0.3 1 -0.8
v -0.2 0.5 -0.8
v -0.2 0.6 -0.8
v -0.2 0.7 -0.8
v -0.2 0.9 -0.8
v -0.2 1 -0.8
v -0.2 1.1 -0.8
v -0.1 0.6 -0.8
v -0.1 0.7 -0.8
v -0.1 0.9 -0.8
v -0.1 1 -0.8
v 0.1 0.6 -0.8
v 0.1 0.7 -0.8
v 0.1 0.9 -0.8
v 0.1 1 -0.8
v 0.2 0.5 -0.8
v 0.2 0.6 -0.8
v 0.2 0.7 -0.8
v 0.2 0.9 -0.8
v 0.2 1 -0.8
v 0.2 1.1 -0.8
v 0.3 0.6 -0.8
v 0.3 1 -0.8
v 0.8 0 -0.8
v 0.8 1.5 -0.8
v 0.8 1.6 -0.8
v -0.8 0 0.8
v 0.8 0 0.8
v -0.8 0 -0.8
v 0.8 0 -0.8
v -0.8 1.6 0.8
v 0.8 1.6 0.8
v -0.7 1.6 0.7
v -0.3 1.6 0.7
v -0.2 1.6 0.7
v 0 1.6 0.7
v 0.1 1.6 0.7
v 0.7 1.6 0.7
v -0.4 1.6 0.6
v -0.3 1.6 0.6
v -0.2 1.6 0.6
v 0 1.6 0.6
v 0.1 1.6 0.6
v 0.3 1.6 0.6
v -0.5 1.6 0.5
v -0.4 1.6 0.5
v -0.3 1.6 0.5
v -0.2 1.6 0.5
v 0 1.6 0.5
v 0.1 1.6 0.5
v 0.3 1.6 0.5
v 0.4 1.6 0.5
v -0.6 1.6 0.4
v -0.5 1.6 0.4
v -0.4 1.6 0.4
v 0.3 1.6 0.4
v 0.4 1.6 0.4
v 0.5 1.6 0.4
v -0.6 1.6 0.3
v -0.5 1.6 0.3
v -0.3 1.6 0.3
v -0.2 1.6 0.3
v -0.1 1.6 0.3
v 0 1.6 0.3
v 0.1 1.6 0.3
v 0.2 1.6 0.3
v 0.3 1.6 0.3
v 0.4 1.6 0.3
v 0.5 1.6 0.3
v -0.1 1.6 0.2
v 0.1 1.6 0.2
v 0.2 1.6 0.2
v 0.3 1.6 0.2
v 0.4 1.6 0.2
v -0.4 1.6 0.1
v -0.2 1.6 0.1
v -0.1 1.6 0.1
v 0.1 1.6 0.1
v 0.2 1.6 0.1
v 0.3 1.6 0.1
v -0.5 1.6 0
v -0.4 1.6 0
v -0.2 1.6 0
v -0.6 1.6 -0.1
v -0.5 1.6 -0.1
v -0.4 1.6 -0.1
v -0.6 1.6 -0.3
v -0.5 1.6 -0.3
v -0.4 1.6 -0.3
v -0.2 1.6 -0.3
v -0.1 1.6 -0.3
v 0 1.6 -0.3
v 0.1 1.6 -0.3
v 0.2 1.6 -0.3
v 0.3 1.6 -0.3
v 0.5 1.6 -0.3
v 0.6 1.6 -0.3
v -0.5 1.6 -0.4
v -0.4 1.6 -0.4
v -0.2 1.6 -0.4
v 0.4 1.6 -0.4
v 0.5 1.6 -0.4
v 0.6 1.6 -0.4
v -0.4 1.6 -0.5
v -0.2 1.6 -0.5
v -0.1 1.6 -0.5
v 0 1.6 -0.5
v 0.2 1.6 -0.5
v 0.3 1.6 -0.5
v 0.4 1.6 -0.5
v 0.5 1.6 -0.5
v -0.2 1.6 -0.6
v -0.1 1.6 -0.6
v 0 1.6 -0.6
v 0.2 1.6 -0.6
v 0.3 1.6 -0.6
v 0.4 1.6 -0.6
v -0.7 1.6 -0.7
v -0.1 1.6 -0.7
v 0 1.6 -0.7
v 0.2 1.6 -0.7
v 0.3 1.6 -0.7
v 0.7 1.6 -0.7
v -0.8 1.6 -0.8
v 0.8 1.6 -0.8

# faces
f 3/5/1 2/5/1 1/5/1
f 4/5/1 2/5/1 3/5/1
f 5/5/1 3/5/1 1/5/1
f 6/1/1 4/1/1 3/1/1
f 6/5/1 3/5/1 5/5/1
f 7/1/1 4/1/1 6/1/1
f 8/1/1 4/1/1 7/1/1
f 9/5/1 2/5/1 4/5/1
f 9/1/1 4/1/1 8/1/1
f 10/5/1 2/5/1 9/5/1
f 11/1/1 6/1/1 5/1/1
f 11/1/1 7/1/1 6/1/1
f 12/4/1 8/4/1 7/4/1
f 12/1/1 7/1/1 11/1/1
f 13/1/1 10/1/1 9/1/1
f 13/4/1 8/4/1 12/4/1
f 13/1/1 9/1/1 8/1/1
f 14/1/1 10/1/1 13/1/1
f 15/1/1 11/1/1 5/1/1
f 15/4/1 12/4/1 11/4/1
f 15/4/1 14/4/1 13/4/1
f 15/4/1 13/4/1 12/4/1
f 16/4/1 14/4/1 15/4/1
f 17/4/1 14/4/1 16/4/1
f 18/1/1 10/1/1 14/1/1
f 18/4/1 14/4/1 17/4/1
f 19/5/1 5/5/1 1/5/1
f 19/1/1 15/1/1 5/1/1
f 19/1/1 16/1/1 15/1/1
f 20/1/1 16/1/1 19/1/1
f 21/4/1 17/4/1 16/4/1
f 21/1/1 16/1/1 20/1/1
f 22/1/1 18/1/1 17/1/1
f 22/4/1 17/4/1 21/4/1
f 23/1/1 10/1/1 18/1/1
f 23/1/1 18/1/1 22/1/1
f 24/5/1 2/5/1 10/5/1
f 24/1/1 10/1/1 23/1/1
f 25/5/1 20/5/1 19/5/1
f 25/1/1 22/1/1 21/1/1
f 25/1/1 23/1/1 22/1/1
f 25/1/1 21/1/1 20/1/1
f 26/5/1 24/5/1 23/5/1
f 26/1/1 23/1/1 25/1/1
f 27/5/1 25/5/1 19/5/1
f 27/5/1 19/5/1 1/5/1
f 27/5/1 26/5/1 25/5/1
f 28/5/1 2/5/1 24/5/1
f 28/5/1 26/5/1 27/5/1
f 28/5/1 24/5/1 26/5/1
f 29/2/1 28/2/1 27/2/1
f 30/2/1 28/2/1 29/2/1
f 31/5/2 32/5/2 33/5/2
f 33/5/2 32/5/2 34/5/2
f 31/5/2 33/5/2 35/5/2
f 33/1/2 34/1/2 36/1/2
f 35/5/2 33/5/2 36/5/2
f 36/1/2 34/1/2 37/1/2
f 37/1/2 34/1/2 38/1/2
f 34/5/2 32/5/2 39/5/2
f 38/1/2 34/1/2 39/1/2
f 39/5/2 32/5/2 40/5/2
f 35/1/2 36/1/2 41/1/2
f 36/1/2 37/1/2 41/1/2
f 37/4/2 38/4/2 42/4/2
f 41/1/2 37/1/2 42/1/2
f 39/1/2 40/1/2 43/1/2
f 42/4/2 38/4/2 43/4/2
f 38/1/2 39/1/2 43/1/2
f 43/1/2 40/1/2 44/1/2
f 35/1/2 41/1/2 45/1/2
f 41/4/2 42/4/2 45/4/2
f 43/4/2 44/4/2 45/4/2
f 42/4/2 43/4/2 45/4/2
f 45/4/2 44/4/2 46/4/2
f 46/4/2 44/4/2 47/4/2
f 44/1/2 40/1/2 48/1/2
f 47/4/2 44/4/2 48/4/2
f 31/5/2 35/5/2 49/5/2
f 35/1/2 45/1/2 49/1/2
f 45/1/2 46/1/2 49/1/2
f 49/1/2 46/1/2 50/1/2
f 46/4/2 47/4/2 51/4/2
f 50/1/2 46/1/2 51/1/2
f 47/1/2 48/1/2 52/1/2
f 51/4/2 47/4/2 52/4/2
f 48/1/2 40/1/2 53/1/2
f 52/1/2 48/1/2 53/1/2
f 40/5/2 32/5/2 54/5/2
f 53/1/2 40/1/2 54/1/2
f 49/5/2 50/5/2 55/5/2
f 51/1/2 52/1/2 55/1/2
f 52/1/2 53/1/2 55/1/2
f 50/1/2 51/1/2 55/1/2
f 53/5/2 54/5/2 56/5/2
f 55/1/2 53/1/2 56/1/2
f 49/5/2 55/5/2 57/5/2
f 31/5/2 49/5/2 57/5/2
f 55/5/2 56/5/2 57/5/2
f 54/5/2 32/5/2 58/5/2
f 57/5/2 56/5/2 58/5/2
f 56/5/2 54/5/2 58/5/2
f 57/2/2 58/2/2 59/2/2
f 59/2/2 58/2/2 60/2/2
f 64/5/3 62/5/3 61/5/3
f 65/5/3 62/5/3 64/5/3
f 66/5/3 64/5/3 61/5/3
f 67/1/3 65/1/3 64/1/3
f 67/5/3 64/5/3 66/5/3
f 68/1/3 65/1/3 67/1/3
f 69/1/3 65/1/3 68/1/3
f 70/5/3 62/5/3 65/5/3
f 70/1/3 65/1/3 69/1/3
f 71/5/3 62/5/3 70/5/3
f 72/1/3 67/1/3 66/1/3
f 72/1/3 68/1/3 67/1/3
f 73/4/3 69/4/3 68/4/3
f 73/1/3 68/1/3 72/1/3
f 74/1/3 71/1/3 70/1/3
f 74/4/3 69/4/3 73/4/3
f 74/1/3 70/1/3 69/1/3
f 75/1/3 71/1/3 74/1/3
f 76/1/3 72/1/3 66/1/3
f 76/4/3 73/4/3 72/4/3
f 76/4/3 75/4/3 74/4/3
f 76/4/3 74/4/3 73/4/3
f 77/4/3 75/4/3 76/4/3
f 78/4/3 75/4/3 77/4/3
f 79/1/3 71/1/3 75/1/3
f 79/4/3 75/4/3 78/4/3
f 80/5/3 66/5/3 61/5/3
f 80/1/3 76/1/3 66/1/3
f 80/1/3 77/1/3 76/1/3
f 81/1/3 77/1/3 80/1/3
f 82/4/3 78/4/3 77/4/3
f 82/1/3 77/1/3 81/1/3
f 83/1/3 79/1/3 78/1/3
f 83/4/3 78/4/3 82/4/3
f 84/1/3 71/1/3 79/1/3
f 84/1/3 79/1/3 83/1/3
f 85/5/3 62/5/3 71/5/3
f 85/1/3 71/1/3 84/1/3
f 86/5/3 81/5/3 80/5/3
f 86/1/3 83/1/3 82/1/3
f 86/1/3 84/1/3 83/1/3
f 86/1/3 82/1/3 81/1/3
f 87/5/3 85/5/3 84/5/3
f 87/1/3 84/1/3 86/1/3
f 88/5/3 86/5/3 80/5/3
f 88/5/3 80/5/3 61/5/3
f 88/5/3 87/5/3 86/5/3
f 89/2/3 63/2/3 62/2/3
f 89/5/3 87/5/3 88/5/3
f 89/5/3 62/5/3 85/5/3
f 89/5/3 85/5/3 87/5/3
f 90/2/3 63/2/3 89/2/3
f 91/5/4 92/5/4 94/5/4
f 94/5/4 92/5/4 95/5/4
f 91/5/4 94/5/4 96/5/4
f 94/1/4 95/1/4 97/1/4
f 96/5/4 94/5/4 97/5/4
f 97/1/4 95/1/4 98/1/4
f 98/1/4 95/1/4 99/1/4
f 95/5/4 92/5/4 100/5/4
f 99/1/4 95/1/4 100/1/4
f 100/5/4 92/5/4 101/5/4
f 96/1/4 97/1/4 102/1/4
f 97/1/4 98/1/4 102/1/4
f 98/4/4 99/4/4 103/4/4
f 102/1/4 98/1/4 103/1/4
f 100/1/4 101/1/4 104/1/4
f 103/4/4 99/4/4 104/4/4
f 99/1/4 100/1/4 104/1/4
f 104/1/4 101/1/4 105/1/4
f 96/1/4 102/1/4 106/1/4
f 102/4/4 103/4/4 106/4/4
f 104/4/4 105/4/4 106/4/4
f 103/4/4 104/4/4 106/4/4
f 106/4/4 105/4/4 107/4/4
f 107/4/4 105/4/4 108/4/4
f 105/1/4 101/1/4 109/1/4
f 108/4/4 105/4/4 109/4/4
f 91/5/4 96/5/4 110/5/4
f 96/1/4 106/1/4 110/1/4
f 106/1/4 107/1/4 110/1/4
f 110/1/4 107/1/4 111/1/4
f 107/4/4 108/4/4 112/4/4
f 111/1/4 107/1/4 112/1/4
f 108/1/4 109/1/4 113/1/4
f 112/4/4 108/4/4 113/4/4
f 109/1/4 101/1/4 114/1/4
f 113/1/4 109/1/4 114/1/4
f 101/5/4 92/5/4 115/5/4
f 114/1/4 101/1/4 115/1/4
f 110/5/4 111/5/4 116/5/4
f 112/1/4 113/1/4 116/1/4
f 113/1/4 114/1/4 116/1/4
f 111/1/4 112/1/4 116/1/4
f 114/5/4 115/5/4 117/5/4
f 116/1/4 114/1/4 117/1/4
f 110/5/4 116/5/4 118/5/4
f 91/5/4 110/5/4 118/5/4
f 116/5/4 117/5/4 118/5/4
f 92/2/4 93/2/4 119/2/4
f 118/5/4 117/5/4 119/5/4
f 115/5/4 92/5/4 119/5/4
f 117/5/4 115/5/4 119/5/4
f 119/2/4 93/2/4 120/2/4
f 123/5/5 122/5/5 121/5/5
f 124/5/5 122/5/5 123/5/5
f 125/2/6 126/2/6 127/2/6
f 127/2/6 126/2/6 128/2/6
f 128/2/6 126/2/6 129/2/6
f 129/2/6 126/2/6 130/2/6
f 130/2/6 126/2/6 131/2/6
f 131/2/6 126/2/6 132/2/6
f 127/3/6 128/3/6 133/3/6
f 128/2/6 129/2/6 134/2/6
f 133/3/6 128/3/6 134/3/6
f 129/3/6 130/3/6 135/3/6
f 134/2/6 129/2/6 135/2/6
f 130/2/6 131/2/6 136/2/6
f 135/3/6 130/3/6 136/3/6
f 131/3/6 132/3/6 137/3/6
f 136/2/6 131/2/6 137/2/6
f 137/3/6 132/3/6 138/3/6
f 127/3/6 133/3/6 139/3/6
f 133/2/6 134/2/6 140/2/6
f 139/3/6 133/3/6 140/3/6
f 134/2/6 135/2/6 140/2/6
f 137/2/6 138/2/6 140/2/6
f 136/2/6 137/2/6 140/2/6
f 135/2/6 136/2/6 140/2/6
f 140/2/6 138/2/6 141/2/6
f 141/2/6 138/2/6 142/2/6
f 142/2/6 138/2/6 143/2/6
f 143/2/6 138/2/6 144/2/6
f 138/3/6 132/3/6 145/3/6
f 144/2/6 138/2/6 145/2/6
f 145/3/6 132/3/6 146/3/6
f 127/3/6 139/3/6 147/3/6
f 139/2/6 140/2/6 148/2/6
f 147/3/6 139/3/6 148/3/6
f 140/3/6 141/3/6 149/3/6
f 148/2/6 140/2/6 149/2/6
f 144/3/6 145/3/6 150/3/6
f 145/2/6 146/2/6 150/2/6
f 146/3/6 132/3/6 151/3/6
f 150/2/6 146/2/6 151/2/6
f 151/3/6 132/3/6 152/3/6
f 127/3/6 147/3/6 153/3/6
f 147/2/6 148/2/6 153/2/6
f 148/3/6 149/3/6 154/3/6
f 153/2/6 148/2/6 154/2/6
f 141/2/6 142/2/6 155/2/6
f 154/3/6 149/3/6 155/3/6
f 149/3/6 141/3/6 155/3/6
f 142/3/6 143/3/6 156/3/6
f 155/2/6 142/2/6 156/2/6
f 156/3/6 143/3/6 157/3/6
f 143/2/6 144/2/6 158/2/6
f 157/3/6 143/3/6 158/3/6
f 144/3/6 150/3/6 159/3/6
f 158/2/6 144/2/6 159/2/6
f 150/3/6 151/3/6 159/3/6
f 159/3/6 151/3/6 160/3/6
f 160/3/6 151/3/6 161/3/6
f 151/2/6 152/2/6 162/2/6
f 161/3/6 151/3/6 162/3/6
f 152/3/6 132/3/6 163/3/6
f 162/2/6 152/2/6 163/2/6
f 156/2/6 157/2/6 164/2/6
f 157/3/6 158/3/6 164/3/6
f 158/3/6 159/3/6 164/3/6
f 159/2/6 160/2/6 165/2/6
f 164/3/6 159/3/6 165/3/6
f 160/3/6 161/3/6 166/3/6
f 165/2/6 160/2/6 166/2/6
f 161/2/6 162/2/6 167/2/6
f 166/3/6 161/3/6 167/3/6
f 162/3/6 163/3/6 168/3/6
f 167/2/6 162/2/6 168/2/6
f 153/3/6 154/3/6 169/3/6
f 154/3/6 155/3/6 169/3/6
f 155/3/6 156/3/6 169/3/6
f 166/2/6 167/2/6 170/2/6
f 169/3/6 156/3/6 170/3/6
f 165/2/6 166/2/6 170/2/6
f 164/2/6 165/2/6 170/2/6
f 156/2/6 164/2/6 170/2/6
f 170/2/6 167/2/6 171/2/6
f 171/2/6 167/2/6 172/2/6
f 172/2/6 167/2/6 173/2/6
f 167/3/6 168/3/6 174/3/6
f 173/2/6 167/2/6 174/2/6
f 153/3/6 169/3/6 175/3/6
f 169/2/6 170/2/6 176/2/6
f 175/3/6 169/3/6 176/3/6
f 170/2/6 171/2/6 176/2/6
f 176/2/6 171/2/6 177/2/6
f 127/3/6 153/3/6 178/3/6
f 153/3/6 175/3/6 178/3/6
f 175/2/6 176/2/6 179/2/6
f 178/3/6 175/3/6 179/3/6
f 176/3/6 177/3/6 180/3/6
f 179/2/6 176/2/6 180/2/6
f 178/2/6 179/2/6 181/2/6
f 127/3/6 178/3/6 181/3/6
f 179/3/6 180/3/6 182/3/6
f 181/2/6 179/2/6 182/2/6
f 180/3/6 177/3/6 183/3/6
f 182/3/6 180/3/6 183/3/6
f 177/2/6 171/2/6 184/2/6
f 183/3/6 177/3/6 184/3/6
f 171/3/6 172/3/6 185/3/6
f 184/2/6 171/2/6 185/2/6
f 185/3/6 172/3/6 186/3/6
f 172/2/6 173/2/6 187/2/6
f 186/3/6 172/3/6 187/3/6
f 173/3/6 174/3/6 188/3/6
f 187/2/6 173/2/6 188/2/6
f 174/3/6 168/3/6 189/3/6
f 188/3/6 174/3/6 189/3/6
f 163/3/6 132/3/6 190/3/6
f 189/3/6 168/3/6 190/3/6
f 168/3/6 163/3/6 190/3/6
f 190/3/6 132/3/6 191/3/6
f 182/2/6 183/2/6 192/2/6
f 181/3/6 182/3/6 192/3/6
f 184/3/6 185/3/6 193/3/6
f 192/2/6 183/2/6 193/2/6
f 183/3/6 184/3/6 193/3/6
f 193/3/6 185/3/6 194/3/6
f 189/3/6 190/3/6 195/3/6
f 190/2/6 191/2/6 196/2/6
f 195/3/6 190/3/6 196/3/6
f 191/3/6 132/3/6 197/3/6
f 196/2/6 191/2/6 197/2/6
f 192/3/6 193/3/6 198/3/6
f 193/2/6 194/2/6 198/2/6
f 194/3/6 185/3/6 199/3/6
f 198/2/6 194/2/6 199/2/6
f 185/2/6 186/2/6 200/2/6
f 199/3/6 185/3/6 200/3/6
f 187/3/6 188/3/6 201/3/6
f 200/2/6 186/2/6 201/2/6
f 186/3/6 187/3/6 201/3/6
f 188/2/6 189/2/6 202/2/6
f 201/3/6 188/3/6 202/3/6
f 189/3/6 195/3/6 203/3/6
f 202/2/6 189/2/6 203/2/6
f 195/2/6 196/2/6 204/2/6
f 203/3/6 195/3/6 204/3/6
f 196/3/6 197/3/6 205/3/6
f 204/2/6 196/2/6 205/2/6
f 200/2/6 201/2/6 206/2/6
f 199/2/6 200/2/6 206/2/6
f 202/2/6 203/2/6 206/2/6
f 198/3/6 199/3/6 206/3/6
f 201/2/6 202/2/6 206/2/6
f 203/2/6 204/2/6 206/2/6
f 206/2/6 204/2/6 207/2/6
f 207/2/6 204/2/6 208/2/6
f 208/2/6 204/2/6 209/2/6
f 209/2/6 204/2/6 210/2/6
f 204/3/6 205/3/6 211/3/6
f 210/2/6 204/2/6 211/2/6
f 125/2/6 127/2/6 212/2/6
f 127/3/6 181/3/6 212/3/6
f 181/3/6 192/3/6 212/3/6
f 192/3/6 198/3/6 212/3/6
f 198/3/6 206/3/6 212/3/6
f 206/3/6 207/3/6 212/3/6
f 207/2/6 208/2/6 213/2/6
f 212/3/6 207/3/6 213/3/6
f 208/3/6 209/3/6 214/3/6
f 213/2/6 208/2/6 214/2/6
f 209/2/6 210/2/6 215/2/6
f 214/3/6 209/3/6 215/3/6
f 210/3/6 211/3/6 216/3/6
f 215/2/6 210/2/6 216/2/6
f 211/3/6 205/3/6 217/3/6
f 216/3/6 211/3/6 217/3/6
f 132/2/6 126/2/6 217/2/6
f 205/3/6 197/3/6 217/3/6
f 197/3/6 132/3/6 217/3/6
f 215/2/6 216/2/6 218/2/6
f 125/2/6 212/2/6 218/2/6
f 216/2/6 217/2/6 218/2/6
f 214/2/6 215/2/6 218/2/6
f 213/2/6 214/2/6 218/2/6
f 212/2/6 213/2/6 218/2/6
f 217/2/6 126/2/6 219/2/6
f 218/2/6 217/2/6 219/2/6
