# MagicaVoxel @ Ephtracy

# group
o 

# material
mtllib WireFabricator.mtl
usemtl palette

# normals
vn -1 0 0
vn 1 0 0
vn 0 0 1
vn 0 0 -1
vn 0 -1 0
vn 0 1 0

# texcoords
vt 0.146484 0.5
vt 0.583984 0.5
vt 0.771484 0.5
vt 0.962891 0.5
vt 0.982422 0.5
vt 0.986328 0.5
vt 0.990234 0.5

# verts
v -0.8 0 0.8
v -0.8 0 -0.8
v -0.8 0.5 0.2
v -0.8 0.5 -0.2
v -0.8 0.6 0.3
v -0.8 0.6 0.2
v -0.8 0.6 0.1
v -0.8 0.6 -0.1
v -0.8 0.6 -0.2
v -0.8 0.6 -0.3
v -0.8 0.7 0.2
v -0.8 0.7 0.1
v -0.8 0.7 -0.1
v -0.8 0.7 -0.2
v -0.8 0.9 0.2
v -0.8 0.9 0.1
v -0.8 0.9 -0.1
v -0.8 0.9 -0.2
v -0.8 1 0.3
v -0.8 1 0.2
v -0.8 1 0.1
v -0.8 1 -0.1
v -0.8 1 -0.2
v -0.8 1 -0.3
v -0.8 1.1 0.2
v -0.8 1.1 -0.2
v -0.8 1.4 0.8
v -0.8 1.4 -0.8
v -0.8 1.5 0.7
v -0.8 1.5 -0.7
v -0.8 1.6 0.8
v -0.8 1.6 0.7
v -0.8 1.6 -0.7
v -0.8 1.6 -0.8
v -0.7 1.5 0.6
v -0.7 1.5 0.5
v -0.7 1.5 -0.5
v -0.7 1.5 -0.6
v -0.7 1.6 0.6
v -0.7 1.6 0.5
v -0.7 1.6 -0.5
v -0.7 1.6 -0.6
v -0.6 1.5 0.7
v -0.6 1.5 0.6
v -0.6 1.5 0.5
v -0.6 1.5 0.4
v -0.6 1.5 -0.4
v -0.6 1.5 -0.5
v -0.6 1.5 -0.6
v -0.6 1.5 -0.7
v -0.6 1.6 0.7
v -0.6 1.6 0.6
v -0.6 1.6 0.5
v -0.6 1.6 0.4
v -0.6 1.6 -0.4
v -0.6 1.6 -0.5
v -0.6 1.6 -0.6
v -0.6 1.6 -0.7
v -0.6 2.2 0.6
v -0.6 2.2 0.5
v -0.6 2.3 -0.5
v -0.6 2.3 -0.6
v -0.5 2.2 0.5
v -0.5 2.2 0.4
v -0.5 2.3 0.5
v -0.5 2.3 0.4
v -0.5 2.3 -0.4
v -0.5 2.3 -0.5
v -0.5 2.4 -0.4
v -0.5 2.4 -0.5
v -0.4 2.3 0.4
v -0.4 2.3 0.3
v -0.4 2.4 0.4
v -0.4 2.4 0.3
v -0.4 2.4 -0.3
v -0.4 2.4 -0.4
v -0.4 2.5 -0.3
v -0.4 2.5 -0.4
v -0.3 2 0.3
v -0.3 2 0.2
v -0.3 2.1 -0.2
v -0.3 2.1 -0.3
v -0.3 2.2 0.3
v -0.3 2.2 0.2
v -0.3 2.3 0.3
v -0.3 2.3 0.2
v -0.3 2.3 -0.2
v -0.3 2.3 -0.3
v -0.3 2.4 -0.2
v -0.3 2.4 -0.3
v 0.2 1.4 0.5
v 0.2 1.4 0.4
v 0.2 1.4 -0.4
v 0.2 1.4 -0.5
v 0.2 1.5 0.5
v 0.2 1.5 0.4
v 0.2 1.5 -0.4
v 0.2 1.5 -0.5
v 0.2 2.1 0.1
v 0.2 2.1 0
v 0.2 2.3 0.1
v 0.2 2.3 0
v 0.2 2.4 0.1
v 0.2 2.4 0
v 0.3 1.4 0.4
v 0.3 1.4 0.3
v 0.3 1.4 -0.3
v 0.3 1.4 -0.4
v 0.3 1.5 0.4
v 0.3 1.5 0.3
v 0.3 1.5 -0.3
v 0.3 1.5 -0.4
v 0.3 2.4 0
v 0.3 2.4 -0.1
v 0.3 2.5 0
v 0.3 2.5 -0.1
v 0.4 1.4 0.3
v 0.4 1.4 0.2
v 0.4 1.4 -0.2
v 0.4 1.4 -0.3
v 0.4 1.5 0.3
v 0.4 1.5 0.2
v 0.4 1.5 -0.2
v 0.4 1.5 -0.3
v 0.4 1.6 -0.2
v 0.4 1.6 -0.3
v 0.4 2.3 -0.1
v 0.4 2.3 -0.2
v 0.4 2.4 -0.1
v 0.4 2.4 -0.2
v 0.5 1.4 0.2
v 0.5 1.4 -0.2
v 0.5 1.5 0.2
v 0.5 1.5 -0.1
v 0.5 1.5 -0.2
v 0.5 1.5 -0.3
v 0.5 1.5 -0.4
v 0.5 1.6 -0.1
v 0.5 1.6 -0.2
v 0.5 1.6 -0.3
v 0.5 1.6 -0.4
v 0.5 2.3 -0.2
v 0.5 2.3 -0.3
v 0.7 1.5 0.8
v 0.7 1.5 0.7
v 0.7 1.5 -0.7
v 0.7 1.5 -0.8
v 0.7 1.6 0.8
v 0.7 1.6 0.7
v 0.7 1.6 -0.7
v 0.7 1.6 -0.8
v -0.7 1.5 0.8
v -0.7 1.5 0.7
v -0.7 1.5 -0.7
v -0.7 1.5 -0.8
v -0.7 1.6 0.8
v -0.7 1.6 0.7
v -0.7 1.6 -0.7
v -0.7 1.6 -0.8
v -0.5 1.4 0.2
v -0.5 1.4 -0.2
v -0.5 1.5 0.7
v -0.5 1.5 0.6
v -0.5 1.5 0.5
v -0.5 1.5 0.4
v -0.5 1.5 0.2
v -0.5 1.5 -0.2
v -0.5 1.5 -0.4
v -0.5 1.5 -0.5
v -0.5 1.5 -0.6
v -0.5 1.5 -0.7
v -0.5 1.6 0.7
v -0.5 1.6 0.6
v -0.5 1.6 0.5
v -0.5 1.6 0.4
v -0.5 1.6 -0.4
v -0.5 1.6 -0.5
v -0.5 1.6 -0.6
v -0.5 1.6 -0.7
v -0.5 2.2 0.6
v -0.5 2.2 0.5
v -0.5 2.3 -0.5
v -0.5 2.3 -0.6
v -0.4 1.4 0.3
v -0.4 1.4 0.2
v -0.4 1.4 -0.2
v -0.4 1.4 -0.3
v -0.4 1.5 0.6
v -0.4 1.5 0.5
v -0.4 1.5 0.3
v -0.4 1.5 0.2
v -0.4 1.5 -0.2
v -0.4 1.5 -0.3
v -0.4 1.5 -0.5
v -0.4 1.5 -0.6
v -0.4 1.6 0.6
v -0.4 1.6 0.5
v -0.4 1.6 -0.5
v -0.4 1.6 -0.6
v -0.4 2.2 0.5
v -0.4 2.2 0.4
v -0.4 2.3 0.5
v -0.4 2.3 0.4
v -0.4 2.3 -0.4
v -0.4 2.3 -0.5
v -0.4 2.4 -0.4
v -0.4 2.4 -0.5
v -0.3 1.4 0.4
v -0.3 1.4 0.3
v -0.3 1.4 -0.3
v -0.3 1.4 -0.4
v -0.3 1.5 0.4
v -0.3 1.5 0.3
v -0.3 1.5 -0.3
v -0.3 1.5 -0.4
v -0.3 2.3 0.4
v -0.3 2.3 0.3
v -0.3 2.4 0.4
v -0.3 2.4 0.3
v -0.3 2.4 -0.3
v -0.3 2.4 -0.4
v -0.3 2.5 -0.3
v -0.3 2.5 -0.4
v -0.2 1.4 0.5
v -0.2 1.4 0.4
v -0.2 1.4 -0.4
v -0.2 1.4 -0.5
v -0.2 1.5 0.5
v -0.2 1.5 0.4
v -0.2 1.5 -0.4
v -0.2 1.5 -0.5
v -0.2 2 0.3
v -0.2 2 0.2
v -0.2 2.1 -0.2
v -0.2 2.1 -0.3
v -0.2 2.2 0.3
v -0.2 2.2 0.2
v -0.2 2.3 0.3
v -0.2 2.3 0.2
v -0.2 2.3 -0.2
v -0.2 2.3 -0.3
v -0.2 2.4 -0.2
v -0.2 2.4 -0.3
v 0.3 2.1 0.1
v 0.3 2.1 0
v 0.3 2.3 0.1
v 0.3 2.3 0
v 0.3 2.4 0.1
v 0.3 2.4 0
v 0.4 2.4 0
v 0.4 2.4 -0.1
v 0.4 2.5 0
v 0.4 2.5 -0.1
v 0.5 2.3 -0.1
v 0.5 2.3 -0.2
v 0.5 2.4 -0.1
v 0.5 2.4 -0.2
v 0.6 1.5 -0.1
v 0.6 1.5 -0.2
v 0.6 1.5 -0.3
v 0.6 1.5 -0.4
v 0.6 1.6 -0.1
v 0.6 1.6 -0.2
v 0.6 1.6 -0.3
v 0.6 1.6 -0.4
v 0.6 2.3 -0.2
v 0.6 2.3 -0.3
v 0.7 1.5 -0.2
v 0.7 1.5 -0.3
v 0.7 1.6 -0.2
v 0.7 1.6 -0.3
v 0.8 0 0.8
v 0.8 0 -0.8
v 0.8 0.5 0.2
v 0.8 0.5 -0.2
v 0.8 0.6 0.3
v 0.8 0.6 0.2
v 0.8 0.6 0.1
v 0.8 0.6 -0.1
v 0.8 0.6 -0.2
v 0.8 0.6 -0.3
v 0.8 0.7 0.2
v 0.8 0.7 0.1
v 0.8 0.7 -0.1
v 0.8 0.7 -0.2
v 0.8 0.9 0.2
v 0.8 0.9 0.1
v 0.8 0.9 -0.1
v 0.8 0.9 -0.2
v 0.8 1 0.3
v 0.8 1 0.2
v 0.8 1 0.1
v 0.8 1 -0.1
v 0.8 1 -0.2
v 0.8 1 -0.3
v 0.8 1.1 0.2
v 0.8 1.1 -0.2
v 0.8 1.4 0.8
v 0.8 1.4 -0.8
v 0.8 1.5 0.7
v 0.8 1.5 -0.7
v 0.8 1.6 0.8
v 0.8 1.6 0.7
v 0.8 1.6 -0.7
v 0.8 1.6 -0.8
v -0.8 0 0.8
v -0.8 1.4 0.8
v -0.8 1.6 0.8
v -0.7 1.5 0.8
v -0.7 1.6 0.8
v -0.3 0.6 0.8
v -0.3 1 0.8
v -0.2 0.5 0.8
v -0.2 0.6 0.8
v -0.2 0.7 0.8
v -0.2 0.9 0.8
v -0.2 1 0.8
v -0.2 1.1 0.8
v -0.1 0.6 0.8
v -0.1 0.7 0.8
v -0.1 0.9 0.8
v -0.1 1 0.8
v 0.1 0.6 0.8
v 0.1 0.7 0.8
v 0.1 0.9 0.8
v 0.1 1 0.8
v 0.2 0.5 0.8
v 0.2 0.6 0.8
v 0.2 0.7 0.8
v 0.2 0.9 0.8
v 0.2 1 0.8
v 0.2 1.1 0.8
v 0.3 0.6 0.8
v 0.3 1 0.8
v 0.7 1.5 0.8
v 0.7 1.6 0.8
v 0.8 0 0.8
v 0.8 1.4 0.8
v 0.8 1.6 0.8
v -0.6 1.5 0.7
v -0.6 1.6 0.7
v -0.5 1.5 0.7
v -0.5 1.6 0.7
v -0.7 1.5 0.6
v -0.7 1.6 0.6
v -0.6 1.5 0.6
v -0.6 1.6 0.6
v -0.6 2.2 0.6
v -0.5 1.5 0.6
v -0.5 1.6 0.6
v -0.5 2.2 0.6
v -0.4 1.5 0.6
v -0.4 1.6 0.6
v -0.5 2.2 0.5
v -0.5 2.3 0.5
v -0.4 2.2 0.5
v -0.4 2.3 0.5
v -0.4 2.3 0.4
v -0.4 2.4 0.4
v -0.3 2.3 0.4
v -0.3 2.4 0.4
v -0.3 2 0.3
v -0.3 2.2 0.3
v -0.3 2.3 0.3
v -0.2 2 0.3
v -0.2 2.2 0.3
v -0.2 2.3 0.3
v 0.2 2.1 0.1
v 0.2 2.3 0.1
v 0.2 2.4 0.1
v 0.3 2.1 0.1
v 0.3 2.3 0.1
v 0.3 2.4 0.1
v 0.3 2.4 0
v 0.3 2.5 0
v 0.4 2.4 0
v 0.4 2.5 0
v 0.4 2.3 -0.1
v 0.4 2.4 -0.1
v 0.5 1.5 -0.1
v 0.5 1.6 -0.1
v 0.5 2.3 -0.1
v 0.5 2.4 -0.1
v 0.6 1.5 -0.1
v 0.6 1.6 -0.1
v -0.5 1.4 -0.2
v -0.5 1.5 -0.2
v -0.4 1.4 -0.2
v -0.4 1.5 -0.2
v -0.3 2.1 -0.2
v -0.3 2.3 -0.2
v -0.3 2.4 -0.2
v -0.2 2.1 -0.2
v -0.2 2.3 -0.2
v -0.2 2.4 -0.2
v 0.4 1.4 -0.2
v 0.4 1.5 -0.2
v 0.4 1.6 -0.2
v 0.5 1.4 -0.2
v 0.5 1.5 -0.2
v 0.5 1.6 -0.2
v 0.5 2.3 -0.2
v 0.6 1.5 -0.2
v 0.6 1.6 -0.2
v 0.6 2.3 -0.2
v 0.7 1.5 -0.2
v 0.7 1.6 -0.2
v -0.4 1.4 -0.3
v -0.4 1.5 -0.3
v -0.4 2.4 -0.3
v -0.4 2.5 -0.3
v -0.3 1.4 -0.3
v -0.3 1.5 -0.3
v -0.3 2.4 -0.3
v -0.3 2.5 -0.3
v 0.3 1.4 -0.3
v 0.3 1.5 -0.3
v 0.4 1.4 -0.3
v 0.4 1.5 -0.3
v -0.6 1.5 -0.4
v -0.6 1.6 -0.4
v -0.5 1.5 -0.4
v -0.5 1.6 -0.4
v -0.5 2.3 -0.4
v -0.5 2.4 -0.4
v -0.4 2.3 -0.4
v -0.4 2.4 -0.4
v -0.3 1.4 -0.4
v -0.3 1.5 -0.4
v -0.2 1.4 -0.4
v -0.2 1.5 -0.4
v 0.2 1.4 -0.4
v 0.2 1.5 -0.4
v 0.3 1.4 -0.4
v 0.3 1.5 -0.4
v -0.7 1.5 -0.5
v -0.7 1.6 -0.5
v -0.6 1.5 -0.5
v -0.6 1.6 -0.5
v -0.6 2.3 -0.5
v -0.5 1.5 -0.5
v -0.5 1.6 -0.5
v -0.5 2.3 -0.5
v -0.4 1.5 -0.5
v -0.4 1.6 -0.5
v -0.2 1.4 -0.5
v -0.2 1.5 -0.5
v 0.2 1.4 -0.5
v 0.2 1.5 -0.5
v -0.8 1.5 -0.7
v -0.8 1.6 -0.7
v -0.7 1.5 -0.7
v -0.7 1.6 -0.7
v 0.7 1.5 -0.7
v 0.7 1.6 -0.7
v 0.8 1.5 -0.7
v 0.8 1.6 -0.7
v -0.8 1.5 0.7
v -0.8 1.6 0.7
v -0.7 1.5 0.7
v -0.7 1.6 0.7
v 0.7 1.5 0.7
v 0.7 1.6 0.7
v 0.8 1.5 0.7
v 0.8 1.6 0.7
v -0.7 1.5 0.5
v -0.7 1.6 0.5
v -0.6 1.5 0.5
v -0.6 1.6 0.5
v -0.6 2.2 0.5
v -0.5 1.5 0.5
v -0.5 1.6 0.5
v -0.5 2.2 0.5
v -0.4 1.5 0.5
v -0.4 1.6 0.5
v -0.2 1.4 0.5
v -0.2 1.5 0.5
v 0.2 1.4 0.5
v 0.2 1.5 0.5
v -0.6 1.5 0.4
v -0.6 1.6 0.4
v -0.5 1.5 0.4
v -0.5 1.6 0.4
v -0.5 2.2 0.4
v -0.5 2.3 0.4
v -0.4 2.2 0.4
v -0.4 2.3 0.4
v -0.3 1.4 0.4
v -0.3 1.5 0.4
v -0.2 1.4 0.4
v -0.2 1.5 0.4
v 0.2 1.4 0.4
v 0.2 1.5 0.4
v 0.3 1.4 0.4
v 0.3 1.5 0.4
v -0.4 1.4 0.3
v -0.4 1.5 0.3
v -0.4 2.3 0.3
v -0.4 2.4 0.3
v -0.3 1.4 0.3
v -0.3 1.5 0.3
v -0.3 2.3 0.3
v -0.3 2.4 0.3
v 0.3 1.4 0.3
v 0.3 1.5 0.3
v 0.4 1.4 0.3
v 0.4 1.5 0.3
v -0.5 1.4 0.2
v -0.5 1.5 0.2
v -0.4 1.4 0.2
v -0.4 1.5 0.2
v -0.3 2 0.2
v -0.3 2.2 0.2
v -0.3 2.3 0.2
v -0.2 2 0.2
v -0.2 2.2 0.2
v -0.2 2.3 0.2
v 0.4 1.4 0.2
v 0.4 1.5 0.2
v 0.5 1.4 0.2
v 0.5 1.5 0.2
v 0.2 2.1 0
v 0.2 2.3 0
v 0.2 2.4 0
v 0.3 2.1 0
v 0.3 2.3 0
v 0.3 2.4 0
v 0.3 2.4 -0.1
v 0.3 2.5 -0.1
v 0.4 2.4 -0.1
v 0.4 2.5 -0.1
v 0.4 2.3 -0.2
v 0.4 2.4 -0.2
v 0.5 2.3 -0.2
v 0.5 2.4 -0.2
v -0.3 2.1 -0.3
v -0.3 2.3 -0.3
v -0.3 2.4 -0.3
v -0.2 2.1 -0.3
v -0.2 2.3 -0.3
v -0.2 2.4 -0.3
v 0.4 1.5 -0.3
v 0.4 1.6 -0.3
v 0.5 1.5 -0.3
v 0.5 1.6 -0.3
v 0.5 2.3 -0.3
v 0.6 1.5 -0.3
v 0.6 1.6 -0.3
v 0.6 2.3 -0.3
v 0.7 1.5 -0.3
v 0.7 1.6 -0.3
v -0.4 2.4 -0.4
v -0.4 2.5 -0.4
v -0.3 2.4 -0.4
v -0.3 2.5 -0.4
v 0.5 1.5 -0.4
v 0.5 1.6 -0.4
v 0.6 1.5 -0.4
v 0.6 1.6 -0.4
v -0.5 2.3 -0.5
v -0.5 2.4 -0.5
v -0.4 2.3 -0.5
v -0.4 2.4 -0.5
v -0.7 1.5 -0.6
v -0.7 1.6 -0.6
v -0.6 1.5 -0.6
v -0.6 1.6 -0.6
v -0.6 2.3 -0.6
v -0.5 1.5 -0.6
v -0.5 1.6 -0.6
v -0.5 2.3 -0.6
v -0.4 1.5 -0.6
v -0.4 1.6 -0.6
v -0.6 1.5 -0.7
v -0.6 1.6 -0.7
v -0.5 1.5 -0.7
v -0.5 1.6 -0.7
v -0.8 0 -0.8
v -0.8 1.4 -0.8
v -0.8 1.6 -0.8
v -0.7 1.5 -0.8
v -0.7 1.6 -0.8
v -0.3 0.6 -0.8
v -0.3 1 -0.8
v -0.2 0.5 -0.8
v -0.2 0.6 -0.8
v -0.2 0.7 -0.8
v -0.2 0.9 -0.8
v -0.2 1 -0.8
v -0.2 1.1 -0.8
v -0.1 0.6 -0.8
v -0.1 0.7 -0.8
v -0.1 0.9 -0.8
v -0.1 1 -0.8
v 0.1 0.6 -0.8
v 0.1 0.7 -0.8
v 0.1 0.9 -0.8
v 0.1 1 -0.8
v 0.2 0.5 -0.8
v 0.2 0.6 -0.8
v 0.2 0.7 -0.8
v 0.2 0.9 -0.8
v 0.2 1 -0.8
v 0.2 1.1 -0.8
v 0.3 0.6 -0.8
v 0.3 1 -0.8
v 0.7 1.5 -0.8
v 0.7 1.6 -0.8
v 0.8 0 -0.8
v 0.8 1.4 -0.8
v 0.8 1.6 -0.8
v -0.8 0 0.8
v 0.8 0 0.8
v -0.8 0 -0.8
v 0.8 0 -0.8
v -0.3 2 0.3
v -0.2 2 0.3
v -0.3 2 0.2
v -0.2 2 0.2
v 0.2 2.1 0.1
v 0.3 2.1 0.1
v 0.2 2.1 0
v 0.3 2.1 0
v -0.3 2.1 -0.2
v -0.2 2.1 -0.2
v -0.3 2.1 -0.3
v -0.2 2.1 -0.3
v -0.5 2.2 0.5
v -0.4 2.2 0.5
v -0.5 2.2 0.4
v -0.4 2.2 0.4
v -0.4 2.3 0.4
v -0.3 2.3 0.4
v -0.4 2.3 0.3
v -0.3 2.3 0.3
v 0.4 2.3 -0.1
v 0.5 2.3 -0.1
v 0.4 2.3 -0.2
v 0.5 2.3 -0.2
v -0.5 2.3 -0.4
v -0.4 2.3 -0.4
v -0.5 2.3 -0.5
v -0.4 2.3 -0.5
v 0.3 2.4 0
v 0.4 2.4 0
v 0.3 2.4 -0.1
v 0.4 2.4 -0.1
v -0.4 2.4 -0.3
v -0.3 2.4 -0.3
v -0.4 2.4 -0.4
v -0.3 2.4 -0.4
v -0.2 1.4 0.5
v 0.2 1.4 0.5
v -0.3 1.4 0.4
v -0.2 1.4 0.4
v 0.2 1.4 0.4
v 0.3 1.4 0.4
v -0.4 1.4 0.3
v -0.3 1.4 0.3
v -0.2 1.4 0.3
v 0.2 1.4 0.3
v 0.3 1.4 0.3
v 0.4 1.4 0.3
v -0.5 1.4 0.2
v -0.4 1.4 0.2
v -0.3 1.4 0.2
v -0.2 1.4 0.2
v -0.1 1.4 0.2
v 0.1 1.4 0.2
v 0.2 1.4 0.2
v 0.3 1.4 0.2
v 0.4 1.4 0.2
v 0.5 1.4 0.2
v -0.2 1.4 0.1
v -0.1 1.4 0.1
v 0.1 1.4 0.1
v 0.2 1.4 0.1
v -0.2 1.4 -0.1
v -0.1 1.4 -0.1
v 0.1 1.4 -0.1
v 0.2 1.4 -0.1
v -0.5 1.4 -0.2
v -0.4 1.4 -0.2
v -0.3 1.4 -0.2
v -0.2 1.4 -0.2
v -0.1 1.4 -0.2
v 0.1 1.4 -0.2
v 0.2 1.4 -0.2
v 0.3 1.4 -0.2
v 0.4 1.4 -0.2
v 0.5 1.4 -0.2
v -0.4 1.4 -0.3
v -0.3 1.4 -0.3
v -0.2 1.4 -0.3
v 0.2 1.4 -0.3
v 0.3 1.4 -0.3
v 0.4 1.4 -0.3
v -0.3 1.4 -0.4
v -0.2 1.4 -0.4
v 0.2 1.4 -0.4
v 0.3 1.4 -0.4
v -0.2 1.4 -0.5
v 0.2 1.4 -0.5
v -0.7 1.5 0.8
v 0.7 1.5 0.8
v -0.8 1.5 0.7
v -0.7 1.5 0.7
v -0.6 1.5 0.7
v -0.5 1.5 0.7
v 0.7 1.5 0.7
v 0.8 1.5 0.7
v -0.7 1.5 0.6
v -0.6 1.5 0.6
v -0.5 1.5 0.6
v -0.4 1.5 0.6
v -0.7 1.5 0.5
v -0.6 1.5 0.5
v -0.5 1.5 0.5
v -0.4 1.5 0.5
v -0.2 1.5 0.5
v 0.2 1.5 0.5
v -0.6 1.5 0.4
v -0.5 1.5 0.4
v -0.3 1.5 0.4
v -0.2 1.5 0.4
v 0.2 1.5 0.4
v 0.3 1.5 0.4
v -0.4 1.5 0.3
v -0.3 1.5 0.3
v 0.3 1.5 0.3
v 0.4 1.5 0.3
v -0.5 1.5 0.2
v -0.4 1.5 0.2
v 0.4 1.5 0.2
v 0.5 1.5 0.2
v 0.5 1.5 -0.1
v 0.6 1.5 -0.1
v -0.5 1.5 -0.2
v -0.4 1.5 -0.2
v 0.6 1.5 -0.2
v 0.7 1.5 -0.2
v -0.4 1.5 -0.3
v -0.3 1.5 -0.3
v 0.3 1.5 -0.3
v 0.4 1.5 -0.3
v 0.5 1.5 -0.3
v 0.6 1.5 -0.3
v 0.7 1.5 -0.3
v -0.6 1.5 -0.4
v -0.5 1.5 -0.4
v -0.3 1.5 -0.4
v -0.2 1.5 -0.4
v 0.2 1.5 -0.4
v 0.3 1.5 -0.4
v 0.5 1.5 -0.4
v 0.6 1.5 -0.4
v -0.7 1.5 -0.5
v -0.6 1.5 -0.5
v -0.5 1.5 -0.5
v -0.4 1.5 -0.5
v -0.2 1.5 -0.5
v 0.2 1.5 -0.5
v -0.7 1.5 -0.6
v -0.6 1.5 -0.6
v -0.5 1.5 -0.6
v -0.4 1.5 -0.6
v -0.8 1.5 -0.7
v -0.7 1.5 -0.7
v -0.6 1.5 -0.7
v -0.5 1.5 -0.7
v 0.7 1.5 -0.7
v 0.8 1.5 -0.7
v -0.7 1.5 -0.8
v 0.7 1.5 -0.8
v -0.8 1.6 0.8
v -0.7 1.6 0.8
v 0.7 1.6 0.8
v 0.8 1.6 0.8
v -0.8 1.6 0.7
v -0.7 1.6 0.7
v -0.6 1.6 0.7
v -0.5 1.6 0.7
v 0.7 1.6 0.7
v 0.8 1.6 0.7
v -0.7 1.6 0.6
v -0.6 1.6 0.6
v -0.5 1.6 0.6
v -0.4 1.6 0.6
v -0.7 1.6 0.5
v -0.6 1.6 0.5
v -0.5 1.6 0.5
v -0.4 1.6 0.5
v -0.6 1.6 0.4
v -0.5 1.6 0.4
v 0.5 1.6 -0.1
v 0.6 1.6 -0.1
v 0.4 1.6 -0.2
v 0.5 1.6 -0.2
v 0.6 1.6 -0.2
v 0.7 1.6 -0.2
v 0.4 1.6 -0.3
v 0.5 1.6 -0.3
v 0.6 1.6 -0.3
v 0.7 1.6 -0.3
v -0.6 1.6 -0.4
v -0.5 1.6 -0.4
v 0.5 1.6 -0.4
v 0.6 1.6 -0.4
v -0.7 1.6 -0.5
v -0.6 1.6 -0.5
v -0.5 1.6 -0.5
v -0.4 1.6 -0.5
v -0.7 1.6 -0.6
v -0.6 1.6 -0.6
v -0.5 1.6 -0.6
v -0.4 1.6 -0.6
v -0.8 1.6 -0.7
v -0.7 1.6 -0.7
v -0.6 1.6 -0.7
v -0.5 1.6 -0.7
v 0.7 1.6 -0.7
v 0.8 1.6 -0.7
v -0.8 1.6 -0.8
v -0.7 1.6 -0.8
v 0.7 1.6 -0.8
v 0.8 1.6 -0.8
v -0.6 2.2 0.6
v -0.5 2.2 0.6
v -0.6 2.2 0.5
v -0.5 2.2 0.5
v -0.5 2.3 0.5
v -0.4 2.3 0.5
v -0.5 2.3 0.4
v -0.4 2.3 0.4
v -0.3 2.3 0.3
v -0.2 2.3 0.3
v -0.3 2.3 0.2
v -0.2 2.3 0.2
v 0.5 2.3 -0.2
v 0.6 2.3 -0.2
v 0.5 2.3 -0.3
v 0.6 2.3 -0.3
v -0.6 2.3 -0.5
v -0.5 2.3 -0.5
v -0.6 2.3 -0.6
v -0.5 2.3 -0.6
v -0.4 2.4 0.4
v -0.3 2.4 0.4
v -0.4 2.4 0.3
v -0.3 2.4 0.3
v 0.2 2.4 0.1
v 0.3 2.4 0.1
v 0.2 2.4 0
v 0.3 2.4 0
v 0.4 2.4 -0.1
v 0.5 2.4 -0.1
v -0.3 2.4 -0.2
v -0.2 2.4 -0.2
v 0.4 2.4 -0.2
v 0.5 2.4 -0.2
v -0.3 2.4 -0.3
v -0.2 2.4 -0.3
v -0.5 2.4 -0.4
v -0.4 2.4 -0.4
v -0.5 2.4 -0.5
v -0.4 2.4 -0.5
v 0.3 2.5 0
v 0.4 2.5 0
v 0.3 2.5 -0.1
v 0.4 2.5 -0.1
v -0.4 2.5 -0.3
v -0.3 2.5 -0.3
v -0.4 2.5 -0.4
v -0.3 2.5 -0.4

# faces
f 3/7/1 2/7/1 1/7/1
f 4/7/1 2/7/1 3/7/1
f 5/7/1 3/7/1 1/7/1
f 6/3/1 4/3/1 3/3/1
f 6/7/1 3/7/1 5/7/1
f 7/3/1 4/3/1 6/3/1
f 8/3/1 4/3/1 7/3/1
f 9/7/1 2/7/1 4/7/1
f 9/3/1 4/3/1 8/3/1
f 10/7/1 2/7/1 9/7/1
f 11/3/1 6/3/1 5/3/1
f 11/3/1 7/3/1 6/3/1
f 12/5/1 8/5/1 7/5/1
f 12/3/1 7/3/1 11/3/1
f 13/3/1 10/3/1 9/3/1
f 13/5/1 8/5/1 12/5/1
f 13/3/1 9/3/1 8/3/1
f 14/3/1 10/3/1 13/3/1
f 15/3/1 11/3/1 5/3/1
f 15/5/1 12/5/1 11/5/1
f 15/5/1 14/5/1 13/5/1
f 15/5/1 13/5/1 12/5/1
f 16/5/1 14/5/1 15/5/1
f 17/5/1 14/5/1 16/5/1
f 18/3/1 10/3/1 14/3/1
f 18/5/1 14/5/1 17/5/1
f 19/7/1 5/7/1 1/7/1
f 19/3/1 15/3/1 5/3/1
f 19/3/1 16/3/1 15/3/1
f 20/3/1 16/3/1 19/3/1
f 21/5/1 17/5/1 16/5/1
f 21/3/1 16/3/1 20/3/1
f 22/3/1 18/3/1 17/3/1
f 22/5/1 17/5/1 21/5/1
f 23/3/1 10/3/1 18/3/1
f 23/3/1 18/3/1 22/3/1
f 24/7/1 2/7/1 10/7/1
f 24/3/1 10/3/1 23/3/1
f 25/7/1 20/7/1 19/7/1
f 25/3/1 22/3/1 21/3/1
f 25/3/1 23/3/1 22/3/1
f 25/3/1 21/3/1 20/3/1
f 26/7/1 24/7/1 23/7/1
f 26/3/1 23/3/1 25/3/1
f 27/7/1 25/7/1 19/7/1
f 27/7/1 19/7/1 1/7/1
f 27/7/1 26/7/1 25/7/1
f 28/7/1 2/7/1 24/7/1
f 28/7/1 26/7/1 27/7/1
f 28/7/1 24/7/1 26/7/1
f 29/4/1 28/4/1 27/4/1
f 30/4/1 28/4/1 29/4/1
f 31/4/1 29/4/1 27/4/1
f 32/4/1 29/4/1 31/4/1
f 33/4/1 28/4/1 30/4/1
f 34/4/1 28/4/1 33/4/1
f 39/5/1 36/5/1 35/5/1
f 40/5/1 36/5/1 39/5/1
f 41/5/1 38/5/1 37/5/1
f 42/5/1 38/5/1 41/5/1
f 51/5/1 44/5/1 43/5/1
f 52/5/1 44/5/1 51/5/1
f 53/5/1 46/5/1 45/5/1
f 54/5/1 46/5/1 53/5/1
f 55/5/1 48/5/1 47/5/1
f 56/5/1 48/5/1 55/5/1
f 57/5/1 50/5/1 49/5/1
f 58/5/1 50/5/1 57/5/1
f 59/5/1 53/5/1 52/5/1
f 60/5/1 53/5/1 59/5/1
f 61/5/1 57/5/1 56/5/1
f 62/5/1 57/5/1 61/5/1
f 65/5/1 64/5/1 63/5/1
f 66/5/1 64/5/1 65/5/1
f 69/5/1 68/5/1 67/5/1
f 70/5/1 68/5/1 69/5/1
f 73/5/1 72/5/1 71/5/1
f 74/5/1 72/5/1 73/5/1
f 77/5/1 76/5/1 75/5/1
f 78/5/1 76/5/1 77/5/1
f 83/1/1 80/1/1 79/1/1
f 84/1/1 80/1/1 83/1/1
f 85/5/1 84/5/1 83/5/1
f 86/5/1 84/5/1 85/5/1
f 87/3/1 82/3/1 81/3/1
f 88/3/1 82/3/1 87/3/1
f 89/5/1 88/5/1 87/5/1
f 90/5/1 88/5/1 89/5/1
f 95/7/1 92/7/1 91/7/1
f 96/7/1 92/7/1 95/7/1
f 97/7/1 94/7/1 93/7/1
f 98/7/1 94/7/1 97/7/1
f 101/2/1 100/2/1 99/2/1
f 102/2/1 100/2/1 101/2/1
f 103/5/1 102/5/1 101/5/1
f 104/5/1 102/5/1 103/5/1
f 109/7/1 106/7/1 105/7/1
f 110/7/1 106/7/1 109/7/1
f 111/7/1 108/7/1 107/7/1
f 112/7/1 108/7/1 111/7/1
f 115/5/1 114/5/1 113/5/1
f 116/5/1 114/5/1 115/5/1
f 121/7/1 118/7/1 117/7/1
f 122/7/1 118/7/1 121/7/1
f 123/7/1 120/7/1 119/7/1
f 124/7/1 120/7/1 123/7/1
f 125/5/1 124/5/1 123/5/1
f 126/5/1 124/5/1 125/5/1
f 129/5/1 128/5/1 127/5/1
f 130/5/1 128/5/1 129/5/1
f 133/7/1 132/7/1 131/7/1
f 134/7/1 132/7/1 133/7/1
f 135/7/1 132/7/1 134/7/1
f 138/5/1 135/5/1 134/5/1
f 139/5/1 135/5/1 138/5/1
f 140/5/1 137/5/1 136/5/1
f 141/5/1 137/5/1 140/5/1
f 142/5/1 140/5/1 139/5/1
f 143/5/1 140/5/1 142/5/1
f 148/4/1 145/4/1 144/4/1
f 149/4/1 145/4/1 148/4/1
f 150/4/1 147/4/1 146/4/1
f 151/4/1 147/4/1 150/4/1
f 152/4/2 153/4/2 156/4/2
f 156/4/2 153/4/2 157/4/2
f 154/4/2 155/4/2 158/4/2
f 158/4/2 155/4/2 159/4/2
f 160/7/2 161/7/2 166/7/2
f 166/7/2 161/7/2 167/7/2
f 162/5/2 163/5/2 172/5/2
f 172/5/2 163/5/2 173/5/2
f 164/5/2 165/5/2 174/5/2
f 174/5/2 165/5/2 175/5/2
f 168/5/2 169/5/2 176/5/2
f 176/5/2 169/5/2 177/5/2
f 170/5/2 171/5/2 178/5/2
f 178/5/2 171/5/2 179/5/2
f 173/5/2 174/5/2 180/5/2
f 180/5/2 174/5/2 181/5/2
f 177/5/2 178/5/2 182/5/2
f 182/5/2 178/5/2 183/5/2
f 184/7/2 185/7/2 190/7/2
f 190/7/2 185/7/2 191/7/2
f 186/7/2 187/7/2 192/7/2
f 192/7/2 187/7/2 193/7/2
f 188/5/2 189/5/2 196/5/2
f 196/5/2 189/5/2 197/5/2
f 194/5/2 195/5/2 198/5/2
f 198/5/2 195/5/2 199/5/2
f 200/5/2 201/5/2 202/5/2
f 202/5/2 201/5/2 203/5/2
f 204/5/2 205/5/2 206/5/2
f 206/5/2 205/5/2 207/5/2
f 208/7/2 209/7/2 212/7/2
f 212/7/2 209/7/2 213/7/2
f 210/7/2 211/7/2 214/7/2
f 214/7/2 211/7/2 215/7/2
f 216/5/2 217/5/2 218/5/2
f 218/5/2 217/5/2 219/5/2
f 220/5/2 221/5/2 222/5/2
f 222/5/2 221/5/2 223/5/2
f 224/7/2 225/7/2 228/7/2
f 228/7/2 225/7/2 229/7/2
f 226/7/2 227/7/2 230/7/2
f 230/7/2 227/7/2 231/7/2
f 232/1/2 233/1/2 236/1/2
f 236/1/2 233/1/2 237/1/2
f 236/5/2 237/5/2 238/5/2
f 238/5/2 237/5/2 239/5/2
f 234/3/2 235/3/2 240/3/2
f 240/3/2 235/3/2 241/3/2
f 240/5/2 241/5/2 242/5/2
f 242/5/2 241/5/2 243/5/2
f 244/2/2 245/2/2 246/2/2
f 246/2/2 245/2/2 247/2/2
f 246/5/2 247/5/2 248/5/2
f 248/5/2 247/5/2 249/5/2
f 250/5/2 251/5/2 252/5/2
f 252/5/2 251/5/2 253/5/2
f 254/5/2 255/5/2 256/5/2
f 256/5/2 255/5/2 257/5/2
f 258/5/2 259/5/2 262/5/2
f 262/5/2 259/5/2 263/5/2
f 260/5/2 261/5/2 264/5/2
f 264/5/2 261/5/2 265/5/2
f 263/5/2 264/5/2 266/5/2
f 266/5/2 264/5/2 267/5/2
f 268/5/2 269/5/2 270/5/2
f 270/5/2 269/5/2 271/5/2
f 272/7/2 273/7/2 274/7/2
f 274/7/2 273/7/2 275/7/2
f 272/7/2 274/7/2 276/7/2
f 274/3/2 275/3/2 277/3/2
f 276/7/2 274/7/2 277/7/2
f 277/3/2 275/3/2 278/3/2
f 278/3/2 275/3/2 279/3/2
f 275/7/2 273/7/2 280/7/2
f 279/3/2 275/3/2 280/3/2
f 280/7/2 273/7/2 281/7/2
f 276/3/2 277/3/2 282/3/2
f 277/3/2 278/3/2 282/3/2
f 278/5/2 279/5/2 283/5/2
f 282/3/2 278/3/2 283/3/2
f 280/3/2 281/3/2 284/3/2
f 283/5/2 279/5/2 284/5/2
f 279/3/2 280/3/2 284/3/2
f 284/3/2 281/3/2 285/3/2
f 276/3/2 282/3/2 286/3/2
f 282/5/2 283/5/2 286/5/2
f 284/5/2 285/5/2 286/5/2
f 283/5/2 284/5/2 286/5/2
f 286/5/2 285/5/2 287/5/2
f 287/5/2 285/5/2 288/5/2
f 285/3/2 281/3/2 289/3/2
f 288/5/2 285/5/2 289/5/2
f 272/7/2 276/7/2 290/7/2
f 276/3/2 286/3/2 290/3/2
f 286/3/2 287/3/2 290/3/2
f 290/3/2 287/3/2 291/3/2
f 287/5/2 288/5/2 292/5/2
f 291/3/2 287/3/2 292/3/2
f 288/3/2 289/3/2 293/3/2
f 292/5/2 288/5/2 293/5/2
f 289/3/2 281/3/2 294/3/2
f 293/3/2 289/3/2 294/3/2
f 281/7/2 273/7/2 295/7/2
f 294/3/2 281/3/2 295/3/2
f 290/7/2 291/7/2 296/7/2
f 292/3/2 293/3/2 296/3/2
f 293/3/2 294/3/2 296/3/2
f 291/3/2 292/3/2 296/3/2
f 294/7/2 295/7/2 297/7/2
f 296/3/2 294/3/2 297/3/2
f 290/7/2 296/7/2 298/7/2
f 272/7/2 290/7/2 298/7/2
f 296/7/2 297/7/2 298/7/2
f 295/7/2 273/7/2 299/7/2
f 298/7/2 297/7/2 299/7/2
f 297/7/2 295/7/2 299/7/2
f 298/4/2 299/4/2 300/4/2
f 300/4/2 299/4/2 301/4/2
f 298/4/2 300/4/2 302/4/2
f 302/4/2 300/4/2 303/4/2
f 301/4/2 299/4/2 304/4/2
f 304/4/2 299/4/2 305/4/2
f 309/4/3 308/4/3 307/4/3
f 310/4/3 308/4/3 309/4/3
f 311/7/3 307/7/3 306/7/3
f 312/7/3 307/7/3 311/7/3
f 313/7/3 311/7/3 306/7/3
f 314/3/3 312/3/3 311/3/3
f 314/7/3 311/7/3 313/7/3
f 315/3/3 312/3/3 314/3/3
f 316/3/3 312/3/3 315/3/3
f 317/7/3 307/7/3 312/7/3
f 317/3/3 312/3/3 316/3/3
f 318/7/3 307/7/3 317/7/3
f 319/3/3 314/3/3 313/3/3
f 319/3/3 315/3/3 314/3/3
f 320/5/3 316/5/3 315/5/3
f 320/3/3 315/3/3 319/3/3
f 321/3/3 318/3/3 317/3/3
f 321/5/3 316/5/3 320/5/3
f 321/3/3 317/3/3 316/3/3
f 322/3/3 318/3/3 321/3/3
f 323/3/3 319/3/3 313/3/3
f 323/5/3 320/5/3 319/5/3
f 323/5/3 322/5/3 321/5/3
f 323/5/3 321/5/3 320/5/3
f 324/5/3 322/5/3 323/5/3
f 325/5/3 322/5/3 324/5/3
f 326/3/3 318/3/3 322/3/3
f 326/5/3 322/5/3 325/5/3
f 327/7/3 313/7/3 306/7/3
f 327/3/3 323/3/3 313/3/3
f 327/3/3 324/3/3 323/3/3
f 328/3/3 324/3/3 327/3/3
f 329/5/3 325/5/3 324/5/3
f 329/3/3 324/3/3 328/3/3
f 330/3/3 326/3/3 325/3/3
f 330/5/3 325/5/3 329/5/3
f 331/3/3 318/3/3 326/3/3
f 331/3/3 326/3/3 330/3/3
f 332/7/3 307/7/3 318/7/3
f 332/3/3 318/3/3 331/3/3
f 333/7/3 328/7/3 327/7/3
f 333/3/3 330/3/3 329/3/3
f 333/3/3 331/3/3 330/3/3
f 333/3/3 329/3/3 328/3/3
f 334/7/3 332/7/3 331/7/3
f 334/3/3 331/3/3 333/3/3
f 335/4/3 309/4/3 307/4/3
f 337/7/3 333/7/3 327/7/3
f 337/7/3 327/7/3 306/7/3
f 337/7/3 334/7/3 333/7/3
f 338/7/3 332/7/3 334/7/3
f 338/7/3 334/7/3 337/7/3
f 338/7/3 307/7/3 332/7/3
f 338/4/3 335/4/3 307/4/3
f 338/4/3 336/4/3 335/4/3
f 339/4/3 336/4/3 338/4/3
f 342/5/3 341/5/3 340/5/3
f 343/5/3 341/5/3 342/5/3
f 346/5/3 345/5/3 344/5/3
f 347/5/3 345/5/3 346/5/3
f 350/5/3 348/5/3 347/5/3
f 351/5/3 348/5/3 350/5/3
f 352/5/3 350/5/3 349/5/3
f 353/5/3 350/5/3 352/5/3
f 356/5/3 355/5/3 354/5/3
f 357/5/3 355/5/3 356/5/3
f 360/5/3 359/5/3 358/5/3
f 361/5/3 359/5/3 360/5/3
f 365/1/3 363/1/3 362/1/3
f 366/5/3 364/5/3 363/5/3
f 366/1/3 363/1/3 365/1/3
f 367/5/3 364/5/3 366/5/3
f 371/2/3 369/2/3 368/2/3
f 372/5/3 370/5/3 369/5/3
f 372/2/3 369/2/3 371/2/3
f 373/5/3 370/5/3 372/5/3
f 376/5/3 375/5/3 374/5/3
f 377/5/3 375/5/3 376/5/3
f 382/5/3 379/5/3 378/5/3
f 383/5/3 379/5/3 382/5/3
f 384/5/3 381/5/3 380/5/3
f 385/5/3 381/5/3 384/5/3
f 388/7/3 387/7/3 386/7/3
f 389/7/3 387/7/3 388/7/3
f 393/3/3 391/3/3 390/3/3
f 394/5/3 392/5/3 391/5/3
f 394/3/3 391/3/3 393/3/3
f 395/5/3 392/5/3 394/5/3
f 399/7/3 397/7/3 396/7/3
f 400/5/3 398/5/3 397/5/3
f 400/7/3 397/7/3 399/7/3
f 401/5/3 398/5/3 400/5/3
f 404/5/3 402/5/3 401/5/3
f 405/5/3 402/5/3 404/5/3
f 406/5/3 404/5/3 403/5/3
f 407/5/3 404/5/3 406/5/3
f 412/7/3 409/7/3 408/7/3
f 413/7/3 409/7/3 412/7/3
f 414/5/3 411/5/3 410/5/3
f 415/5/3 411/5/3 414/5/3
f 418/7/3 417/7/3 416/7/3
f 419/7/3 417/7/3 418/7/3
f 422/5/3 421/5/3 420/5/3
f 423/5/3 421/5/3 422/5/3
f 426/5/3 425/5/3 424/5/3
f 427/5/3 425/5/3 426/5/3
f 430/7/3 429/7/3 428/7/3
f 431/7/3 429/7/3 430/7/3
f 434/7/3 433/7/3 432/7/3
f 435/7/3 433/7/3 434/7/3
f 438/5/3 437/5/3 436/5/3
f 439/5/3 437/5/3 438/5/3
f 442/5/3 440/5/3 439/5/3
f 443/5/3 440/5/3 442/5/3
f 444/5/3 442/5/3 441/5/3
f 445/5/3 442/5/3 444/5/3
f 448/7/3 447/7/3 446/7/3
f 449/7/3 447/7/3 448/7/3
f 452/4/3 451/4/3 450/4/3
f 453/4/3 451/4/3 452/4/3
f 456/4/3 455/4/3 454/4/3
f 457/4/3 455/4/3 456/4/3
f 458/4/4 459/4/4 460/4/4
f 460/4/4 459/4/4 461/4/4
f 462/4/4 463/4/4 464/4/4
f 464/4/4 463/4/4 465/4/4
f 466/5/4 467/5/4 468/5/4
f 468/5/4 467/5/4 469/5/4
f 469/5/4 470/5/4 472/5/4
f 472/5/4 470/5/4 473/5/4
f 471/5/4 472/5/4 474/5/4
f 474/5/4 472/5/4 475/5/4
f 476/7/4 477/7/4 478/7/4
f 478/7/4 477/7/4 479/7/4
f 480/5/4 481/5/4 482/5/4
f 482/5/4 481/5/4 483/5/4
f 484/5/4 485/5/4 486/5/4
f 486/5/4 485/5/4 487/5/4
f 488/7/4 489/7/4 490/7/4
f 490/7/4 489/7/4 491/7/4
f 492/7/4 493/7/4 494/7/4
f 494/7/4 493/7/4 495/7/4
f 496/7/4 497/7/4 500/7/4
f 500/7/4 497/7/4 501/7/4
f 498/5/4 499/5/4 502/5/4
f 502/5/4 499/5/4 503/5/4
f 504/7/4 505/7/4 506/7/4
f 506/7/4 505/7/4 507/7/4
f 508/7/4 509/7/4 510/7/4
f 510/7/4 509/7/4 511/7/4
f 512/1/4 513/1/4 515/1/4
f 513/5/4 514/5/4 516/5/4
f 515/1/4 513/1/4 516/1/4
f 516/5/4 514/5/4 517/5/4
f 518/7/4 519/7/4 520/7/4
f 520/7/4 519/7/4 521/7/4
f 522/2/4 523/2/4 525/2/4
f 523/5/4 524/5/4 526/5/4
f 525/2/4 523/2/4 526/2/4
f 526/5/4 524/5/4 527/5/4
f 528/5/4 529/5/4 530/5/4
f 530/5/4 529/5/4 531/5/4
f 532/5/4 533/5/4 534/5/4
f 534/5/4 533/5/4 535/5/4
f 536/3/4 537/3/4 539/3/4
f 537/5/4 538/5/4 540/5/4
f 539/3/4 537/3/4 540/3/4
f 540/5/4 538/5/4 541/5/4
f 542/5/4 543/5/4 544/5/4
f 544/5/4 543/5/4 545/5/4
f 545/5/4 546/5/4 548/5/4
f 548/5/4 546/5/4 549/5/4
f 547/5/4 548/5/4 550/5/4
f 550/5/4 548/5/4 551/5/4
f 552/5/4 553/5/4 554/5/4
f 554/5/4 553/5/4 555/5/4
f 556/5/4 557/5/4 558/5/4
f 558/5/4 557/5/4 559/5/4
f 560/5/4 561/5/4 562/5/4
f 562/5/4 561/5/4 563/5/4
f 564/5/4 565/5/4 566/5/4
f 566/5/4 565/5/4 567/5/4
f 567/5/4 568/5/4 570/5/4
f 570/5/4 568/5/4 571/5/4
f 569/5/4 570/5/4 572/5/4
f 572/5/4 570/5/4 573/5/4
f 574/5/4 575/5/4 576/5/4
f 576/5/4 575/5/4 577/5/4
f 579/4/4 580/4/4 581/4/4
f 581/4/4 580/4/4 582/4/4
f 578/7/4 579/7/4 583/7/4
f 583/7/4 579/7/4 584/7/4
f 578/7/4 583/7/4 585/7/4
f 583/1/4 584/1/4 586/1/4
f 585/7/4 583/7/4 586/7/4
f 586/1/4 584/1/4 587/1/4
f 587/1/4 584/1/4 588/1/4
f 584/7/4 579/7/4 589/7/4
f 588/1/4 584/1/4 589/1/4
f 589/7/4 579/7/4 590/7/4
f 585/1/4 586/1/4 591/1/4
f 586/1/4 587/1/4 591/1/4
f 587/5/4 588/5/4 592/5/4
f 591/1/4 587/1/4 592/1/4
f 589/1/4 590/1/4 593/1/4
f 592/5/4 588/5/4 593/5/4
f 588/1/4 589/1/4 593/1/4
f 593/1/4 590/1/4 594/1/4
f 585/1/4 591/1/4 595/1/4
f 591/5/4 592/5/4 595/5/4
f 593/5/4 594/5/4 595/5/4
f 592/5/4 593/5/4 595/5/4
f 595/5/4 594/5/4 596/5/4
f 596/5/4 594/5/4 597/5/4
f 594/1/4 590/1/4 598/1/4
f 597/5/4 594/5/4 598/5/4
f 578/7/4 585/7/4 599/7/4
f 585/1/4 595/1/4 599/1/4
f 595/1/4 596/1/4 599/1/4
f 599/1/4 596/1/4 600/1/4
f 596/5/4 597/5/4 601/5/4
f 600/1/4 596/1/4 601/1/4
f 597/1/4 598/1/4 602/1/4
f 601/5/4 597/5/4 602/5/4
f 598/1/4 590/1/4 603/1/4
f 602/1/4 598/1/4 603/1/4
f 590/7/4 579/7/4 604/7/4
f 603/1/4 590/1/4 604/1/4
f 599/7/4 600/7/4 605/7/4
f 601/1/4 602/1/4 605/1/4
f 602/1/4 603/1/4 605/1/4
f 600/1/4 601/1/4 605/1/4
f 603/7/4 604/7/4 606/7/4
f 605/1/4 603/1/4 606/1/4
f 579/4/4 581/4/4 607/4/4
f 599/7/4 605/7/4 609/7/4
f 578/7/4 599/7/4 609/7/4
f 605/7/4 606/7/4 609/7/4
f 606/7/4 604/7/4 610/7/4
f 609/7/4 606/7/4 610/7/4
f 604/7/4 579/7/4 610/7/4
f 579/4/4 607/4/4 610/4/4
f 607/4/4 608/4/4 610/4/4
f 610/4/4 608/4/4 611/4/4
f 614/7/5 613/7/5 612/7/5
f 615/7/5 613/7/5 614/7/5
f 618/1/5 617/1/5 616/1/5
f 619/1/5 617/1/5 618/1/5
f 622/2/5 621/2/5 620/2/5
f 623/2/5 621/2/5 622/2/5
f 626/3/5 625/3/5 624/3/5
f 627/3/5 625/3/5 626/3/5
f 630/5/5 629/5/5 628/5/5
f 631/5/5 629/5/5 630/5/5
f 634/5/5 633/5/5 632/5/5
f 635/5/5 633/5/5 634/5/5
f 638/5/5 637/5/5 636/5/5
f 639/5/5 637/5/5 638/5/5
f 642/5/5 641/5/5 640/5/5
f 643/5/5 641/5/5 642/5/5
f 646/5/5 645/5/5 644/5/5
f 647/5/5 645/5/5 646/5/5
f 650/5/5 649/5/5 648/5/5
f 651/5/5 649/5/5 650/5/5
f 652/6/6 653/6/6 655/6/6
f 655/6/6 653/6/6 656/6/6
f 654/6/6 655/6/6 659/6/6
f 656/6/6 657/6/6 659/6/6
f 655/6/6 656/6/6 659/6/6
f 659/6/6 657/6/6 660/6/6
f 660/6/6 657/6/6 661/6/6
f 661/6/6 657/6/6 662/6/6
f 658/6/6 659/6/6 665/6/6
f 659/6/6 660/6/6 665/6/6
f 665/6/6 660/6/6 666/6/6
f 660/7/6 661/7/6 667/7/6
f 666/6/6 660/6/6 667/6/6
f 667/7/6 661/7/6 668/7/6
f 668/7/6 661/7/6 669/7/6
f 662/6/6 663/6/6 670/6/6
f 669/7/6 661/7/6 670/7/6
f 661/6/6 662/6/6 670/6/6
f 670/6/6 663/6/6 671/6/6
f 671/6/6 663/6/6 672/6/6
f 667/6/6 668/6/6 674/6/6
f 666/7/6 667/7/6 674/7/6
f 668/7/6 669/7/6 675/7/6
f 674/6/6 668/6/6 675/6/6
f 669/6/6 670/6/6 676/6/6
f 675/7/6 669/7/6 676/7/6
f 670/7/6 671/7/6 677/7/6
f 676/6/6 670/6/6 677/6/6
f 666/7/6 674/7/6 678/7/6
f 674/7/6 675/7/6 678/7/6
f 675/6/6 676/6/6 679/6/6
f 678/7/6 675/7/6 679/7/6
f 676/7/6 677/7/6 680/7/6
f 679/6/6 676/6/6 680/6/6
f 677/7/6 671/7/6 681/7/6
f 680/7/6 677/7/6 681/7/6
f 665/6/6 666/6/6 682/6/6
f 664/6/6 665/6/6 682/6/6
f 682/6/6 666/6/6 683/6/6
f 666/7/6 678/7/6 684/7/6
f 683/6/6 666/6/6 684/6/6
f 678/6/6 679/6/6 685/6/6
f 684/7/6 678/7/6 685/7/6
f 679/7/6 680/7/6 686/7/6
f 685/6/6 679/6/6 686/6/6
f 680/6/6 681/6/6 687/6/6
f 686/7/6 680/7/6 687/7/6
f 681/7/6 671/7/6 688/7/6
f 687/6/6 681/6/6 688/6/6
f 672/6/6 673/6/6 689/6/6
f 688/7/6 671/7/6 689/7/6
f 671/6/6 672/6/6 689/6/6
f 689/6/6 673/6/6 690/6/6
f 690/6/6 673/6/6 691/6/6
f 684/6/6 685/6/6 692/6/6
f 683/6/6 684/6/6 692/6/6
f 692/6/6 685/6/6 693/6/6
f 687/7/6 688/7/6 694/7/6
f 693/6/6 685/6/6 694/6/6
f 686/7/6 687/7/6 694/7/6
f 685/7/6 686/7/6 694/7/6
f 688/6/6 689/6/6 695/6/6
f 694/7/6 688/7/6 695/7/6
f 689/6/6 690/6/6 695/6/6
f 695/6/6 690/6/6 696/6/6
f 696/6/6 690/6/6 697/6/6
f 693/6/6 694/6/6 698/6/6
f 695/6/6 696/6/6 698/6/6
f 694/6/6 695/6/6 698/6/6
f 698/6/6 696/6/6 699/6/6
f 699/6/6 696/6/6 700/6/6
f 700/6/6 696/6/6 701/6/6
f 699/6/6 700/6/6 702/6/6
f 702/6/6 700/6/6 703/6/6
f 704/4/6 705/4/6 707/4/6
f 707/4/6 705/4/6 708/4/6
f 708/4/6 705/4/6 709/4/6
f 709/4/6 705/4/6 710/4/6
f 706/4/6 707/4/6 712/4/6
f 707/7/6 708/7/6 712/7/6
f 712/7/6 708/7/6 713/7/6
f 709/7/6 710/7/6 714/7/6
f 714/7/6 710/7/6 715/7/6
f 706/4/6 712/4/6 716/4/6
f 715/7/6 710/7/6 719/7/6
f 719/7/6 710/7/6 720/7/6
f 720/7/6 710/7/6 721/7/6
f 716/7/6 717/7/6 722/7/6
f 718/7/6 719/7/6 723/7/6
f 719/7/6 720/7/6 723/7/6
f 723/7/6 720/7/6 724/7/6
f 724/7/6 720/7/6 725/7/6
f 721/7/6 710/7/6 726/7/6
f 726/7/6 710/7/6 727/7/6
f 722/7/6 723/7/6 728/7/6
f 723/7/6 724/7/6 728/7/6
f 728/7/6 724/7/6 729/7/6
f 727/7/6 710/7/6 730/7/6
f 730/7/6 710/7/6 731/7/6
f 722/7/6 728/7/6 732/7/6
f 732/7/6 728/7/6 733/7/6
f 731/7/6 710/7/6 734/7/6
f 734/7/6 710/7/6 735/7/6
f 735/7/6 710/7/6 736/7/6
f 736/7/6 710/7/6 737/7/6
f 722/7/6 732/7/6 738/7/6
f 737/7/6 710/7/6 740/7/6
f 710/4/6 711/4/6 741/4/6
f 740/7/6 710/7/6 741/7/6
f 738/7/6 739/7/6 742/7/6
f 741/4/6 711/4/6 748/4/6
f 716/7/6 722/7/6 749/7/6
f 722/7/6 738/7/6 749/7/6
f 738/7/6 742/7/6 749/7/6
f 742/7/6 743/7/6 749/7/6
f 749/7/6 743/7/6 750/7/6
f 750/7/6 743/7/6 751/7/6
f 745/7/6 746/7/6 754/7/6
f 744/7/6 745/7/6 754/7/6
f 754/7/6 746/7/6 755/7/6
f 747/7/6 748/7/6 756/7/6
f 706/4/6 716/4/6 757/4/6
f 716/7/6 749/7/6 757/7/6
f 757/7/6 749/7/6 758/7/6
f 751/7/6 752/7/6 759/7/6
f 750/7/6 751/7/6 759/7/6
f 759/7/6 752/7/6 760/7/6
f 760/7/6 752/7/6 761/7/6
f 755/7/6 756/7/6 762/7/6
f 754/7/6 755/7/6 762/7/6
f 753/7/6 754/7/6 762/7/6
f 706/4/6 757/4/6 763/4/6
f 760/7/6 761/7/6 766/7/6
f 761/7/6 762/7/6 766/7/6
f 706/4/6 763/4/6 767/4/6
f 763/7/6 764/7/6 768/7/6
f 767/4/6 763/4/6 768/4/6
f 768/7/6 764/7/6 769/7/6
f 765/7/6 766/7/6 770/7/6
f 762/7/6 756/7/6 771/7/6
f 748/4/6 711/4/6 771/4/6
f 770/7/6 766/7/6 771/7/6
f 756/7/6 748/7/6 771/7/6
f 766/7/6 762/7/6 771/7/6
f 771/4/6 711/4/6 772/4/6
f 768/4/6 769/4/6 773/4/6
f 769/4/6 770/4/6 773/4/6
f 770/4/6 771/4/6 773/4/6
f 773/4/6 771/4/6 774/4/6
f 775/4/6 776/4/6 779/4/6
f 779/4/6 776/4/6 780/4/6
f 777/4/6 778/4/6 783/4/6
f 783/4/6 778/4/6 784/4/6
f 781/5/6 782/5/6 786/5/6
f 786/5/6 782/5/6 787/5/6
f 785/5/6 786/5/6 789/5/6
f 789/5/6 786/5/6 790/5/6
f 787/5/6 788/5/6 791/5/6
f 791/5/6 788/5/6 792/5/6
f 790/5/6 791/5/6 793/5/6
f 793/5/6 791/5/6 794/5/6
f 795/5/6 796/5/6 798/5/6
f 798/5/6 796/5/6 799/5/6
f 797/5/6 798/5/6 801/5/6
f 801/5/6 798/5/6 802/5/6
f 799/5/6 800/5/6 803/5/6
f 803/5/6 800/5/6 804/5/6
f 802/5/6 803/5/6 807/5/6
f 807/5/6 803/5/6 808/5/6
f 805/5/6 806/5/6 810/5/6
f 810/5/6 806/5/6 811/5/6
f 809/5/6 810/5/6 813/5/6
f 813/5/6 810/5/6 814/5/6
f 811/5/6 812/5/6 815/5/6
f 815/5/6 812/5/6 816/5/6
f 814/5/6 815/5/6 819/5/6
f 819/5/6 815/5/6 820/5/6
f 817/4/6 818/4/6 823/4/6
f 823/4/6 818/4/6 824/4/6
f 821/4/6 822/4/6 825/4/6
f 825/4/6 822/4/6 826/4/6
f 827/5/6 828/5/6 829/5/6
f 829/5/6 828/5/6 830/5/6
f 831/5/6 832/5/6 833/5/6
f 833/5/6 832/5/6 834/5/6
f 835/5/6 836/5/6 837/5/6
f 837/5/6 836/5/6 838/5/6
f 839/5/6 840/5/6 841/5/6
f 841/5/6 840/5/6 842/5/6
f 843/5/6 844/5/6 845/5/6
f 845/5/6 844/5/6 846/5/6
f 847/5/6 848/5/6 849/5/6
f 849/5/6 848/5/6 850/5/6
f 851/5/6 852/5/6 853/5/6
f 853/5/6 852/5/6 854/5/6
f 855/5/6 856/5/6 859/5/6
f 859/5/6 856/5/6 860/5/6
f 857/5/6 858/5/6 861/5/6
f 861/5/6 858/5/6 862/5/6
f 863/5/6 864/5/6 865/5/6
f 865/5/6 864/5/6 866/5/6
f 867/5/6 868/5/6 869/5/6
f 869/5/6 868/5/6 870/5/6
f 871/5/6 872/5/6 873/5/6
f 873/5/6 872/5/6 874/5/6
