# MagicaVoxel @ Ephtracy

# group
o 

# material
mtllib Furnace.mtl
usemtl palette

# normals
vn -1 0 0
vn 1 0 0
vn 0 0 1
vn 0 0 -1
vn 0 -1 0
vn 0 1 0

# texcoords
vt 0.146484 0.5
vt 0.982422 0.5
vt 0.986328 0.5
vt 0.990234 0.5
vt 0.994141 0.5

# verts
v -0.8 0 0.8
v -0.8 0 -0.8
v -0.8 0.6 0.8
v -0.8 0.6 -0.8
v -0.8 0.9 0.8
v -0.8 0.9 -0.8
v -0.7 0.9 0.8
v -0.7 0.9 -0.8
v -0.7 1.1 0.8
v -0.7 1.1 -0.8
v -0.6 1.1 0.8
v -0.6 1.1 -0.8
v -0.6 1.3 0.8
v -0.6 1.3 -0.8
v -0.4 1.3 0.8
v -0.4 1.3 -0.8
v -0.4 1.4 0.8
v -0.4 1.4 -0.8
v 0.3 1.1 0.7
v 0.3 1.1 0.6
v 0.3 1.1 -0.6
v 0.3 1.1 -0.7
v 0.3 1.2 0.8
v 0.3 1.2 0.7
v 0.3 1.2 0.6
v 0.3 1.2 -0.6
v 0.3 1.2 -0.7
v 0.3 1.2 -0.8
v 0.3 1.3 0.8
v 0.3 1.3 0.7
v 0.3 1.3 -0.7
v 0.3 1.3 -0.8
v 0.4 1 0.7
v 0.4 1 0.6
v 0.4 1 -0.6
v 0.4 1 -0.7
v 0.4 1.1 0.7
v 0.4 1.1 0.6
v 0.4 1.1 -0.6
v 0.4 1.1 -0.7
v 0.4 1.4 0.6
v 0.4 1.4 0.2
v 0.4 1.6 0.6
v 0.4 1.6 0.2
v 0.5 0.8 0.7
v 0.5 0.8 0.6
v 0.5 0.8 -0.6
v 0.5 0.8 -0.7
v 0.5 1 0.8
v 0.5 1 0.7
v 0.5 1 0.6
v 0.5 1 -0.6
v 0.5 1 -0.7
v 0.5 1 -0.8
v 0.5 1.2 0.8
v 0.5 1.2 0.7
v 0.5 1.2 -0.7
v 0.5 1.2 -0.8
v 0.6 0.7 0.7
v 0.6 0.7 0.6
v 0.6 0.8 0.8
v 0.6 0.8 0.7
v 0.6 0.8 0.6
v 0.6 0.8 -0.7
v 0.6 0.8 -0.8
v 0.6 1 0.8
v 0.6 1 0.7
v 0.6 1 -0.7
v 0.6 1 -0.8
v 0.7 0.7 0.8
v 0.7 0.7 0.7
v 0.7 0.7 -0.6
v 0.7 0.7 -0.8
v 0.7 0.8 0.8
v 0.7 0.8 0.7
v 0.7 0.8 -0.6
v 0.7 0.8 -0.8
v 0.7 1.5 0.5
v 0.7 1.5 0.3
v 0.7 1.6 0.5
v 0.7 1.6 0.3
v -0.7 0.7 0.8
v -0.7 0.7 0.7
v -0.7 0.7 -0.6
v -0.7 0.7 -0.8
v -0.7 0.8 0.8
v -0.7 0.8 0.7
v -0.7 0.8 -0.6
v -0.7 0.8 -0.8
v -0.6 0.7 0.7
v -0.6 0.7 0.6
v -0.6 0.8 0.8
v -0.6 0.8 0.7
v -0.6 0.8 0.6
v -0.6 0.8 -0.7
v -0.6 0.8 -0.8
v -0.6 1 0.8
v -0.6 1 0.7
v -0.6 1 -0.7
v -0.6 1 -0.8
v -0.5 0.8 0.7
v -0.5 0.8 0.6
v -0.5 0.8 -0.6
v -0.5 0.8 -0.7
v -0.5 1 0.8
v -0.5 1 0.7
v -0.5 1 0.6
v -0.5 1 -0.6
v -0.5 1 -0.7
v -0.5 1 -0.8
v -0.5 1.2 0.8
v -0.5 1.2 0.7
v -0.5 1.2 -0.7
v -0.5 1.2 -0.8
v -0.4 1 0.7
v -0.4 1 0.6
v -0.4 1 -0.6
v -0.4 1 -0.7
v -0.4 1.1 0.7
v -0.4 1.1 0.6
v -0.4 1.1 -0.6
v -0.4 1.1 -0.7
v -0.3 1.1 0.7
v -0.3 1.1 0.6
v -0.3 1.1 -0.6
v -0.3 1.1 -0.7
v -0.3 1.2 0.8
v -0.3 1.2 0.7
v -0.3 1.2 0.6
v -0.3 1.2 -0.6
v -0.3 1.2 -0.7
v -0.3 1.2 -0.8
v -0.3 1.3 0.8
v -0.3 1.3 0.7
v -0.3 1.3 -0.7
v -0.3 1.3 -0.8
v 0.4 1.3 0.8
v 0.4 1.3 0.6
v 0.4 1.3 0.2
v 0.4 1.3 -0.8
v 0.4 1.4 0.8
v 0.4 1.4 0.6
v 0.4 1.4 0.2
v 0.4 1.4 -0.8
v 0.5 1.5 0.5
v 0.5 1.5 0.3
v 0.5 1.6 0.5
v 0.5 1.6 0.3
v 0.6 1.1 0.8
v 0.6 1.1 0.6
v 0.6 1.1 0.2
v 0.6 1.1 -0.8
v 0.6 1.3 0.8
v 0.6 1.3 0.6
v 0.6 1.3 0.2
v 0.6 1.3 -0.8
v 0.7 0.9 0.8
v 0.7 0.9 0.6
v 0.7 0.9 0.2
v 0.7 0.9 -0.8
v 0.7 1.1 0.8
v 0.7 1.1 0.6
v 0.7 1.1 0.2
v 0.7 1.1 -0.8
v 0.8 0 0.8
v 0.8 0 -0.8
v 0.8 0.6 0.8
v 0.8 0.6 0.6
v 0.8 0.6 0.2
v 0.8 0.6 -0.8
v 0.8 0.9 0.8
v 0.8 0.9 0.6
v 0.8 0.9 0.2
v 0.8 0.9 -0.8
v 0.8 1.6 0.6
v 0.8 1.6 0.2
v -0.8 0 0.8
v -0.8 0.6 0.8
v -0.8 0.9 0.8
v -0.7 0.6 0.8
v -0.7 0.7 0.8
v -0.7 0.8 0.8
v -0.7 0.9 0.8
v -0.7 1.1 0.8
v -0.6 0.8 0.8
v -0.6 1 0.8
v -0.6 1.1 0.8
v -0.6 1.3 0.8
v -0.5 1 0.8
v -0.5 1.2 0.8
v -0.4 1.3 0.8
v -0.4 1.4 0.8
v -0.3 1.2 0.8
v -0.3 1.3 0.8
v -0.1 1.3 0.8
v -0.1 1.4 0.8
v 0.1 1.3 0.8
v 0.1 1.4 0.8
v 0.3 1.2 0.8
v 0.3 1.3 0.8
v 0.4 1.3 0.8
v 0.4 1.4 0.8
v 0.5 1 0.8
v 0.5 1.2 0.8
v 0.6 0.8 0.8
v 0.6 1 0.8
v 0.6 1.1 0.8
v 0.6 1.3 0.8
v 0.7 0.6 0.8
v 0.7 0.7 0.8
v 0.7 0.8 0.8
v 0.7 0.9 0.8
v 0.7 1.1 0.8
v 0.8 0 0.8
v 0.8 0.6 0.8
v 0.8 0.9 0.8
v -0.7 0.7 0.7
v -0.7 0.8 0.7
v -0.6 0.7 0.7
v -0.6 0.8 0.7
v -0.6 1 0.7
v -0.5 0.8 0.7
v -0.5 1 0.7
v -0.5 1.2 0.7
v -0.4 1 0.7
v -0.4 1.1 0.7
v -0.3 1.1 0.7
v -0.3 1.2 0.7
v -0.3 1.3 0.7
v -0.1 1.3 0.7
v 0.1 1.3 0.7
v 0.3 1.1 0.7
v 0.3 1.2 0.7
v 0.3 1.3 0.7
v 0.4 1 0.7
v 0.4 1.1 0.7
v 0.5 0.8 0.7
v 0.5 1 0.7
v 0.5 1.2 0.7
v 0.6 0.7 0.7
v 0.6 0.8 0.7
v 0.6 1 0.7
v 0.7 0.7 0.7
v 0.7 0.8 0.7
v -0.6 0.7 0.6
v -0.6 0.8 0.6
v -0.5 0.8 0.6
v -0.5 1 0.6
v -0.4 1 0.6
v -0.4 1.1 0.6
v -0.3 1.1 0.6
v -0.3 1.2 0.6
v 0.3 1.1 0.6
v 0.3 1.2 0.6
v 0.4 1 0.6
v 0.4 1.1 0.6
v 0.4 1.3 0.6
v 0.4 1.4 0.6
v 0.4 1.6 0.6
v 0.5 0.8 0.6
v 0.5 1 0.6
v 0.6 0.7 0.6
v 0.6 0.8 0.6
v 0.6 1.1 0.6
v 0.6 1.3 0.6
v 0.7 0.9 0.6
v 0.7 1.1 0.6
v 0.8 0.9 0.6
v 0.8 1.6 0.6
v 0.5 1.5 0.3
v 0.5 1.6 0.3
v 0.7 1.5 0.3
v 0.7 1.6 0.3
v 0.5 1.5 0.5
v 0.5 1.6 0.5
v 0.7 1.5 0.5
v 0.7 1.6 0.5
v 0.4 1.3 0.2
v 0.4 1.4 0.2
v 0.4 1.6 0.2
v 0.6 1.1 0.2
v 0.6 1.3 0.2
v 0.7 0.9 0.2
v 0.7 1.1 0.2
v 0.8 0.9 0.2
v 0.8 1.6 0.2
v -0.7 0.7 -0.6
v -0.7 0.8 -0.6
v -0.5 0.8 -0.6
v -0.5 1 -0.6
v -0.4 1 -0.6
v -0.4 1.1 -0.6
v -0.3 1.1 -0.6
v -0.3 1.2 -0.6
v 0.3 1.1 -0.6
v 0.3 1.2 -0.6
v 0.4 1 -0.6
v 0.4 1.1 -0.6
v 0.5 0.8 -0.6
v 0.5 1 -0.6
v 0.7 0.7 -0.6
v 0.7 0.8 -0.6
v -0.6 0.8 -0.7
v -0.6 1 -0.7
v -0.5 0.8 -0.7
v -0.5 1 -0.7
v -0.5 1.2 -0.7
v -0.4 1 -0.7
v -0.4 1.1 -0.7
v -0.3 1.1 -0.7
v -0.3 1.2 -0.7
v -0.3 1.3 -0.7
v -0.1 1.3 -0.7
v 0.1 1.3 -0.7
v 0.3 1.1 -0.7
v 0.3 1.2 -0.7
v 0.3 1.3 -0.7
v 0.4 1 -0.7
v 0.4 1.1 -0.7
v 0.5 0.8 -0.7
v 0.5 1 -0.7
v 0.5 1.2 -0.7
v 0.6 0.8 -0.7
v 0.6 1 -0.7
v -0.8 0 -0.8
v -0.8 0.6 -0.8
v -0.8 0.9 -0.8
v -0.7 0.6 -0.8
v -0.7 0.7 -0.8
v -0.7 0.8 -0.8
v -0.7 0.9 -0.8
v -0.7 1.1 -0.8
v -0.6 0.8 -0.8
v -0.6 1 -0.8
v -0.6 1.1 -0.8
v -0.6 1.3 -0.8
v -0.5 1 -0.8
v -0.5 1.2 -0.8
v -0.4 1.3 -0.8
v -0.4 1.4 -0.8
v -0.3 1.2 -0.8
v -0.3 1.3 -0.8
v -0.1 1.3 -0.8
v -0.1 1.4 -0.8
v 0.1 1.3 -0.8
v 0.1 1.4 -0.8
v 0.3 1.2 -0.8
v 0.3 1.3 -0.8
v 0.4 1.3 -0.8
v 0.4 1.4 -0.8
v 0.5 1 -0.8
v 0.5 1.2 -0.8
v 0.6 0.8 -0.8
v 0.6 1 -0.8
v 0.6 1.1 -0.8
v 0.6 1.3 -0.8
v 0.7 0.6 -0.8
v 0.7 0.7 -0.8
v 0.7 0.8 -0.8
v 0.7 0.9 -0.8
v 0.7 1.1 -0.8
v 0.8 0 -0.8
v 0.8 0.6 -0.8
v 0.8 0.9 -0.8
v -0.8 0 0.8
v 0.8 0 0.8
v -0.8 0 -0.8
v 0.8 0 -0.8
v -0.7 0.8 0.8
v -0.6 0.8 0.8
v 0.6 0.8 0.8
v 0.7 0.8 0.8
v -0.7 0.8 0.7
v -0.6 0.8 0.7
v -0.5 0.8 0.7
v 0.5 0.8 0.7
v 0.6 0.8 0.7
v 0.7 0.8 0.7
v -0.6 0.8 0.6
v -0.5 0.8 0.6
v 0.5 0.8 0.6
v 0.6 0.8 0.6
v -0.7 0.8 -0.6
v -0.5 0.8 -0.6
v 0.5 0.8 -0.6
v 0.7 0.8 -0.6
v -0.6 0.8 -0.7
v -0.5 0.8 -0.7
v 0.5 0.8 -0.7
v 0.6 0.8 -0.7
v -0.7 0.8 -0.8
v -0.6 0.8 -0.8
v 0.6 0.8 -0.8
v 0.7 0.8 -0.8
v -0.6 1 0.8
v -0.5 1 0.8
v 0.5 1 0.8
v 0.6 1 0.8
v -0.6 1 0.7
v -0.5 1 0.7
v -0.4 1 0.7
v 0.4 1 0.7
v 0.5 1 0.7
v 0.6 1 0.7
v -0.5 1 0.6
v -0.4 1 0.6
v 0.4 1 0.6
v 0.5 1 0.6
v -0.5 1 -0.6
v -0.4 1 -0.6
v 0.4 1 -0.6
v 0.5 1 -0.6
v -0.6 1 -0.7
v -0.5 1 -0.7
v -0.4 1 -0.7
v 0.4 1 -0.7
v 0.5 1 -0.7
v 0.6 1 -0.7
v -0.6 1 -0.8
v -0.5 1 -0.8
v 0.5 1 -0.8
v 0.6 1 -0.8
v -0.4 1.1 0.7
v -0.3 1.1 0.7
v 0.3 1.1 0.7
v 0.4 1.1 0.7
v -0.4 1.1 0.6
v -0.3 1.1 0.6
v 0.3 1.1 0.6
v 0.4 1.1 0.6
v -0.4 1.1 -0.6
v -0.3 1.1 -0.6
v 0.3 1.1 -0.6
v 0.4 1.1 -0.6
v -0.4 1.1 -0.7
v -0.3 1.1 -0.7
v 0.3 1.1 -0.7
v 0.4 1.1 -0.7
v -0.5 1.2 0.8
v -0.3 1.2 0.8
v 0.3 1.2 0.8
v 0.5 1.2 0.8
v -0.5 1.2 0.7
v -0.3 1.2 0.7
v 0.3 1.2 0.7
v 0.5 1.2 0.7
v -0.3 1.2 0.6
v 0.3 1.2 0.6
v -0.3 1.2 -0.6
v 0.3 1.2 -0.6
v -0.5 1.2 -0.7
v -0.3 1.2 -0.7
v 0.3 1.2 -0.7
v 0.5 1.2 -0.7
v -0.5 1.2 -0.8
v -0.3 1.2 -0.8
v 0.3 1.2 -0.8
v 0.5 1.2 -0.8
v -0.3 1.3 0.8
v -0.1 1.3 0.8
v 0.1 1.3 0.8
v 0.3 1.3 0.8
v -0.3 1.3 0.7
v -0.1 1.3 0.7
v 0.1 1.3 0.7
v 0.3 1.3 0.7
v -0.3 1.3 -0.7
v -0.1 1.3 -0.7
v 0.1 1.3 -0.7
v 0.3 1.3 -0.7
v -0.3 1.3 -0.8
v -0.1 1.3 -0.8
v 0.1 1.3 -0.8
v 0.3 1.3 -0.8
v -0.7 0.7 0.8
v 0.7 0.7 0.8
v -0.7 0.7 0.7
v -0.6 0.7 0.7
v 0.6 0.7 0.7
v 0.7 0.7 0.7
v -0.6 0.7 0.6
v 0.6 0.7 0.6
v -0.7 0.7 -0.6
v 0.7 0.7 -0.6
v -0.7 0.7 -0.8
v 0.7 0.7 -0.8
v -0.8 0.9 0.8
v -0.7 0.9 0.8
v 0.7 0.9 0.8
v 0.8 0.9 0.8
v 0.7 0.9 0.6
v 0.8 0.9 0.6
v 0.7 0.9 0.2
v 0.8 0.9 0.2
v -0.8 0.9 -0.8
v -0.7 0.9 -0.8
v 0.7 0.9 -0.8
v 0.8 0.9 -0.8
v -0.7 1.1 0.8
v -0.6 1.1 0.8
v 0.6 1.1 0.8
v 0.7 1.1 0.8
v 0.6 1.1 0.6
v 0.7 1.1 0.6
v 0.6 1.1 0.2
v 0.7 1.1 0.2
v -0.7 1.1 -0.8
v -0.6 1.1 -0.8
v 0.6 1.1 -0.8
v 0.7 1.1 -0.8
v -0.6 1.3 0.8
v -0.4 1.3 0.8
v 0.4 1.3 0.8
v 0.6 1.3 0.8
v 0.4 1.3 0.6
v 0.6 1.3 0.6
v 0.4 1.3 0.2
v 0.6 1.3 0.2
v -0.6 1.3 -0.8
v -0.4 1.3 -0.8
v 0.4 1.3 -0.8
v 0.6 1.3 -0.8
v -0.4 1.4 0.8
v -0.1 1.4 0.8
v 0.1 1.4 0.8
v 0.4 1.4 0.8
v 0.4 1.4 0.6
v 0.4 1.4 0.2
v -0.3 1.4 -0.5
v -0.2 1.4 -0.5
v 0.2 1.4 -0.5
v 0.3 1.4 -0.5
v -0.3 1.4 -0.6
v -0.2 1.4 -0.6
v -0.1 1.4 -0.6
v 0.1 1.4 -0.6
v 0.2 1.4 -0.6
v 0.3 1.4 -0.6
v -0.2 1.4 -0.7
v -0.1 1.4 -0.7
v 0.1 1.4 -0.7
v 0.2 1.4 -0.7
v -0.4 1.4 -0.8
v -0.1 1.4 -0.8
v 0.1 1.4 -0.8
v 0.4 1.4 -0.8
v 0.5 1.5 0.5
v 0.7 1.5 0.5
v 0.5 1.5 0.3
v 0.7 1.5 0.3
v 0.4 1.6 0.6
v 0.8 1.6 0.6
v 0.5 1.6 0.5
v 0.7 1.6 0.5
v 0.5 1.6 0.3
v 0.7 1.6 0.3
v 0.4 1.6 0.2
v 0.8 1.6 0.2

# faces
f 3/5/1 2/5/1 1/5/1
f 4/5/1 2/5/1 3/5/1
f 5/2/1 4/2/1 3/2/1
f 6/2/1 4/2/1 5/2/1
f 9/2/1 8/2/1 7/2/1
f 10/2/1 8/2/1 9/2/1
f 13/2/1 12/2/1 11/2/1
f 14/2/1 12/2/1 13/2/1
f 17/2/1 16/2/1 15/2/1
f 18/2/1 16/2/1 17/2/1
f 24/2/1 20/2/1 19/2/1
f 25/2/1 20/2/1 24/2/1
f 26/2/1 22/2/1 21/2/1
f 27/2/1 22/2/1 26/2/1
f 29/2/1 24/2/1 23/2/1
f 30/2/1 24/2/1 29/2/1
f 31/2/1 28/2/1 27/2/1
f 32/2/1 28/2/1 31/2/1
f 37/2/1 34/2/1 33/2/1
f 38/2/1 34/2/1 37/2/1
f 39/2/1 36/2/1 35/2/1
f 40/2/1 36/2/1 39/2/1
f 43/3/1 42/3/1 41/3/1
f 44/3/1 42/3/1 43/3/1
f 50/2/1 46/2/1 45/2/1
f 51/2/1 46/2/1 50/2/1
f 52/2/1 48/2/1 47/2/1
f 53/2/1 48/2/1 52/2/1
f 55/2/1 50/2/1 49/2/1
f 56/2/1 50/2/1 55/2/1
f 57/2/1 54/2/1 53/2/1
f 58/2/1 54/2/1 57/2/1
f 62/2/1 60/2/1 59/2/1
f 63/2/1 60/2/1 62/2/1
f 66/2/1 62/2/1 61/2/1
f 67/2/1 62/2/1 66/2/1
f 68/2/1 65/2/1 64/2/1
f 69/2/1 65/2/1 68/2/1
f 74/2/1 71/2/1 70/2/1
f 75/2/1 71/2/1 74/2/1
f 76/2/1 73/2/1 72/2/1
f 77/2/1 73/2/1 76/2/1
f 80/3/1 79/3/1 78/3/1
f 81/3/1 79/3/1 80/3/1
f 82/2/2 83/2/2 86/2/2
f 86/2/2 83/2/2 87/2/2
f 84/2/2 85/2/2 88/2/2
f 88/2/2 85/2/2 89/2/2
f 90/2/2 91/2/2 93/2/2
f 93/2/2 91/2/2 94/2/2
f 92/2/2 93/2/2 97/2/2
f 97/2/2 93/2/2 98/2/2
f 95/2/2 96/2/2 99/2/2
f 99/2/2 96/2/2 100/2/2
f 101/2/2 102/2/2 106/2/2
f 106/2/2 102/2/2 107/2/2
f 103/2/2 104/2/2 108/2/2
f 108/2/2 104/2/2 109/2/2
f 105/2/2 106/2/2 111/2/2
f 111/2/2 106/2/2 112/2/2
f 109/2/2 110/2/2 113/2/2
f 113/2/2 110/2/2 114/2/2
f 115/2/2 116/2/2 119/2/2
f 119/2/2 116/2/2 120/2/2
f 117/2/2 118/2/2 121/2/2
f 121/2/2 118/2/2 122/2/2
f 123/2/2 124/2/2 128/2/2
f 128/2/2 124/2/2 129/2/2
f 125/2/2 126/2/2 130/2/2
f 130/2/2 126/2/2 131/2/2
f 127/2/2 128/2/2 133/2/2
f 133/2/2 128/2/2 134/2/2
f 131/2/2 132/2/2 135/2/2
f 135/2/2 132/2/2 136/2/2
f 137/2/2 138/2/2 141/2/2
f 141/2/2 138/2/2 142/2/2
f 139/2/2 140/2/2 143/2/2
f 143/2/2 140/2/2 144/2/2
f 145/3/2 146/3/2 147/3/2
f 147/3/2 146/3/2 148/3/2
f 149/2/2 150/2/2 153/2/2
f 153/2/2 150/2/2 154/2/2
f 151/2/2 152/2/2 155/2/2
f 155/2/2 152/2/2 156/2/2
f 157/2/2 158/2/2 161/2/2
f 161/2/2 158/2/2 162/2/2
f 159/2/2 160/2/2 163/2/2
f 163/2/2 160/2/2 164/2/2
f 165/5/2 166/5/2 167/5/2
f 167/5/2 166/5/2 168/5/2
f 168/5/2 166/5/2 169/5/2
f 169/5/2 166/5/2 170/5/2
f 167/2/2 168/2/2 171/2/2
f 168/3/2 169/3/2 172/3/2
f 171/2/2 168/2/2 172/2/2
f 169/2/2 170/2/2 173/2/2
f 172/3/2 169/3/2 173/3/2
f 173/2/2 170/2/2 174/2/2
f 172/3/2 173/3/2 175/3/2
f 175/3/2 173/3/2 176/3/2
f 180/5/3 178/5/3 177/5/3
f 180/2/3 179/2/3 178/2/3
f 181/2/3 179/2/3 180/2/3
f 182/2/3 179/2/3 181/2/3
f 183/2/3 179/2/3 182/2/3
f 185/2/3 184/2/3 183/2/3
f 185/2/3 183/2/3 182/2/3
f 186/2/3 184/2/3 185/2/3
f 187/2/3 184/2/3 186/2/3
f 189/2/3 188/2/3 187/2/3
f 189/2/3 187/2/3 186/2/3
f 190/2/3 188/2/3 189/2/3
f 191/2/3 188/2/3 190/2/3
f 193/2/3 191/2/3 190/2/3
f 193/2/3 192/2/3 191/2/3
f 194/2/3 192/2/3 193/2/3
f 195/2/3 192/2/3 194/2/3
f 196/2/3 192/2/3 195/2/3
f 197/1/3 196/1/3 195/1/3
f 198/1/3 196/1/3 197/1/3
f 200/2/3 198/2/3 197/2/3
f 201/2/3 198/2/3 200/2/3
f 201/2/3 200/2/3 199/2/3
f 202/2/3 198/2/3 201/2/3
f 204/2/3 201/2/3 199/2/3
f 206/2/3 204/2/3 203/2/3
f 207/2/3 204/2/3 206/2/3
f 208/2/3 201/2/3 204/2/3
f 208/2/3 204/2/3 207/2/3
f 209/5/3 180/5/3 177/5/3
f 209/3/3 181/3/3 180/3/3
f 210/3/3 181/3/3 209/3/3
f 211/2/3 206/2/3 205/2/3
f 211/2/3 207/2/3 206/2/3
f 212/2/3 207/2/3 211/2/3
f 213/2/3 207/2/3 212/2/3
f 214/5/3 209/5/3 177/5/3
f 215/2/3 210/2/3 209/2/3
f 215/5/3 209/5/3 214/5/3
f 215/2/3 211/2/3 210/2/3
f 215/2/3 212/2/3 211/2/3
f 216/2/3 212/2/3 215/2/3
f 219/2/3 218/2/3 217/2/3
f 220/2/3 218/2/3 219/2/3
f 222/2/3 221/2/3 220/2/3
f 223/2/3 221/2/3 222/2/3
f 225/2/3 224/2/3 223/2/3
f 226/2/3 224/2/3 225/2/3
f 227/2/3 224/2/3 226/2/3
f 228/2/3 224/2/3 227/2/3
f 230/2/3 229/2/3 228/2/3
f 231/2/3 230/2/3 228/2/3
f 233/2/3 231/2/3 228/2/3
f 234/2/3 231/2/3 233/2/3
f 236/2/3 233/2/3 232/2/3
f 238/2/3 236/2/3 235/2/3
f 239/2/3 233/2/3 236/2/3
f 239/2/3 236/2/3 238/2/3
f 241/2/3 238/2/3 237/2/3
f 242/2/3 238/2/3 241/2/3
f 243/2/3 241/2/3 240/2/3
f 244/2/3 241/2/3 243/2/3
f 247/5/3 246/5/3 245/5/3
f 249/5/3 248/5/3 247/5/3
f 251/5/3 250/5/3 249/5/3
f 253/5/3 251/5/3 249/5/3
f 253/5/3 252/5/3 251/5/3
f 254/5/3 252/5/3 253/5/3
f 255/5/3 249/5/3 247/5/3
f 255/5/3 253/5/3 249/5/3
f 256/5/3 253/5/3 255/5/3
f 260/5/3 247/5/3 245/5/3
f 260/5/3 255/5/3 247/5/3
f 261/5/3 255/5/3 260/5/3
f 262/5/3 260/5/3 245/5/3
f 263/5/3 260/5/3 262/5/3
f 265/3/3 259/3/3 258/3/3
f 265/3/3 258/3/3 257/3/3
f 267/3/3 265/3/3 264/3/3
f 268/3/3 267/3/3 266/3/3
f 269/3/3 259/3/3 265/3/3
f 269/3/3 267/3/3 268/3/3
f 269/3/3 265/3/3 267/3/3
f 272/3/3 271/3/3 270/3/3
f 273/3/3 271/3/3 272/3/3
f 274/3/4 275/3/4 276/3/4
f 276/3/4 275/3/4 277/3/4
f 278/3/4 279/3/4 282/3/4
f 279/3/4 280/3/4 282/3/4
f 281/3/4 282/3/4 284/3/4
f 283/3/4 284/3/4 285/3/4
f 282/3/4 280/3/4 286/3/4
f 285/3/4 284/3/4 286/3/4
f 284/3/4 282/3/4 286/3/4
f 287/5/4 288/5/4 289/5/4
f 289/5/4 290/5/4 291/5/4
f 291/5/4 292/5/4 293/5/4
f 291/5/4 293/5/4 295/5/4
f 293/5/4 294/5/4 295/5/4
f 295/5/4 294/5/4 296/5/4
f 289/5/4 291/5/4 297/5/4
f 291/5/4 295/5/4 297/5/4
f 297/5/4 295/5/4 298/5/4
f 287/5/4 289/5/4 299/5/4
f 289/5/4 297/5/4 299/5/4
f 299/5/4 297/5/4 300/5/4
f 287/5/4 299/5/4 301/5/4
f 301/5/4 299/5/4 302/5/4
f 303/2/4 304/2/4 305/2/4
f 305/2/4 304/2/4 306/2/4
f 306/2/4 307/2/4 308/2/4
f 308/2/4 307/2/4 309/2/4
f 309/2/4 307/2/4 310/2/4
f 310/2/4 307/2/4 311/2/4
f 311/2/4 312/2/4 313/2/4
f 311/2/4 313/2/4 314/2/4
f 311/2/4 314/2/4 316/2/4
f 316/2/4 314/2/4 317/2/4
f 315/2/4 316/2/4 319/2/4
f 318/2/4 319/2/4 321/2/4
f 319/2/4 316/2/4 322/2/4
f 321/2/4 319/2/4 322/2/4
f 320/2/4 321/2/4 323/2/4
f 323/2/4 321/2/4 324/2/4
f 325/5/4 326/5/4 328/5/4
f 326/2/4 327/2/4 328/2/4
f 328/2/4 327/2/4 329/2/4
f 329/2/4 327/2/4 330/2/4
f 330/2/4 327/2/4 331/2/4
f 331/2/4 332/2/4 333/2/4
f 330/2/4 331/2/4 333/2/4
f 333/2/4 332/2/4 334/2/4
f 334/2/4 332/2/4 335/2/4
f 335/2/4 336/2/4 337/2/4
f 334/2/4 335/2/4 337/2/4
f 337/2/4 336/2/4 338/2/4
f 338/2/4 336/2/4 339/2/4
f 338/2/4 339/2/4 341/2/4
f 339/2/4 340/2/4 341/2/4
f 341/2/4 340/2/4 342/2/4
f 342/2/4 340/2/4 343/2/4
f 343/2/4 340/2/4 344/2/4
f 343/1/4 344/1/4 345/1/4
f 345/1/4 344/1/4 346/1/4
f 345/2/4 346/2/4 348/2/4
f 348/2/4 346/2/4 349/2/4
f 347/2/4 348/2/4 349/2/4
f 349/2/4 346/2/4 350/2/4
f 347/2/4 349/2/4 352/2/4
f 351/2/4 352/2/4 354/2/4
f 354/2/4 352/2/4 355/2/4
f 352/2/4 349/2/4 356/2/4
f 355/2/4 352/2/4 356/2/4
f 325/5/4 328/5/4 357/5/4
f 328/4/4 329/4/4 357/4/4
f 357/4/4 329/4/4 358/4/4
f 353/2/4 354/2/4 359/2/4
f 354/2/4 355/2/4 359/2/4
f 359/2/4 355/2/4 360/2/4
f 360/2/4 355/2/4 361/2/4
f 325/5/4 357/5/4 362/5/4
f 357/2/4 358/2/4 363/2/4
f 362/5/4 357/5/4 363/5/4
f 358/2/4 359/2/4 363/2/4
f 359/2/4 360/2/4 363/2/4
f 363/2/4 360/2/4 364/2/4
f 367/5/5 366/5/5 365/5/5
f 368/5/5 366/5/5 367/5/5
f 373/2/5 370/2/5 369/2/5
f 374/2/5 370/2/5 373/2/5
f 377/2/5 372/2/5 371/2/5
f 378/2/5 372/2/5 377/2/5
f 379/2/5 375/2/5 374/2/5
f 380/2/5 375/2/5 379/2/5
f 381/2/5 377/2/5 376/2/5
f 382/2/5 377/2/5 381/2/5
f 387/2/5 384/2/5 383/2/5
f 388/2/5 384/2/5 387/2/5
f 389/2/5 386/2/5 385/2/5
f 390/2/5 386/2/5 389/2/5
f 391/2/5 387/2/5 383/2/5
f 392/2/5 387/2/5 391/2/5
f 393/2/5 386/2/5 390/2/5
f 394/2/5 386/2/5 393/2/5
f 399/2/5 396/2/5 395/2/5
f 400/2/5 396/2/5 399/2/5
f 403/2/5 398/2/5 397/2/5
f 404/2/5 398/2/5 403/2/5
f 405/2/5 401/2/5 400/2/5
f 406/2/5 401/2/5 405/2/5
f 407/2/5 403/2/5 402/2/5
f 408/2/5 403/2/5 407/2/5
f 414/2/5 410/2/5 409/2/5
f 415/2/5 410/2/5 414/2/5
f 416/2/5 412/2/5 411/2/5
f 417/2/5 412/2/5 416/2/5
f 419/2/5 414/2/5 413/2/5
f 420/2/5 414/2/5 419/2/5
f 421/2/5 418/2/5 417/2/5
f 422/2/5 418/2/5 421/2/5
f 427/2/5 424/2/5 423/2/5
f 428/2/5 424/2/5 427/2/5
f 429/2/5 426/2/5 425/2/5
f 430/2/5 426/2/5 429/2/5
f 435/2/5 432/2/5 431/2/5
f 436/2/5 432/2/5 435/2/5
f 437/2/5 434/2/5 433/2/5
f 438/2/5 434/2/5 437/2/5
f 443/2/5 440/2/5 439/2/5
f 444/2/5 440/2/5 443/2/5
f 445/2/5 442/2/5 441/2/5
f 446/2/5 442/2/5 445/2/5
f 447/2/5 445/2/5 444/2/5
f 448/2/5 445/2/5 447/2/5
f 452/2/5 450/2/5 449/2/5
f 453/2/5 450/2/5 452/2/5
f 455/2/5 452/2/5 451/2/5
f 456/2/5 452/2/5 455/2/5
f 457/2/5 454/2/5 453/2/5
f 458/2/5 454/2/5 457/2/5
f 463/2/5 460/2/5 459/2/5
f 464/1/5 461/1/5 460/1/5
f 464/2/5 460/2/5 463/2/5
f 465/2/5 462/2/5 461/2/5
f 465/1/5 461/1/5 464/1/5
f 466/2/5 462/2/5 465/2/5
f 471/2/5 468/2/5 467/2/5
f 472/1/5 469/1/5 468/1/5
f 472/2/5 468/2/5 471/2/5
f 473/2/5 470/2/5 469/2/5
f 473/1/5 469/1/5 472/1/5
f 474/2/5 470/2/5 473/2/5
f 475/3/6 476/3/6 477/3/6
f 477/3/6 476/3/6 478/3/6
f 478/3/6 476/3/6 479/3/6
f 479/3/6 476/3/6 480/3/6
f 478/3/6 479/3/6 481/3/6
f 481/3/6 479/3/6 482/3/6
f 483/4/6 484/4/6 485/4/6
f 485/4/6 484/4/6 486/4/6
f 489/2/6 490/2/6 491/2/6
f 491/2/6 490/2/6 492/2/6
f 487/2/6 488/2/6 495/2/6
f 495/2/6 488/2/6 496/2/6
f 493/2/6 494/2/6 497/2/6
f 497/2/6 494/2/6 498/2/6
f 501/2/6 502/2/6 503/2/6
f 503/2/6 502/2/6 504/2/6
f 499/2/6 500/2/6 507/2/6
f 507/2/6 500/2/6 508/2/6
f 505/2/6 506/2/6 509/2/6
f 509/2/6 506/2/6 510/2/6
f 513/2/6 514/2/6 515/2/6
f 515/2/6 514/2/6 516/2/6
f 511/2/6 512/2/6 519/2/6
f 519/2/6 512/2/6 520/2/6
f 517/2/6 518/2/6 521/2/6
f 521/2/6 518/2/6 522/2/6
f 525/2/6 526/2/6 527/2/6
f 525/2/6 527/2/6 528/2/6
f 523/2/6 524/2/6 529/2/6
f 529/2/6 524/2/6 530/2/6
f 525/2/6 528/2/6 531/2/6
f 531/2/6 528/2/6 532/2/6
f 523/2/6 529/2/6 533/2/6
f 529/1/6 530/1/6 533/1/6
f 530/2/6 524/2/6 534/2/6
f 533/1/6 530/1/6 534/1/6
f 524/1/6 525/1/6 535/1/6
f 534/2/6 524/2/6 535/2/6
f 525/2/6 531/2/6 536/2/6
f 535/1/6 525/1/6 536/1/6
f 531/1/6 532/1/6 537/1/6
f 536/2/6 531/2/6 537/2/6
f 532/2/6 528/2/6 538/2/6
f 537/1/6 532/1/6 538/1/6
f 533/2/6 534/2/6 539/2/6
f 536/1/6 537/1/6 539/1/6
f 535/1/6 536/1/6 539/1/6
f 534/1/6 535/1/6 539/1/6
f 539/1/6 537/1/6 540/1/6
f 540/1/6 537/1/6 541/1/6
f 537/2/6 538/2/6 542/2/6
f 541/1/6 537/1/6 542/1/6
f 523/2/6 533/2/6 543/2/6
f 533/2/6 539/2/6 543/2/6
f 539/2/6 540/2/6 543/2/6
f 540/1/6 541/1/6 544/1/6
f 543/2/6 540/2/6 544/2/6
f 541/2/6 542/2/6 545/2/6
f 544/1/6 541/1/6 545/1/6
f 538/2/6 528/2/6 546/2/6
f 545/2/6 542/2/6 546/2/6
f 542/2/6 538/2/6 546/2/6
f 547/4/6 548/4/6 549/4/6
f 549/4/6 548/4/6 550/4/6
f 551/3/6 552/3/6 553/3/6
f 553/3/6 552/3/6 554/3/6
f 551/3/6 553/3/6 555/3/6
f 554/3/6 552/3/6 556/3/6
f 551/3/6 555/3/6 557/3/6
f 555/3/6 556/3/6 557/3/6
f 556/3/6 552/3/6 558/3/6
f 557/3/6 556/3/6 558/3/6
