# MagicaVoxel @ Ephtracy

# group
o 

# material
mtllib CopperWire.mtl
usemtl palette

# normals
vn -1 0 0
vn 1 0 0
vn 0 0 1
vn 0 0 -1
vn 0 -1 0
vn 0 1 0

# texcoords
vt 0.970703 0.5
vt 0.974609 0.5
vt 0.978516 0.5
vt 0.982422 0.5
vt 0.986328 0.5
vt 0.990234 0.5

# verts
v -0.4 0 0.2
v -0.4 0 -0.2
v -0.4 0.1 0.2
v -0.4 0.1 -0.2
v -0.4 0.7 0.2
v -0.4 0.7 -0.2
v -0.4 0.8 0.2
v -0.4 0.8 -0.2
v -0.3 0 0.3
v -0.3 0 0.2
v -0.3 0 -0.2
v -0.3 0 -0.3
v -0.3 0.1 0.3
v -0.3 0.1 0.2
v -0.3 0.1 -0.2
v -0.3 0.1 -0.3
v -0.3 0.2 0.2
v -0.3 0.2 -0.2
v -0.3 0.3 0.2
v -0.3 0.3 -0.2
v -0.3 0.4 0.2
v -0.3 0.4 -0.2
v -0.3 0.5 0.2
v -0.3 0.5 -0.2
v -0.3 0.6 0.2
v -0.3 0.6 -0.2
v -0.3 0.7 0.3
v -0.3 0.7 0.2
v -0.3 0.7 -0.2
v -0.3 0.7 -0.3
v -0.3 0.8 0.3
v -0.3 0.8 0.2
v -0.3 0.8 -0.2
v -0.3 0.8 -0.3
v -0.2 0 0.4
v -0.2 0 0.3
v -0.2 0 -0.3
v -0.2 0 -0.4
v -0.2 0.1 0.4
v -0.2 0.1 0.3
v -0.2 0.1 0.2
v -0.2 0.1 -0.2
v -0.2 0.1 -0.3
v -0.2 0.1 -0.4
v -0.2 0.2 0.3
v -0.2 0.2 0.2
v -0.2 0.2 -0.2
v -0.2 0.2 -0.3
v -0.2 0.3 0.3
v -0.2 0.3 0.2
v -0.2 0.3 -0.2
v -0.2 0.3 -0.3
v -0.2 0.4 0.3
v -0.2 0.4 0.2
v -0.2 0.4 -0.2
v -0.2 0.4 -0.3
v -0.2 0.5 0.3
v -0.2 0.5 0.2
v -0.2 0.5 -0.2
v -0.2 0.5 -0.3
v -0.2 0.6 0.3
v -0.2 0.6 0.2
v -0.2 0.6 -0.2
v -0.2 0.6 -0.3
v -0.2 0.7 0.4
v -0.2 0.7 0.3
v -0.2 0.7 0.2
v -0.2 0.7 -0.2
v -0.2 0.7 -0.3
v -0.2 0.7 -0.4
v -0.2 0.8 0.4
v -0.2 0.8 0.3
v -0.2 0.8 -0.3
v -0.2 0.8 -0.4
v 0.2 0 0.4
v 0.2 0 0.3
v 0.2 0 -0.3
v 0.2 0 -0.4
v 0.2 0.1 0.4
v 0.2 0.1 0.3
v 0.2 0.1 0.2
v 0.2 0.1 -0.2
v 0.2 0.1 -0.3
v 0.2 0.1 -0.4
v 0.2 0.2 0.3
v 0.2 0.2 0.2
v 0.2 0.2 -0.2
v 0.2 0.2 -0.3
v 0.2 0.3 0.3
v 0.2 0.3 0.2
v 0.2 0.3 -0.2
v 0.2 0.3 -0.3
v 0.2 0.4 0.3
v 0.2 0.4 0.2
v 0.2 0.4 -0.2
v 0.2 0.4 -0.3
v 0.2 0.5 0.3
v 0.2 0.5 0.2
v 0.2 0.5 -0.2
v 0.2 0.5 -0.3
v 0.2 0.6 0.3
v 0.2 0.6 0.2
v 0.2 0.6 -0.2
v 0.2 0.6 -0.3
v 0.2 0.7 0.4
v 0.2 0.7 0.3
v 0.2 0.7 0.2
v 0.2 0.7 -0.2
v 0.2 0.7 -0.3
v 0.2 0.7 -0.4
v 0.2 0.8 0.4
v 0.2 0.8 0.3
v 0.2 0.8 -0.3
v 0.2 0.8 -0.4
v 0.3 0 0.3
v 0.3 0 0.2
v 0.3 0 -0.2
v 0.3 0 -0.3
v 0.3 0.1 0.3
v 0.3 0.1 0.2
v 0.3 0.1 -0.2
v 0.3 0.1 -0.3
v 0.3 0.2 0.2
v 0.3 0.2 -0.2
v 0.3 0.3 0.2
v 0.3 0.3 -0.2
v 0.3 0.4 0.2
v 0.3 0.4 -0.2
v 0.3 0.5 0.2
v 0.3 0.5 -0.2
v 0.3 0.6 0.2
v 0.3 0.6 -0.2
v 0.3 0.7 0.3
v 0.3 0.7 0.2
v 0.3 0.7 -0.2
v 0.3 0.7 -0.3
v 0.3 0.8 0.3
v 0.3 0.8 0.2
v 0.3 0.8 -0.2
v 0.3 0.8 -0.3
v 0.4 0 0.2
v 0.4 0 -0.2
v 0.4 0.1 0.2
v 0.4 0.1 -0.2
v 0.4 0.7 0.2
v 0.4 0.7 -0.2
v 0.4 0.8 0.2
v 0.4 0.8 -0.2
v -0.2 0 0.4
v -0.2 0.1 0.4
v -0.2 0.7 0.4
v -0.2 0.8 0.4
v 0.2 0 0.4
v 0.2 0.1 0.4
v 0.2 0.7 0.4
v 0.2 0.8 0.4
v -0.3 0 0.3
v -0.3 0.1 0.3
v -0.3 0.7 0.3
v -0.3 0.8 0.3
v -0.2 0 0.3
v -0.2 0.1 0.3
v -0.2 0.2 0.3
v -0.2 0.3 0.3
v -0.2 0.4 0.3
v -0.2 0.5 0.3
v -0.2 0.6 0.3
v -0.2 0.7 0.3
v -0.2 0.8 0.3
v 0.2 0 0.3
v 0.2 0.1 0.3
v 0.2 0.2 0.3
v 0.2 0.3 0.3
v 0.2 0.4 0.3
v 0.2 0.5 0.3
v 0.2 0.6 0.3
v 0.2 0.7 0.3
v 0.2 0.8 0.3
v 0.3 0 0.3
v 0.3 0.1 0.3
v 0.3 0.7 0.3
v 0.3 0.8 0.3
v -0.4 0 0.2
v -0.4 0.1 0.2
v -0.4 0.7 0.2
v -0.4 0.8 0.2
v -0.3 0 0.2
v -0.3 0.1 0.2
v -0.3 0.2 0.2
v -0.3 0.3 0.2
v -0.3 0.4 0.2
v -0.3 0.5 0.2
v -0.3 0.6 0.2
v -0.3 0.7 0.2
v -0.3 0.8 0.2
v -0.2 0.1 0.2
v -0.2 0.2 0.2
v -0.2 0.3 0.2
v -0.2 0.4 0.2
v -0.2 0.5 0.2
v -0.2 0.6 0.2
v -0.2 0.7 0.2
v 0.2 0.1 0.2
v 0.2 0.2 0.2
v 0.2 0.3 0.2
v 0.2 0.4 0.2
v 0.2 0.5 0.2
v 0.2 0.6 0.2
v 0.2 0.7 0.2
v 0.3 0 0.2
v 0.3 0.1 0.2
v 0.3 0.2 0.2
v 0.3 0.3 0.2
v 0.3 0.4 0.2
v 0.3 0.5 0.2
v 0.3 0.6 0.2
v 0.3 0.7 0.2
v 0.3 0.8 0.2
v 0.4 0 0.2
v 0.4 0.1 0.2
v 0.4 0.7 0.2
v 0.4 0.8 0.2
v -0.4 0 -0.2
v -0.4 0.1 -0.2
v -0.4 0.7 -0.2
v -0.4 0.8 -0.2
v -0.3 0 -0.2
v -0.3 0.1 -0.2
v -0.3 0.2 -0.2
v -0.3 0.3 -0.2
v -0.3 0.4 -0.2
v -0.3 0.5 -0.2
v -0.3 0.6 -0.2
v -0.3 0.7 -0.2
v -0.3 0.8 -0.2
v -0.2 0.1 -0.2
v -0.2 0.2 -0.2
v -0.2 0.3 -0.2
v -0.2 0.4 -0.2
v -0.2 0.5 -0.2
v -0.2 0.6 -0.2
v -0.2 0.7 -0.2
v 0.2 0.1 -0.2
v 0.2 0.2 -0.2
v 0.2 0.3 -0.2
v 0.2 0.4 -0.2
v 0.2 0.5 -0.2
v 0.2 0.6 -0.2
v 0.2 0.7 -0.2
v 0.3 0 -0.2
v 0.3 0.1 -0.2
v 0.3 0.2 -0.2
v 0.3 0.3 -0.2
v 0.3 0.4 -0.2
v 0.3 0.5 -0.2
v 0.3 0.6 -0.2
v 0.3 0.7 -0.2
v 0.3 0.8 -0.2
v 0.4 0 -0.2
v 0.4 0.1 -0.2
v 0.4 0.7 -0.2
v 0.4 0.8 -0.2
v -0.3 0 -0.3
v -0.3 0.1 -0.3
v -0.3 0.7 -0.3
v -0.3 0.8 -0.3
v -0.2 0 -0.3
v -0.2 0.1 -0.3
v -0.2 0.2 -0.3
v -0.2 0.3 -0.3
v -0.2 0.4 -0.3
v -0.2 0.5 -0.3
v -0.2 0.6 -0.3
v -0.2 0.7 -0.3
v -0.2 0.8 -0.3
v 0.2 0 -0.3
v 0.2 0.1 -0.3
v 0.2 0.2 -0.3
v 0.2 0.3 -0.3
v 0.2 0.4 -0.3
v 0.2 0.5 -0.3
v 0.2 0.6 -0.3
v 0.2 0.7 -0.3
v 0.2 0.8 -0.3
v 0.3 0 -0.3
v 0.3 0.1 -0.3
v 0.3 0.7 -0.3
v 0.3 0.8 -0.3
v -0.2 0 -0.4
v -0.2 0.1 -0.4
v -0.2 0.7 -0.4
v -0.2 0.8 -0.4
v 0.2 0 -0.4
v 0.2 0.1 -0.4
v 0.2 0.7 -0.4
v 0.2 0.8 -0.4
v -0.2 0 0.4
v 0.2 0 0.4
v -0.3 0 0.3
v -0.2 0 0.3
v 0.2 0 0.3
v 0.3 0 0.3
v -0.4 0 0.2
v -0.3 0 0.2
v 0.3 0 0.2
v 0.4 0 0.2
v -0.1 0 0.1
v 0 0 0.1
v -0.1 0 0
v 0 0 0
v 0.1 0 0
v 0 0 -0.1
v 0.1 0 -0.1
v -0.4 0 -0.2
v -0.3 0 -0.2
v 0.3 0 -0.2
v 0.4 0 -0.2
v -0.3 0 -0.3
v -0.2 0 -0.3
v 0.2 0 -0.3
v 0.3 0 -0.3
v -0.2 0 -0.4
v 0.2 0 -0.4
v -0.2 0.7 0.4
v 0.2 0.7 0.4
v -0.3 0.7 0.3
v -0.2 0.7 0.3
v 0.2 0.7 0.3
v 0.3 0.7 0.3
v -0.4 0.7 0.2
v -0.3 0.7 0.2
v -0.2 0.7 0.2
v 0.2 0.7 0.2
v 0.3 0.7 0.2
v 0.4 0.7 0.2
v -0.4 0.7 -0.2
v -0.3 0.7 -0.2
v -0.2 0.7 -0.2
v 0.2 0.7 -0.2
v 0.3 0.7 -0.2
v 0.4 0.7 -0.2
v -0.3 0.7 -0.3
v -0.2 0.7 -0.3
v 0.2 0.7 -0.3
v 0.3 0.7 -0.3
v -0.2 0.7 -0.4
v 0.2 0.7 -0.4
v -0.2 0.1 0.4
v 0.2 0.1 0.4
v -0.3 0.1 0.3
v -0.2 0.1 0.3
v 0.2 0.1 0.3
v 0.3 0.1 0.3
v -0.4 0.1 0.2
v -0.3 0.1 0.2
v -0.2 0.1 0.2
v 0.2 0.1 0.2
v 0.3 0.1 0.2
v 0.4 0.1 0.2
v -0.4 0.1 -0.2
v -0.3 0.1 -0.2
v -0.2 0.1 -0.2
v 0.2 0.1 -0.2
v 0.3 0.1 -0.2
v 0.4 0.1 -0.2
v -0.3 0.1 -0.3
v -0.2 0.1 -0.3
v 0.2 0.1 -0.3
v 0.3 0.1 -0.3
v -0.2 0.1 -0.4
v 0.2 0.1 -0.4
v -0.2 0.8 0.4
v 0.2 0.8 0.4
v -0.3 0.8 0.3
v -0.2 0.8 0.3
v 0.2 0.8 0.3
v 0.3 0.8 0.3
v -0.4 0.8 0.2
v -0.3 0.8 0.2
v 0.3 0.8 0.2
v 0.4 0.8 0.2
v 0 0.8 0.1
v 0.1 0.8 0.1
v -0.1 0.8 0
v 0 0.8 0
v 0.1 0.8 0
v -0.1 0.8 -0.1
v 0 0.8 -0.1
v -0.4 0.8 -0.2
v -0.3 0.8 -0.2
v 0.3 0.8 -0.2
v 0.4 0.8 -0.2
v -0.3 0.8 -0.3
v -0.2 0.8 -0.3
v 0.2 0.8 -0.3
v 0.3 0.8 -0.3
v -0.2 0.8 -0.4
v 0.2 0.8 -0.4

# faces
f 3/5/1 2/5/1 1/5/1
f 4/5/1 2/5/1 3/5/1
f 7/5/1 6/5/1 5/5/1
f 8/5/1 6/5/1 7/5/1
f 13/5/1 10/5/1 9/5/1
f 14/5/1 10/5/1 13/5/1
f 15/5/1 12/5/1 11/5/1
f 16/5/1 12/5/1 15/5/1
f 17/1/1 15/1/1 14/1/1
f 18/1/1 15/1/1 17/1/1
f 19/2/1 18/2/1 17/2/1
f 20/2/1 18/2/1 19/2/1
f 21/3/1 20/3/1 19/3/1
f 22/3/1 20/3/1 21/3/1
f 23/4/1 22/4/1 21/4/1
f 24/4/1 22/4/1 23/4/1
f 25/1/1 24/1/1 23/1/1
f 26/1/1 24/1/1 25/1/1
f 28/2/1 26/2/1 25/2/1
f 29/2/1 26/2/1 28/2/1
f 31/5/1 28/5/1 27/5/1
f 32/5/1 28/5/1 31/5/1
f 33/5/1 30/5/1 29/5/1
f 34/5/1 30/5/1 33/5/1
f 39/5/1 36/5/1 35/5/1
f 40/5/1 36/5/1 39/5/1
f 43/5/1 38/5/1 37/5/1
f 44/5/1 38/5/1 43/5/1
f 45/4/1 41/4/1 40/4/1
f 46/4/1 41/4/1 45/4/1
f 47/2/1 43/2/1 42/2/1
f 48/2/1 43/2/1 47/2/1
f 49/1/1 46/1/1 45/1/1
f 50/1/1 46/1/1 49/1/1
f 51/3/1 48/3/1 47/3/1
f 52/3/1 48/3/1 51/3/1
f 53/2/1 50/2/1 49/2/1
f 54/2/1 50/2/1 53/2/1
f 55/4/1 52/4/1 51/4/1
f 56/4/1 52/4/1 55/4/1
f 57/3/1 54/3/1 53/3/1
f 58/3/1 54/3/1 57/3/1
f 59/1/1 56/1/1 55/1/1
f 60/1/1 56/1/1 59/1/1
f 61/4/1 58/4/1 57/4/1
f 62/4/1 58/4/1 61/4/1
f 63/2/1 60/2/1 59/2/1
f 64/2/1 60/2/1 63/2/1
f 66/1/1 62/1/1 61/1/1
f 67/1/1 62/1/1 66/1/1
f 68/3/1 64/3/1 63/3/1
f 69/3/1 64/3/1 68/3/1
f 71/5/1 66/5/1 65/5/1
f 72/5/1 66/5/1 71/5/1
f 73/5/1 70/5/1 69/5/1
f 74/5/1 70/5/1 73/5/1
f 75/5/2 76/5/2 79/5/2
f 79/5/2 76/5/2 80/5/2
f 77/5/2 78/5/2 83/5/2
f 83/5/2 78/5/2 84/5/2
f 80/4/2 81/4/2 85/4/2
f 85/4/2 81/4/2 86/4/2
f 82/2/2 83/2/2 87/2/2
f 87/2/2 83/2/2 88/2/2
f 85/1/2 86/1/2 89/1/2
f 89/1/2 86/1/2 90/1/2
f 87/3/2 88/3/2 91/3/2
f 91/3/2 88/3/2 92/3/2
f 89/2/2 90/2/2 93/2/2
f 93/2/2 90/2/2 94/2/2
f 91/4/2 92/4/2 95/4/2
f 95/4/2 92/4/2 96/4/2
f 93/3/2 94/3/2 97/3/2
f 97/3/2 94/3/2 98/3/2
f 95/1/2 96/1/2 99/1/2
f 99/1/2 96/1/2 100/1/2
f 97/4/2 98/4/2 101/4/2
f 101/4/2 98/4/2 102/4/2
f 99/2/2 100/2/2 103/2/2
f 103/2/2 100/2/2 104/2/2
f 101/1/2 102/1/2 106/1/2
f 106/1/2 102/1/2 107/1/2
f 103/3/2 104/3/2 108/3/2
f 108/3/2 104/3/2 109/3/2
f 105/5/2 106/5/2 111/5/2
f 111/5/2 106/5/2 112/5/2
f 109/5/2 110/5/2 113/5/2
f 113/5/2 110/5/2 114/5/2
f 115/5/2 116/5/2 119/5/2
f 119/5/2 116/5/2 120/5/2
f 117/5/2 118/5/2 121/5/2
f 121/5/2 118/5/2 122/5/2
f 120/3/2 121/3/2 123/3/2
f 123/3/2 121/3/2 124/3/2
f 123/4/2 124/4/2 125/4/2
f 125/4/2 124/4/2 126/4/2
f 125/1/2 126/1/2 127/1/2
f 127/1/2 126/1/2 128/1/2
f 127/2/2 128/2/2 129/2/2
f 129/2/2 128/2/2 130/2/2
f 129/3/2 130/3/2 131/3/2
f 131/3/2 130/3/2 132/3/2
f 131/4/2 132/4/2 134/4/2
f 134/4/2 132/4/2 135/4/2
f 133/5/2 134/5/2 137/5/2
f 137/5/2 134/5/2 138/5/2
f 135/5/2 136/5/2 139/5/2
f 139/5/2 136/5/2 140/5/2
f 141/5/2 142/5/2 143/5/2
f 143/5/2 142/5/2 144/5/2
f 145/5/2 146/5/2 147/5/2
f 147/5/2 146/5/2 148/5/2
f 153/5/3 150/5/3 149/5/3
f 154/5/3 150/5/3 153/5/3
f 155/5/3 152/5/3 151/5/3
f 156/5/3 152/5/3 155/5/3
f 161/5/3 158/5/3 157/5/3
f 162/5/3 158/5/3 161/5/3
f 168/5/3 160/5/3 159/5/3
f 169/5/3 160/5/3 168/5/3
f 171/4/3 163/4/3 162/4/3
f 172/1/3 164/1/3 163/1/3
f 172/4/3 163/4/3 171/4/3
f 173/2/3 165/2/3 164/2/3
f 173/1/3 164/1/3 172/1/3
f 174/3/3 166/3/3 165/3/3
f 174/2/3 165/2/3 173/2/3
f 175/4/3 167/4/3 166/4/3
f 175/3/3 166/3/3 174/3/3
f 176/1/3 168/1/3 167/1/3
f 176/4/3 167/4/3 175/4/3
f 177/1/3 168/1/3 176/1/3
f 179/5/3 171/5/3 170/5/3
f 180/5/3 171/5/3 179/5/3
f 181/5/3 178/5/3 177/5/3
f 182/5/3 178/5/3 181/5/3
f 187/5/3 184/5/3 183/5/3
f 188/5/3 184/5/3 187/5/3
f 194/5/3 186/5/3 185/5/3
f 195/5/3 186/5/3 194/5/3
f 196/1/3 189/1/3 188/1/3
f 197/2/3 190/2/3 189/2/3
f 197/1/3 189/1/3 196/1/3
f 198/3/3 191/3/3 190/3/3
f 198/2/3 190/2/3 197/2/3
f 199/4/3 192/4/3 191/4/3
f 199/3/3 191/3/3 198/3/3
f 200/1/3 193/1/3 192/1/3
f 200/4/3 192/4/3 199/4/3
f 201/2/3 194/2/3 193/2/3
f 201/1/3 193/1/3 200/1/3
f 202/2/3 194/2/3 201/2/3
f 211/3/3 204/3/3 203/3/3
f 212/4/3 205/4/3 204/4/3
f 212/3/3 204/3/3 211/3/3
f 213/1/3 206/1/3 205/1/3
f 213/4/3 205/4/3 212/4/3
f 214/2/3 207/2/3 206/2/3
f 214/1/3 206/1/3 213/1/3
f 215/3/3 208/3/3 207/3/3
f 215/2/3 207/2/3 214/2/3
f 216/4/3 209/4/3 208/4/3
f 216/3/3 208/3/3 215/3/3
f 217/4/3 209/4/3 216/4/3
f 219/5/3 211/5/3 210/5/3
f 220/5/3 211/5/3 219/5/3
f 221/5/3 218/5/3 217/5/3
f 222/5/3 218/5/3 221/5/3
f 223/5/4 224/5/4 227/5/4
f 227/5/4 224/5/4 228/5/4
f 225/5/4 226/5/4 234/5/4
f 234/5/4 226/5/4 235/5/4
f 228/1/4 229/1/4 236/1/4
f 229/2/4 230/2/4 237/2/4
f 236/1/4 229/1/4 237/1/4
f 230/3/4 231/3/4 238/3/4
f 237/2/4 230/2/4 238/2/4
f 231/4/4 232/4/4 239/4/4
f 238/3/4 231/3/4 239/3/4
f 232/1/4 233/1/4 240/1/4
f 239/4/4 232/4/4 240/4/4
f 233/2/4 234/2/4 241/2/4
f 240/1/4 233/1/4 241/1/4
f 241/2/4 234/2/4 242/2/4
f 243/3/4 244/3/4 251/3/4
f 244/4/4 245/4/4 252/4/4
f 251/3/4 244/3/4 252/3/4
f 245/1/4 246/1/4 253/1/4
f 252/4/4 245/4/4 253/4/4
f 246/2/4 247/2/4 254/2/4
f 253/1/4 246/1/4 254/1/4
f 247/3/4 248/3/4 255/3/4
f 254/2/4 247/2/4 255/2/4
f 248/4/4 249/4/4 256/4/4
f 255/3/4 248/3/4 256/3/4
f 256/4/4 249/4/4 257/4/4
f 250/5/4 251/5/4 259/5/4
f 259/5/4 251/5/4 260/5/4
f 257/5/4 258/5/4 261/5/4
f 261/5/4 258/5/4 262/5/4
f 263/5/4 264/5/4 267/5/4
f 267/5/4 264/5/4 268/5/4
f 265/5/4 266/5/4 274/5/4
f 274/5/4 266/5/4 275/5/4
f 268/2/4 269/2/4 277/2/4
f 269/3/4 270/3/4 278/3/4
f 277/2/4 269/2/4 278/2/4
f 270/4/4 271/4/4 279/4/4
f 278/3/4 270/3/4 279/3/4
f 271/1/4 272/1/4 280/1/4
f 279/4/4 271/4/4 280/4/4
f 272/2/4 273/2/4 281/2/4
f 280/1/4 272/1/4 281/1/4
f 273/3/4 274/3/4 282/3/4
f 281/2/4 273/2/4 282/2/4
f 282/3/4 274/3/4 283/3/4
f 276/5/4 277/5/4 285/5/4
f 285/5/4 277/5/4 286/5/4
f 283/5/4 284/5/4 287/5/4
f 287/5/4 284/5/4 288/5/4
f 289/5/4 290/5/4 293/5/4
f 293/5/4 290/5/4 294/5/4
f 291/5/4 292/5/4 295/5/4
f 295/5/4 292/5/4 296/5/4
f 300/5/5 298/5/5 297/5/5
f 301/5/5 298/5/5 300/5/5
f 304/5/5 300/5/5 299/5/5
f 304/5/5 302/5/5 301/5/5
f 304/5/5 301/5/5 300/5/5
f 305/5/5 302/5/5 304/5/5
f 307/5/5 304/5/5 303/5/5
f 307/5/5 306/5/5 305/5/5
f 307/5/5 305/5/5 304/5/5
f 308/5/5 306/5/5 307/5/5
f 309/5/5 307/5/5 303/5/5
f 309/6/5 308/6/5 307/6/5
f 310/5/5 306/5/5 308/5/5
f 310/6/5 308/6/5 309/6/5
f 311/5/5 306/5/5 310/5/5
f 312/5/5 310/5/5 309/5/5
f 312/6/5 311/6/5 310/6/5
f 313/5/5 306/5/5 311/5/5
f 313/6/5 311/6/5 312/6/5
f 314/5/5 309/5/5 303/5/5
f 314/5/5 312/5/5 309/5/5
f 314/5/5 313/5/5 312/5/5
f 315/5/5 313/5/5 314/5/5
f 316/5/5 306/5/5 313/5/5
f 316/5/5 313/5/5 315/5/5
f 317/5/5 306/5/5 316/5/5
f 318/5/5 316/5/5 315/5/5
f 319/5/5 316/5/5 318/5/5
f 320/5/5 316/5/5 319/5/5
f 321/5/5 316/5/5 320/5/5
f 322/5/5 320/5/5 319/5/5
f 323/5/5 320/5/5 322/5/5
f 327/5/5 325/5/5 324/5/5
f 328/5/5 325/5/5 327/5/5
f 331/5/5 327/5/5 326/5/5
f 332/5/5 327/5/5 331/5/5
f 333/5/5 329/5/5 328/5/5
f 334/5/5 329/5/5 333/5/5
f 336/5/5 331/5/5 330/5/5
f 337/5/5 331/5/5 336/5/5
f 340/5/5 335/5/5 334/5/5
f 341/5/5 335/5/5 340/5/5
f 342/5/5 338/5/5 337/5/5
f 343/5/5 338/5/5 342/5/5
f 344/5/5 340/5/5 339/5/5
f 345/5/5 340/5/5 344/5/5
f 346/5/5 344/5/5 343/5/5
f 347/5/5 344/5/5 346/5/5
f 348/5/6 349/5/6 351/5/6
f 351/5/6 349/5/6 352/5/6
f 350/5/6 351/5/6 355/5/6
f 355/5/6 351/5/6 356/5/6
f 352/5/6 353/5/6 357/5/6
f 357/5/6 353/5/6 358/5/6
f 354/5/6 355/5/6 360/5/6
f 360/5/6 355/5/6 361/5/6
f 358/5/6 359/5/6 364/5/6
f 364/5/6 359/5/6 365/5/6
f 361/5/6 362/5/6 366/5/6
f 366/5/6 362/5/6 367/5/6
f 363/5/6 364/5/6 368/5/6
f 368/5/6 364/5/6 369/5/6
f 367/5/6 368/5/6 370/5/6
f 370/5/6 368/5/6 371/5/6
f 372/5/6 373/5/6 375/5/6
f 375/5/6 373/5/6 376/5/6
f 374/5/6 375/5/6 379/5/6
f 376/5/6 377/5/6 379/5/6
f 375/5/6 376/5/6 379/5/6
f 379/5/6 377/5/6 380/5/6
f 378/5/6 379/5/6 382/5/6
f 380/5/6 381/5/6 382/5/6
f 379/5/6 380/5/6 382/5/6
f 382/5/6 381/5/6 383/5/6
f 378/5/6 382/5/6 384/5/6
f 382/6/6 383/6/6 385/6/6
f 384/5/6 382/5/6 385/5/6
f 383/5/6 381/5/6 386/5/6
f 385/6/6 383/6/6 386/6/6
f 384/6/6 385/6/6 387/6/6
f 378/5/6 384/5/6 387/5/6
f 385/5/6 386/5/6 388/5/6
f 387/6/6 385/6/6 388/6/6
f 378/5/6 387/5/6 389/5/6
f 387/5/6 388/5/6 389/5/6
f 389/5/6 388/5/6 390/5/6
f 386/5/6 381/5/6 391/5/6
f 390/5/6 388/5/6 391/5/6
f 388/5/6 386/5/6 391/5/6
f 391/5/6 381/5/6 392/5/6
f 390/5/6 391/5/6 393/5/6
f 393/5/6 391/5/6 394/5/6
f 394/5/6 391/5/6 395/5/6
f 395/5/6 391/5/6 396/5/6
f 394/5/6 395/5/6 397/5/6
f 397/5/6 395/5/6 398/5/6
