# MagicaVoxel @ Ephtracy

# group
o 

# material
mtllib CopperOre.mtl
usemtl palette

# normals
vn -1 0 0
vn 1 0 0
vn 0 0 1
vn 0 0 -1
vn 0 -1 0
vn 0 1 0

# texcoords
vt 0.208984 0.5
vt 0.615234 0.5
vt 0.650391 0.5
vt 0.974609 0.5
vt 0.978516 0.5
vt 0.982422 0.5

# verts
v -0.4 0 0.3
v -0.4 0 0.2
v -0.4 0 0
v -0.4 0 -0.3
v -0.4 0.1 0.3
v -0.4 0.1 0.2
v -0.4 0.1 -0.2
v -0.4 0.1 -0.3
v -0.4 0.2 0.3
v -0.4 0.2 0.2
v -0.4 0.2 0.1
v -0.4 0.2 0
v -0.4 0.2 -0.2
v -0.4 0.2 -0.3
v -0.4 0.3 0.3
v -0.4 0.3 0.2
v -0.4 0.3 0.1
v -0.4 0.3 -0.2
v -0.4 0.3 -0.3
v -0.4 0.4 0.3
v -0.4 0.4 0.2
v -0.4 0.4 0.1
v -0.3 0 0.4
v -0.3 0 0.3
v -0.3 0 -0.3
v -0.3 0 -0.4
v -0.3 0.1 0.3
v -0.3 0.1 0.2
v -0.3 0.1 -0.3
v -0.3 0.1 -0.4
v -0.3 0.2 0.3
v -0.3 0.2 0.2
v -0.3 0.2 -0.3
v -0.3 0.2 -0.4
v -0.3 0.3 0.4
v -0.3 0.3 0.3
v -0.3 0.3 0.1
v -0.3 0.3 -0.1
v -0.3 0.3 -0.2
v -0.3 0.3 -0.3
v -0.3 0.3 -0.4
v -0.3 0.4 0.4
v -0.3 0.4 0.3
v -0.3 0.4 0.2
v -0.3 0.4 0.1
v -0.3 0.4 0
v -0.3 0.4 -0.1
v -0.3 0.4 -0.2
v -0.3 0.4 -0.3
v -0.3 0.4 -0.4
v -0.3 0.5 0.3
v -0.3 0.5 0.2
v -0.3 0.5 0.1
v -0.3 0.5 0
v -0.3 0.5 -0.2
v -0.2 0.1 -0.3
v -0.2 0.1 -0.4
v -0.2 0.2 -0.3
v -0.2 0.2 -0.4
v -0.2 0.4 -0.2
v -0.2 0.4 -0.3
v -0.2 0.5 -0.2
v -0.2 0.5 -0.3
v -0.1 0.5 0.1
v -0.1 0.5 -0.1
v -0.1 0.6 0.1
v -0.1 0.6 -0.1
v 0 0.5 -0.1
v 0 0.5 -0.2
v 0 0.6 -0.1
v 0 0.6 -0.2
v 0.2 0.3 -0.3
v 0.2 0.3 -0.4
v 0.2 0.4 -0.3
v 0.2 0.4 -0.4
v -0.2 0.4 0.3
v -0.2 0.4 0.2
v -0.2 0.5 0.3
v -0.2 0.5 0.2
v -0.1 0.3 -0.3
v -0.1 0.3 -0.4
v -0.1 0.4 -0.3
v -0.1 0.4 -0.4
v 0 0.3 0.4
v 0 0.3 0.3
v 0 0.4 0.4
v 0 0.4 0.3
v 0.1 0.5 0.1
v 0.1 0.5 0
v 0.1 0.6 0.1
v 0.1 0.6 0
v 0.2 0.4 0.2
v 0.2 0.4 0.1
v 0.2 0.4 -0.2
v 0.2 0.4 -0.3
v 0.2 0.5 0.2
v 0.2 0.5 0.1
v 0.2 0.5 0
v 0.2 0.5 -0.1
v 0.2 0.5 -0.2
v 0.2 0.5 -0.3
v 0.2 0.6 0
v 0.2 0.6 -0.1
v 0.2 0.6 -0.2
v 0.3 0 0.4
v 0.3 0 0.3
v 0.3 0.1 0.4
v 0.3 0.1 0.3
v 0.3 0.3 0.3
v 0.3 0.3 0.2
v 0.3 0.3 0.1
v 0.3 0.3 -0.3
v 0.3 0.3 -0.4
v 0.3 0.4 0.3
v 0.3 0.4 0.2
v 0.3 0.4 0.1
v 0.3 0.4 -0.1
v 0.3 0.4 -0.2
v 0.3 0.4 -0.3
v 0.3 0.4 -0.4
v 0.3 0.5 0.1
v 0.3 0.5 -0.1
v 0.3 0.5 -0.2
v 0.4 0 0.3
v 0.4 0 0.1
v 0.4 0 0
v 0.4 0 -0.1
v 0.4 0 -0.3
v 0.4 0 -0.4
v 0.4 0.1 0.4
v 0.4 0.1 0.3
v 0.4 0.1 -0.3
v 0.4 0.1 -0.4
v 0.4 0.2 0.4
v 0.4 0.2 0.3
v 0.4 0.2 0.1
v 0.4 0.2 0
v 0.4 0.2 -0.3
v 0.4 0.2 -0.4
v 0.4 0.3 0.4
v 0.4 0.3 0.3
v 0.4 0.3 0.1
v 0.4 0.3 -0.1
v 0.4 0.3 -0.2
v 0.4 0.3 -0.3
v 0.4 0.3 -0.4
v 0.4 0.4 0.1
v 0.4 0.4 -0.1
v 0.4 0.4 -0.2
v 0.4 0.4 -0.3
v -0.3 0 0.4
v -0.3 0.3 0.4
v -0.3 0.4 0.4
v -0.2 0.2 0.4
v -0.2 0.3 0.4
v -0.2 0.4 0.4
v -0.1 0.2 0.4
v -0.1 0.3 0.4
v -0.1 0.4 0.4
v 0 0 0.4
v 0 0.3 0.4
v 0 0.4 0.4
v 0.1 0.2 0.4
v 0.1 0.3 0.4
v 0.2 0.1 0.4
v 0.2 0.2 0.4
v 0.2 0.3 0.4
v 0.3 0 0.4
v 0.3 0.1 0.4
v 0.3 0.2 0.4
v 0.3 0.3 0.4
v 0.4 0.1 0.4
v 0.4 0.2 0.4
v 0.4 0.3 0.4
v -0.4 0 0.3
v -0.4 0.1 0.3
v -0.4 0.2 0.3
v -0.4 0.3 0.3
v -0.4 0.4 0.3
v -0.3 0 0.3
v -0.3 0.1 0.3
v -0.3 0.2 0.3
v -0.3 0.3 0.3
v -0.3 0.4 0.3
v -0.3 0.5 0.3
v -0.2 0.4 0.3
v -0.2 0.5 0.3
v 0 0.3 0.3
v 0 0.4 0.3
v 0.1 0.3 0.3
v 0.1 0.4 0.3
v 0.2 0.3 0.3
v 0.2 0.4 0.3
v 0.3 0 0.3
v 0.3 0.1 0.3
v 0.3 0.3 0.3
v 0.3 0.4 0.3
v 0.4 0 0.3
v 0.4 0.1 0.3
v -0.4 0.1 0.2
v -0.4 0.2 0.2
v -0.3 0.1 0.2
v -0.3 0.2 0.2
v -0.2 0.4 0.2
v -0.2 0.5 0.2
v -0.1 0.4 0.2
v -0.1 0.5 0.2
v 0 0.4 0.2
v 0 0.5 0.2
v 0.1 0.4 0.2
v 0.2 0.4 0.2
v 0.2 0.5 0.2
v -0.1 0.5 0.1
v -0.1 0.6 0.1
v 0 0.5 0.1
v 0.1 0.5 0.1
v 0.1 0.6 0.1
v 0.2 0.4 0.1
v 0.2 0.5 0.1
v 0.3 0.3 0.1
v 0.3 0.4 0.1
v 0.3 0.5 0.1
v 0.4 0.3 0.1
v 0.4 0.4 0.1
v 0.1 0.5 0
v 0.1 0.6 0
v 0.2 0.5 0
v 0.2 0.6 0
v -0.4 0.3 0.1
v -0.4 0.4 0.1
v -0.3 0.3 0.1
v -0.3 0.4 0.1
v -0.1 0.5 -0.1
v -0.1 0.6 -0.1
v 0 0.5 -0.1
v 0 0.6 -0.1
v -0.3 0.4 -0.2
v -0.3 0.5 -0.2
v -0.2 0.4 -0.2
v -0.2 0.5 -0.2
v 0 0.5 -0.2
v 0 0.6 -0.2
v 0.1 0.5 -0.2
v 0.1 0.6 -0.2
v 0.2 0.4 -0.2
v 0.2 0.5 -0.2
v 0.2 0.6 -0.2
v 0.3 0.4 -0.2
v 0.3 0.5 -0.2
v -0.4 0 -0.3
v -0.4 0.1 -0.3
v -0.4 0.2 -0.3
v -0.4 0.3 -0.3
v -0.3 0 -0.3
v -0.3 0.1 -0.3
v -0.3 0.2 -0.3
v -0.3 0.3 -0.3
v -0.2 0.1 -0.3
v -0.2 0.2 -0.3
v -0.2 0.4 -0.3
v -0.2 0.5 -0.3
v -0.1 0.3 -0.3
v -0.1 0.4 -0.3
v 0 0.3 -0.3
v 0 0.4 -0.3
v 0.1 0.3 -0.3
v 0.1 0.5 -0.3
v 0.2 0.3 -0.3
v 0.2 0.4 -0.3
v 0.2 0.5 -0.3
v 0.3 0.3 -0.3
v 0.3 0.4 -0.3
v 0.4 0.3 -0.3
v 0.4 0.4 -0.3
v -0.3 0 -0.4
v -0.3 0.1 -0.4
v -0.3 0.2 -0.4
v -0.3 0.3 -0.4
v -0.3 0.4 -0.4
v -0.2 0.1 -0.4
v -0.2 0.2 -0.4
v -0.2 0.3 -0.4
v -0.2 0.4 -0.4
v -0.1 0.1 -0.4
v -0.1 0.3 -0.4
v -0.1 0.4 -0.4
v 0 0 -0.4
v 0 0.1 -0.4
v 0.1 0 -0.4
v 0.1 0.3 -0.4
v 0.2 0.1 -0.4
v 0.2 0.3 -0.4
v 0.2 0.4 -0.4
v 0.3 0 -0.4
v 0.3 0.1 -0.4
v 0.3 0.2 -0.4
v 0.3 0.3 -0.4
v 0.3 0.4 -0.4
v 0.4 0 -0.4
v 0.4 0.1 -0.4
v 0.4 0.2 -0.4
v 0.4 0.3 -0.4
v -0.3 0 0.4
v 0 0 0.4
v 0.3 0 0.4
v -0.4 0 0.3
v -0.3 0 0.3
v 0 0 0.3
v 0.3 0 0.3
v 0.4 0 0.3
v -0.4 0 0.2
v -0.3 0 0.2
v 0.3 0 0.1
v 0.4 0 0.1
v -0.4 0 0
v -0.3 0 0
v 0.3 0 0
v 0.4 0 0
v 0.3 0 -0.1
v 0.4 0 -0.1
v -0.4 0 -0.3
v -0.3 0 -0.3
v 0 0 -0.3
v 0.1 0 -0.3
v 0.3 0 -0.3
v 0.4 0 -0.3
v -0.3 0 -0.4
v 0 0 -0.4
v 0.1 0 -0.4
v 0.3 0 -0.4
v 0.4 0 -0.4
v 0.3 0.1 0.4
v 0.4 0.1 0.4
v 0.3 0.1 0.3
v 0.4 0.1 0.3
v -0.4 0.2 0.3
v -0.3 0.2 0.3
v -0.4 0.2 0.2
v -0.3 0.2 0.2
v -0.3 0.2 -0.3
v -0.2 0.2 -0.3
v -0.3 0.2 -0.4
v -0.2 0.2 -0.4
v -0.4 0.1 0.3
v -0.3 0.1 0.3
v -0.4 0.1 0.2
v -0.3 0.1 0.2
v -0.3 0.1 -0.3
v -0.2 0.1 -0.3
v -0.3 0.1 -0.4
v -0.2 0.1 -0.4
v 0 0.3 0.4
v 0.1 0.3 0.4
v 0.2 0.3 0.4
v 0.3 0.3 0.4
v 0.4 0.3 0.4
v 0 0.3 0.3
v 0.1 0.3 0.3
v 0.2 0.3 0.3
v 0.3 0.3 0.3
v 0.4 0.3 0.3
v 0.3 0.3 0.2
v -0.4 0.3 0.1
v -0.3 0.3 0.1
v 0.3 0.3 0.1
v 0.4 0.3 0.1
v -0.3 0.3 -0.1
v -0.4 0.3 -0.2
v -0.3 0.3 -0.2
v -0.4 0.3 -0.3
v -0.3 0.3 -0.3
v -0.1 0.3 -0.3
v 0 0.3 -0.3
v 0.1 0.3 -0.3
v 0.2 0.3 -0.3
v 0.3 0.3 -0.3
v 0.4 0.3 -0.3
v -0.1 0.3 -0.4
v 0.1 0.3 -0.4
v 0.2 0.3 -0.4
v 0.3 0.3 -0.4
v 0.4 0.3 -0.4
v -0.3 0.4 0.4
v -0.2 0.4 0.4
v -0.1 0.4 0.4
v 0 0.4 0.4
v -0.4 0.4 0.3
v -0.3 0.4 0.3
v -0.2 0.4 0.3
v 0 0.4 0.3
v 0.1 0.4 0.3
v 0.2 0.4 0.3
v 0.3 0.4 0.3
v -0.4 0.4 0.2
v -0.3 0.4 0.2
v -0.2 0.4 0.2
v -0.1 0.4 0.2
v 0 0.4 0.2
v 0.1 0.4 0.2
v 0.2 0.4 0.2
v 0.3 0.4 0.2
v -0.4 0.4 0.1
v -0.3 0.4 0.1
v 0.2 0.4 0.1
v 0.3 0.4 0.1
v 0.4 0.4 0.1
v 0.3 0.4 -0.1
v 0.4 0.4 -0.1
v -0.3 0.4 -0.2
v -0.2 0.4 -0.2
v 0.2 0.4 -0.2
v 0.3 0.4 -0.2
v 0.4 0.4 -0.2
v -0.3 0.4 -0.3
v -0.2 0.4 -0.3
v -0.1 0.4 -0.3
v 0.2 0.4 -0.3
v 0.3 0.4 -0.3
v 0.4 0.4 -0.3
v -0.3 0.4 -0.4
v -0.2 0.4 -0.4
v -0.1 0.4 -0.4
v 0.2 0.4 -0.4
v 0.3 0.4 -0.4
v -0.3 0.5 0.3
v -0.2 0.5 0.3
v -0.3 0.5 0.2
v -0.2 0.5 0.2
v -0.1 0.5 0.2
v 0 0.5 0.2
v 0.2 0.5 0.2
v -0.3 0.5 0.1
v -0.2 0.5 0.1
v -0.1 0.5 0.1
v 0 0.5 0.1
v 0.1 0.5 0.1
v 0.2 0.5 0.1
v 0.3 0.5 0.1
v -0.3 0.5 0
v -0.2 0.5 0
v 0.1 0.5 0
v 0.2 0.5 0
v -0.2 0.5 -0.1
v -0.1 0.5 -0.1
v 0 0.5 -0.1
v 0.2 0.5 -0.1
v 0.3 0.5 -0.1
v -0.3 0.5 -0.2
v -0.2 0.5 -0.2
v -0.1 0.5 -0.2
v 0 0.5 -0.2
v 0.1 0.5 -0.2
v 0.2 0.5 -0.2
v 0.3 0.5 -0.2
v -0.2 0.5 -0.3
v 0.1 0.5 -0.3
v 0.2 0.5 -0.3
v -0.1 0.6 0.1
v 0.1 0.6 0.1
v 0 0.6 0
v 0.1 0.6 0
v 0.2 0.6 0
v -0.1 0.6 -0.1
v 0 0.6 -0.1
v 0.1 0.6 -0.1
v 0.2 0.6 -0.1
v 0 0.6 -0.2
v 0.1 0.6 -0.2
v 0.2 0.6 -0.2

# faces
f 5/6/1 2/6/1 1/6/1
f 6/5/1 3/5/1 2/5/1
f 6/6/1 2/6/1 5/6/1
f 7/6/1 4/6/1 3/6/1
f 8/6/1 4/6/1 7/6/1
f 10/5/1 3/5/1 6/5/1
f 11/5/1 3/5/1 10/5/1
f 12/6/1 7/6/1 3/6/1
f 12/5/1 3/5/1 11/5/1
f 13/2/1 8/2/1 7/2/1
f 13/6/1 7/6/1 12/6/1
f 14/2/1 8/2/1 13/2/1
f 15/1/1 10/1/1 9/1/1
f 16/5/1 11/5/1 10/5/1
f 16/1/1 10/1/1 15/1/1
f 17/6/1 12/6/1 11/6/1
f 17/5/1 11/5/1 16/5/1
f 17/6/1 13/6/1 12/6/1
f 18/3/1 14/3/1 13/3/1
f 18/6/1 13/6/1 17/6/1
f 19/3/1 14/3/1 18/3/1
f 20/2/1 16/2/1 15/2/1
f 21/1/1 17/1/1 16/1/1
f 21/2/1 16/2/1 20/2/1
f 22/1/1 17/1/1 21/1/1
f 27/5/1 24/5/1 23/5/1
f 29/5/1 26/5/1 25/5/1
f 30/5/1 26/5/1 29/5/1
f 31/6/1 28/6/1 27/6/1
f 31/5/1 27/5/1 23/5/1
f 32/6/1 28/6/1 31/6/1
f 35/5/1 31/5/1 23/5/1
f 36/5/1 31/5/1 35/5/1
f 40/1/1 34/1/1 33/1/1
f 41/1/1 34/1/1 40/1/1
f 42/1/1 36/1/1 35/1/1
f 43/1/1 36/1/1 42/1/1
f 45/6/1 38/6/1 37/6/1
f 46/6/1 38/6/1 45/6/1
f 47/5/1 39/5/1 38/5/1
f 47/6/1 38/6/1 46/6/1
f 48/6/1 40/6/1 39/6/1
f 48/5/1 39/5/1 47/5/1
f 49/2/1 41/2/1 40/2/1
f 49/6/1 40/6/1 48/6/1
f 50/2/1 41/2/1 49/2/1
f 51/3/1 44/3/1 43/3/1
f 52/2/1 45/2/1 44/2/1
f 52/3/1 44/3/1 51/3/1
f 53/4/1 46/4/1 45/4/1
f 53/2/1 45/2/1 52/2/1
f 54/5/1 47/5/1 46/5/1
f 54/4/1 46/4/1 53/4/1
f 54/5/1 48/5/1 47/5/1
f 55/5/1 48/5/1 54/5/1
f 58/5/1 57/5/1 56/5/1
f 59/5/1 57/5/1 58/5/1
f 62/6/1 61/6/1 60/6/1
f 63/6/1 61/6/1 62/6/1
f 66/1/1 65/1/1 64/1/1
f 67/1/1 65/1/1 66/1/1
f 70/2/1 69/2/1 68/2/1
f 71/2/1 69/2/1 70/2/1
f 74/2/1 73/2/1 72/2/1
f 75/2/1 73/2/1 74/2/1
f 76/3/2 77/3/2 78/3/2
f 78/3/2 77/3/2 79/3/2
f 80/1/2 81/1/2 82/1/2
f 82/1/2 81/1/2 83/1/2
f 84/6/2 85/6/2 86/6/2
f 86/6/2 85/6/2 87/6/2
f 88/1/2 89/1/2 90/1/2
f 90/1/2 89/1/2 91/1/2
f 92/5/2 93/5/2 96/5/2
f 96/5/2 93/5/2 97/5/2
f 94/5/2 95/5/2 100/5/2
f 100/5/2 95/5/2 101/5/2
f 98/2/2 99/2/2 102/2/2
f 99/1/2 100/1/2 103/1/2
f 102/2/2 99/2/2 103/2/2
f 103/1/2 100/1/2 104/1/2
f 105/6/2 106/6/2 107/6/2
f 107/6/2 106/6/2 108/6/2
f 109/1/2 110/1/2 114/1/2
f 110/5/2 111/5/2 115/5/2
f 114/1/2 110/1/2 115/1/2
f 115/5/2 111/5/2 116/5/2
f 112/2/2 113/2/2 119/2/2
f 119/2/2 113/2/2 120/2/2
f 116/6/2 117/6/2 121/6/2
f 117/5/2 118/5/2 122/5/2
f 121/6/2 117/6/2 122/6/2
f 122/5/2 118/5/2 123/5/2
f 124/5/2 125/5/2 131/5/2
f 128/6/2 129/6/2 132/6/2
f 127/5/2 128/5/2 132/5/2
f 132/6/2 129/6/2 133/6/2
f 130/2/2 131/2/2 134/2/2
f 131/5/2 125/5/2 135/5/2
f 134/2/2 131/2/2 135/2/2
f 125/6/2 126/6/2 136/6/2
f 135/5/2 125/5/2 136/5/2
f 126/4/2 127/4/2 137/4/2
f 136/6/2 126/6/2 137/6/2
f 127/5/2 132/5/2 138/5/2
f 132/1/2 133/1/2 138/1/2
f 138/1/2 133/1/2 139/1/2
f 134/3/2 135/3/2 140/3/2
f 135/5/2 136/5/2 141/5/2
f 140/3/2 135/3/2 141/3/2
f 136/4/2 137/4/2 142/4/2
f 141/5/2 136/5/2 142/5/2
f 137/4/2 127/4/2 143/4/2
f 142/4/2 137/4/2 143/4/2
f 127/5/2 138/5/2 143/5/2
f 143/5/2 138/5/2 144/5/2
f 138/3/2 139/3/2 145/3/2
f 144/5/2 138/5/2 145/5/2
f 145/3/2 139/3/2 146/3/2
f 142/6/2 143/6/2 147/6/2
f 143/4/2 144/4/2 148/4/2
f 147/6/2 143/6/2 148/6/2
f 144/1/2 145/1/2 149/1/2
f 148/4/2 144/4/2 149/4/2
f 149/1/2 145/1/2 150/1/2
f 154/5/3 152/5/3 151/5/3
f 155/1/3 153/1/3 152/1/3
f 155/5/3 152/5/3 154/5/3
f 156/1/3 153/1/3 155/1/3
f 157/5/3 154/5/3 151/5/3
f 157/4/3 155/4/3 154/4/3
f 158/5/3 156/5/3 155/5/3
f 158/4/3 155/4/3 157/4/3
f 159/5/3 156/5/3 158/5/3
f 160/5/3 157/5/3 151/5/3
f 160/5/3 158/5/3 157/5/3
f 161/6/3 159/6/3 158/6/3
f 161/5/3 158/5/3 160/5/3
f 162/6/3 159/6/3 161/6/3
f 163/6/3 161/6/3 160/6/3
f 164/6/3 161/6/3 163/6/3
f 165/6/3 163/6/3 160/6/3
f 166/4/3 164/4/3 163/4/3
f 166/6/3 163/6/3 165/6/3
f 167/4/3 164/4/3 166/4/3
f 168/6/3 165/6/3 160/6/3
f 169/1/3 166/1/3 165/1/3
f 169/6/3 165/6/3 168/6/3
f 170/2/3 167/2/3 166/2/3
f 170/1/3 166/1/3 169/1/3
f 171/2/3 167/2/3 170/2/3
f 172/2/3 170/2/3 169/2/3
f 173/3/3 171/3/3 170/3/3
f 173/2/3 170/2/3 172/2/3
f 174/3/3 171/3/3 173/3/3
f 180/6/3 176/6/3 175/6/3
f 181/6/3 176/6/3 180/6/3
f 182/1/3 178/1/3 177/1/3
f 183/2/3 179/2/3 178/2/3
f 183/1/3 178/1/3 182/1/3
f 184/2/3 179/2/3 183/2/3
f 186/3/3 185/3/3 184/3/3
f 187/3/3 185/3/3 186/3/3
f 190/6/3 189/6/3 188/6/3
f 191/6/3 189/6/3 190/6/3
f 192/4/3 191/4/3 190/4/3
f 193/4/3 191/4/3 192/4/3
f 196/1/3 193/1/3 192/1/3
f 197/1/3 193/1/3 196/1/3
f 198/5/3 195/5/3 194/5/3
f 199/5/3 195/5/3 198/5/3
f 202/5/3 201/5/3 200/5/3
f 203/5/3 201/5/3 202/5/3
f 206/4/3 205/4/3 204/4/3
f 207/4/3 205/4/3 206/4/3
f 208/6/3 207/6/3 206/6/3
f 209/6/3 207/6/3 208/6/3
f 210/5/3 209/5/3 208/5/3
f 211/5/3 209/5/3 210/5/3
f 212/5/3 209/5/3 211/5/3
f 215/1/3 214/1/3 213/1/3
f 216/1/3 214/1/3 215/1/3
f 217/1/3 214/1/3 216/1/3
f 221/6/3 219/6/3 218/6/3
f 222/6/3 219/6/3 221/6/3
f 223/6/3 221/6/3 220/6/3
f 224/6/3 221/6/3 223/6/3
f 227/2/3 226/2/3 225/2/3
f 228/2/3 226/2/3 227/2/3
f 229/1/4 230/1/4 231/1/4
f 231/1/4 230/1/4 232/1/4
f 233/1/4 234/1/4 235/1/4
f 235/1/4 234/1/4 236/1/4
f 237/5/4 238/5/4 239/5/4
f 239/5/4 238/5/4 240/5/4
f 241/2/4 242/2/4 243/2/4
f 243/2/4 242/2/4 244/2/4
f 243/1/4 244/1/4 246/1/4
f 246/1/4 244/1/4 247/1/4
f 245/5/4 246/5/4 248/5/4
f 248/5/4 246/5/4 249/5/4
f 250/6/4 251/6/4 254/6/4
f 251/2/4 252/2/4 255/2/4
f 254/6/4 251/6/4 255/6/4
f 252/3/4 253/3/4 256/3/4
f 255/2/4 252/2/4 256/2/4
f 256/3/4 253/3/4 257/3/4
f 255/5/4 256/5/4 258/5/4
f 258/5/4 256/5/4 259/5/4
f 260/6/4 261/6/4 263/6/4
f 262/5/4 263/5/4 264/5/4
f 263/6/4 261/6/4 265/6/4
f 264/5/4 263/5/4 265/5/4
f 264/6/4 265/6/4 266/6/4
f 265/6/4 261/6/4 267/6/4
f 266/6/4 265/6/4 267/6/4
f 266/5/4 267/5/4 268/5/4
f 268/5/4 267/5/4 269/5/4
f 269/5/4 267/5/4 270/5/4
f 271/1/4 272/1/4 273/1/4
f 273/1/4 272/1/4 274/1/4
f 275/5/4 276/5/4 280/5/4
f 277/1/4 278/1/4 281/1/4
f 278/2/4 279/2/4 282/2/4
f 281/1/4 278/1/4 282/1/4
f 282/2/4 279/2/4 283/2/4
f 280/5/4 281/5/4 284/5/4
f 275/5/4 280/5/4 284/5/4
f 281/5/4 282/5/4 284/5/4
f 282/1/4 283/1/4 285/1/4
f 284/5/4 282/5/4 285/5/4
f 285/1/4 283/1/4 286/1/4
f 275/5/4 284/5/4 287/5/4
f 284/6/4 285/6/4 288/6/4
f 287/5/4 284/5/4 288/5/4
f 287/6/4 288/6/4 289/6/4
f 288/6/4 285/6/4 290/6/4
f 289/6/4 288/6/4 290/6/4
f 289/5/4 290/5/4 291/5/4
f 291/5/4 290/5/4 292/5/4
f 289/5/4 291/5/4 294/5/4
f 291/6/4 292/6/4 295/6/4
f 294/5/4 291/5/4 295/5/4
f 295/6/4 292/6/4 296/6/4
f 292/2/4 293/2/4 297/2/4
f 296/6/4 292/6/4 297/6/4
f 297/2/4 293/2/4 298/2/4
f 294/6/4 295/6/4 299/6/4
f 295/1/4 296/1/4 300/1/4
f 299/6/4 295/6/4 300/6/4
f 296/3/4 297/3/4 301/3/4
f 300/1/4 296/1/4 301/1/4
f 301/3/4 297/3/4 302/3/4
f 307/5/5 304/5/5 303/5/5
f 308/6/5 305/6/5 304/6/5
f 308/5/5 304/5/5 307/5/5
f 309/6/5 305/6/5 308/6/5
f 311/6/5 307/6/5 306/6/5
f 312/5/5 310/5/5 309/5/5
f 312/6/5 307/6/5 311/6/5
f 312/5/5 308/5/5 307/5/5
f 312/5/5 309/5/5 308/5/5
f 313/5/5 312/5/5 311/5/5
f 313/5/5 310/5/5 312/5/5
f 314/5/5 310/5/5 313/5/5
f 315/5/5 313/5/5 311/5/5
f 316/5/5 313/5/5 315/5/5
f 317/6/5 314/6/5 313/6/5
f 317/5/5 313/5/5 316/5/5
f 318/6/5 314/6/5 317/6/5
f 319/5/5 317/5/5 316/5/5
f 319/4/5 318/4/5 317/4/5
f 320/4/5 318/4/5 319/4/5
f 321/6/5 316/6/5 315/6/5
f 322/5/5 319/5/5 316/5/5
f 322/6/5 316/6/5 321/6/5
f 322/5/5 320/5/5 319/5/5
f 323/5/5 320/5/5 322/5/5
f 324/5/5 320/5/5 323/5/5
f 325/5/5 320/5/5 324/5/5
f 326/5/5 320/5/5 325/5/5
f 327/5/5 323/5/5 322/5/5
f 328/6/5 324/6/5 323/6/5
f 328/5/5 323/5/5 327/5/5
f 329/5/5 325/5/5 324/5/5
f 329/6/5 324/6/5 328/6/5
f 330/6/5 326/6/5 325/6/5
f 330/5/5 325/5/5 329/5/5
f 331/6/5 326/6/5 330/6/5
f 334/2/5 333/2/5 332/2/5
f 335/2/5 333/2/5 334/2/5
f 338/1/5 337/1/5 336/1/5
f 339/1/5 337/1/5 338/1/5
f 342/1/5 341/1/5 340/1/5
f 343/1/5 341/1/5 342/1/5
f 344/6/6 345/6/6 346/6/6
f 346/6/6 345/6/6 347/6/6
f 348/5/6 349/5/6 350/5/6
f 350/5/6 349/5/6 351/5/6
f 352/6/6 353/6/6 357/6/6
f 353/4/6 354/4/6 358/4/6
f 357/6/6 353/6/6 358/6/6
f 354/2/6 355/2/6 359/2/6
f 358/4/6 354/4/6 359/4/6
f 355/3/6 356/3/6 360/3/6
f 359/2/6 355/2/6 360/2/6
f 360/3/6 356/3/6 361/3/6
f 360/5/6 361/5/6 362/5/6
f 362/5/6 361/5/6 365/5/6
f 365/5/6 361/5/6 366/5/6
f 363/6/6 364/6/6 367/6/6
f 363/6/6 367/6/6 368/6/6
f 368/6/6 367/6/6 369/6/6
f 368/3/6 369/3/6 370/3/6
f 370/3/6 369/3/6 371/3/6
f 372/6/6 373/6/6 378/6/6
f 373/6/6 374/6/6 378/6/6
f 374/5/6 375/5/6 379/5/6
f 378/6/6 374/6/6 379/6/6
f 379/5/6 375/5/6 380/5/6
f 376/3/6 377/3/6 381/3/6
f 381/3/6 377/3/6 382/3/6
f 383/1/6 384/1/6 388/1/6
f 384/5/6 385/5/6 389/5/6
f 388/1/6 384/1/6 389/1/6
f 385/6/6 386/6/6 390/6/6
f 387/2/6 388/2/6 394/2/6
f 394/2/6 388/2/6 395/2/6
f 389/5/6 385/5/6 396/5/6
f 385/6/6 390/6/6 397/6/6
f 396/5/6 385/5/6 397/5/6
f 390/6/6 391/6/6 397/6/6
f 397/6/6 391/6/6 398/6/6
f 391/4/6 392/4/6 399/4/6
f 398/6/6 391/6/6 399/6/6
f 392/1/6 393/1/6 400/1/6
f 399/4/6 392/4/6 400/4/6
f 400/1/6 393/1/6 401/1/6
f 394/1/6 395/1/6 402/1/6
f 402/1/6 395/1/6 403/1/6
f 400/5/6 401/5/6 404/5/6
f 404/5/6 401/5/6 405/5/6
f 405/6/6 406/6/6 407/6/6
f 407/6/6 406/6/6 408/6/6
f 407/4/6 408/4/6 412/4/6
f 412/4/6 408/4/6 413/4/6
f 409/6/6 410/6/6 414/6/6
f 414/6/6 410/6/6 415/6/6
f 411/6/6 412/6/6 417/6/6
f 412/1/6 413/1/6 418/1/6
f 417/6/6 412/6/6 418/6/6
f 418/1/6 413/1/6 419/1/6
f 414/2/6 415/2/6 420/2/6
f 415/1/6 416/1/6 421/1/6
f 420/2/6 415/2/6 421/2/6
f 421/1/6 416/1/6 422/1/6
f 417/2/6 418/2/6 423/2/6
f 423/2/6 418/2/6 424/2/6
f 425/3/6 426/3/6 427/3/6
f 427/3/6 426/3/6 428/3/6
f 427/2/6 428/2/6 432/2/6
f 428/4/6 429/4/6 433/4/6
f 432/2/6 428/2/6 433/2/6
f 429/6/6 430/6/6 434/6/6
f 433/4/6 429/4/6 434/4/6
f 430/5/6 431/5/6 435/5/6
f 434/6/6 430/6/6 435/6/6
f 435/5/6 431/5/6 436/5/6
f 436/5/6 431/5/6 437/5/6
f 433/4/6 434/4/6 439/4/6
f 432/4/6 433/4/6 439/4/6
f 439/4/6 434/4/6 440/4/6
f 436/4/6 437/4/6 441/4/6
f 437/6/6 438/6/6 442/6/6
f 441/4/6 437/4/6 442/4/6
f 440/4/6 434/4/6 443/4/6
f 439/5/6 440/5/6 443/5/6
f 443/4/6 434/4/6 444/4/6
f 442/6/6 438/6/6 446/6/6
f 446/6/6 438/6/6 447/6/6
f 439/5/6 443/5/6 448/5/6
f 443/5/6 444/5/6 448/5/6
f 448/5/6 444/5/6 449/5/6
f 444/6/6 445/6/6 450/6/6
f 449/5/6 444/5/6 450/5/6
f 450/6/6 445/6/6 451/6/6
f 446/5/6 447/5/6 453/5/6
f 453/5/6 447/5/6 454/5/6
f 451/6/6 452/6/6 455/6/6
f 449/6/6 450/6/6 455/6/6
f 450/6/6 451/6/6 455/6/6
f 452/5/6 453/5/6 456/5/6
f 455/6/6 452/6/6 456/6/6
f 456/5/6 453/5/6 457/5/6
f 458/1/6 459/1/6 460/1/6
f 460/1/6 459/1/6 461/1/6
f 458/1/6 460/1/6 463/1/6
f 460/3/6 461/3/6 464/3/6
f 463/1/6 460/1/6 464/1/6
f 461/2/6 462/2/6 465/2/6
f 464/3/6 461/3/6 465/3/6
f 465/2/6 462/2/6 466/2/6
f 464/2/6 465/2/6 467/2/6
f 465/1/6 466/1/6 468/1/6
f 467/2/6 465/2/6 468/2/6
f 468/1/6 466/1/6 469/1/6
